<?xml version="1.0" standalone="no"?>
<!DOCTYPE svg PUBLIC "-//W3C//DTD SVG 1.1//EN" "http://www.w3.org/Graphics/SVG/1.1/DTD/svg11.dtd" >
<svg xmlns="http://www.w3.org/2000/svg" xmlns:xlink="http://www.w3.org/1999/xlink" version="1.1">
<metadata>
Created by FontForge 20170910 at Sun Sep  2 12:39:44 2012
 By Jimmy Wärting
Copyright (c) 2008-2012 by Jos Buivenga/exljbris. All rights reserved.
</metadata>
<defs>
<font id="MuseoCyrl-500" horiz-adv-x="577" >
  <font-face 
    font-family="Museo Cyrl 500"
    font-weight="400"
    font-stretch="normal"
    units-per-em="1000"
    panose-1="2 0 0 0 0 0 0 0 0 0"
    ascent="750"
    descent="-250"
    x-height="506"
    cap-height="706"
    bbox="-108 -237 1088 892"
    underline-thickness="50"
    underline-position="-100"
    stemh="86"
    stemv="97"
    unicode-range="U+0020-FB04"
  />
<missing-glyph horiz-adv-x="510" 
d="M5 0v700h500v-700h-500zM255 395l170 255h-340zM285 350l170 -255v510zM55 95l170 255l-170 255v-510zM85 50h340l-170 255z" />
    <glyph glyph-name="f_f" unicode="ff" horiz-adv-x="631" 
d="M85 0v428h-63v78h63v17c0 167 127 188 191 188c22 0 37 -3 37 -3v-83s-10 2 -25 2c-38 0 -106 -13 -106 -107v-14h218v17c0 167 127 188 191 188c22 0 37 -3 37 -3v-83s-11 2 -25 2c-38 0 -106 -13 -106 -107v-14h119v-78h-119v-428h-97v428h-218v-428h-97z" />
    <glyph glyph-name="fi" unicode="fi" horiz-adv-x="585" 
d="M85 0v428h-63v78h63v17c0 167 127 188 191 188c22 0 37 -3 37 -3v-83s-11 2 -27 2c-38 0 -104 -13 -104 -107v-14h255c45 0 64 -19 64 -64v-337c0 -15 8 -22 22 -22h41v-83h-95c-46 0 -65 19 -65 64v342c0 14 -8 22 -22 22h-200v-428h-97zM406 605v101h88v-101h-88z" />
    <glyph glyph-name="fl" unicode="fl" horiz-adv-x="580" 
d="M85 0v428h-63v78h63v17c0 166 127 183 191 183h154c46 0 65 -19 65 -64v-537c0 -15 8 -22 22 -22h41v-83h-96c-45 0 -64 19 -64 64v537c0 15 -8 22 -22 22h-88c-38 0 -106 -8 -106 -102v-15h120v-78h-120v-428h-97z" />
    <glyph glyph-name="f_f_i" unicode="ffi" horiz-adv-x="899" 
d="M85 0v428h-63v78h63v17c0 167 127 188 191 188c22 0 37 -3 37 -3v-83s-11 2 -27 2c-37 0 -104 -13 -104 -107v-14h218v17c0 167 127 188 191 188c22 0 37 -3 37 -3v-83s-11 2 -27 2c-38 0 -104 -13 -104 -107v-14h255c45 0 64 -19 64 -64v-337c0 -15 8 -22 22 -22h41v-83
h-96c-45 0 -64 19 -64 64v342c0 14 -8 22 -22 22h-200v-428h-97v428h-218v-428h-97zM721 605v101h87v-101h-87z" />
    <glyph glyph-name="f_f_l" unicode="ffl" horiz-adv-x="894" 
d="M85 0v428h-63v78h63v19c0 165 124 186 189 186c23 0 39 -3 39 -3v-83s-12 2 -27 2c-38 0 -104 -14 -104 -106v-15h218v17c0 166 127 183 190 183h155c45 0 64 -19 64 -64v-537c0 -15 8 -22 22 -22h41v-83h-95c-45 0 -64 19 -64 64v537c0 15 -8 22 -22 22h-88
c-38 0 -106 -8 -106 -102v-15h119v-78h-119v-428h-97v428h-218v-428h-97z" />
    <glyph glyph-name="f_j" unicode="fj" horiz-adv-x="586" 
d="M85 0v428h-63v78h63v17c0 167 127 188 191 188c22 0 37 -3 37 -3v-83s-11 2 -27 2c-37 0 -104 -13 -104 -107v-14h276c45 0 64 -19 64 -64v-459c0 -169 -131 -189 -194 -189c-20 0 -34 2 -34 2v83s9 -1 22 -1c38 0 109 12 109 111v417c0 14 -8 22 -22 22h-221v-428h-97z
M428 605v101h87v-101h-87z" />
    <glyph glyph-name=".notdef" horiz-adv-x="510" 
d="M5 0v700h500v-700h-500zM255 395l170 255h-340zM285 350l170 -255v510zM55 95l170 255l-170 255v-510zM85 50h340l-170 255z" />
    <glyph glyph-name="space" unicode=" " horiz-adv-x="269" 
 />
    <glyph glyph-name="exclam" unicode="!" horiz-adv-x="268" 
d="M91 194l-7 512h100l-6 -512h-87zM85 0v97h99v-97h-99z" />
    <glyph glyph-name="quotedbl" unicode="&#x22;" horiz-adv-x="345" 
d="M204 530v188h77v-188h-77zM64 530v188h76v-188h-76z" />
    <glyph glyph-name="numbersign" unicode="#" horiz-adv-x="707" 
d="M134 0l34 191h-131l12 74h131l30 168h-130l12 73h130l35 200h81l-35 -200h155l35 200h82l-35 -200h130l-12 -73h-131l-30 -168h130l-12 -74h-130l-33 -191h-82l34 191h-155l-34 -191h-81zM261 265h155l30 168h-155z" />
    <glyph glyph-name="dollar" unicode="$" 
d="M53 125l71 59s58 -105 171 -105c72 0 121 44 121 105c0 149 -341 123 -341 351c0 93 75 165 184 180v94h73v-93c71 -8 165 -43 165 -128v-58h-92v33c0 37 -48 64 -104 64c-76 0 -124 -40 -124 -91c0 -148 341 -111 341 -349c0 -96 -72 -182 -186 -196v-93h-73v92
c-143 17 -206 135 -206 135z" />
    <glyph glyph-name="percent" unicode="%" horiz-adv-x="748" 
d="M193 422c-85 0 -152 66 -152 148c0 81 67 148 152 148c83 0 152 -67 152 -148c0 -82 -69 -148 -152 -148zM57 0l540 706h94l-540 -706h-94zM193 496c41 0 74 32 74 74c0 41 -33 75 -74 75c-42 0 -74 -34 -74 -75c0 -42 32 -74 74 -74zM404 136c0 81 67 148 151 148
s152 -67 152 -148c0 -82 -68 -148 -152 -148s-151 66 -151 148zM482 136c0 -42 32 -74 73 -74c42 0 74 32 74 74c0 41 -32 75 -74 75c-41 0 -73 -34 -73 -75z" />
    <glyph glyph-name="ampersand" unicode="&#x26;" horiz-adv-x="638" 
d="M43 202c0 73 43 153 123 176v2s-92 33 -92 156c0 109 86 182 212 182c47 0 90 -11 90 -11l-25 -79s-30 7 -54 7c-72 0 -123 -46 -123 -109c0 -44 21 -111 130 -111h127v91h97v-91h90v-86h-90v-94c0 -157 -91 -247 -239 -247c-145 0 -246 93 -246 214zM145 203
c0 -67 53 -124 144 -124c87 0 142 49 142 160v90h-126c-103 0 -160 -47 -160 -126z" />
    <glyph glyph-name="quotesingle" unicode="'" horiz-adv-x="205" 
d="M64 530v188h77v-188h-77z" />
    <glyph glyph-name="parenleft" unicode="(" horiz-adv-x="271" 
d="M159 -95c-76 117 -118 270 -118 424c0 149 37 289 113 406h85c-74 -124 -110 -257 -110 -399c0 -148 39 -298 115 -431h-85z" />
    <glyph glyph-name="parenright" unicode=")" horiz-adv-x="271" 
d="M27 -95c76 133 115 283 115 431c0 142 -36 275 -111 399h86c76 -117 113 -257 113 -406c0 -154 -43 -307 -118 -424h-85z" />
    <glyph glyph-name="asterisk" unicode="*" horiz-adv-x="483" 
d="M163 329l-72 52l89 110v2l-137 37l27 84l133 -50l-8 142h91l-8 -142l134 50l28 -84l-138 -37v-2l89 -110l-72 -52l-77 118h-2z" />
    <glyph glyph-name="plus" unicode="+" 
d="M24 246v78h224v246h82v-246h223v-78h-223v-246h-82v246h-224z" />
    <glyph glyph-name="comma" unicode="," horiz-adv-x="249" 
d="M24 -101l62 206h97l-84 -206h-75z" />
    <glyph glyph-name="hyphen" unicode="-" horiz-adv-x="410" 
d="M59 242v86h292v-86h-292z" />
    <glyph glyph-name="period" unicode="." horiz-adv-x="217" 
d="M59 0v103h99v-103h-99z" />
    <glyph glyph-name="slash" unicode="/" horiz-adv-x="413" 
d="M37 -42l254 786h86l-254 -786h-86z" />
    <glyph glyph-name="zero" unicode="0" horiz-adv-x="599" 
d="M299 -12c-188 0 -249 162 -249 366c0 203 61 364 249 364c189 0 250 -161 250 -364c0 -204 -61 -366 -250 -366zM299 79c116 0 149 121 149 275c0 153 -33 273 -149 273c-115 0 -148 -120 -148 -273c0 -154 33 -275 148 -275z" />
    <glyph glyph-name="one" unicode="1" horiz-adv-x="465" 
d="M44 0v86h155v456c0 22 1 43 1 43h-2s-8 -15 -33 -40l-67 -65l-59 62l168 164h92v-620h153v-86h-408z" />
    <glyph glyph-name="two" unicode="2" horiz-adv-x="570" 
d="M37 81c0 260 359 242 359 433c0 65 -48 112 -124 112c-63 0 -109 -32 -109 -67v-31h-92v60c0 92 123 130 205 130c129 0 222 -82 222 -203c0 -243 -358 -247 -358 -410c0 -14 8 -19 25 -19h251c14 0 22 8 22 22v45h92v-89c0 -45 -19 -64 -64 -64h-362
c-55 0 -67 24 -67 81z" />
    <glyph glyph-name="three" unicode="3" horiz-adv-x="556" 
d="M34 87l54 75s71 -80 179 -80c77 0 141 53 141 129c0 79 -71 126 -153 126h-49l-22 53l147 185c21 30 42 46 42 46v2s-21 -3 -60 -3h-137c-14 0 -22 -7 -22 -22v-45h-91v89c0 45 15 64 60 64h372v-63l-185 -224c91 -10 200 -71 200 -207c0 -118 -96 -224 -243 -224
c-146 0 -233 99 -233 99z" />
    <glyph glyph-name="four" unicode="4" horiz-adv-x="586" 
d="M18 187v64l319 455h114v-433h110v-86h-110v-187h-100v187h-333zM127 270c0 0 29 3 60 3h165v243c0 32 4 72 4 72h-2s-17 -33 -35 -59l-156 -212c-18 -26 -36 -45 -36 -45v-2z" />
    <glyph glyph-name="five" unicode="5" horiz-adv-x="548" 
d="M37 87l55 73s56 -78 164 -78c89 0 152 62 152 141c0 88 -76 144 -167 144c-79 0 -135 -36 -135 -36l-41 19l28 292c4 45 19 64 64 64h247c44 0 63 -19 63 -64v-89h-91v45c0 15 -8 22 -22 22h-148c-14 0 -20 -7 -22 -22l-14 -129c-2 -22 -5 -37 -5 -37h2s39 21 91 21
c153 0 252 -103 252 -232c0 -124 -100 -233 -254 -233c-146 0 -219 99 -219 99z" />
    <glyph glyph-name="six" unicode="6" horiz-adv-x="571" 
d="M308 -12c-150 0 -264 128 -264 325c0 184 100 405 318 405c84 0 137 -29 137 -29l-32 -85s-44 23 -100 23c-130 0 -197 -121 -212 -242h2c28 43 94 69 156 69c133 0 222 -101 222 -230c0 -139 -95 -236 -227 -236zM149 271c0 -90 69 -192 159 -192c81 0 129 63 129 145
c0 85 -54 146 -145 146c-79 0 -143 -48 -143 -99z" />
    <glyph glyph-name="seven" unicode="7" horiz-adv-x="528" 
d="M70 0l299 556c22 40 41 65 41 65v2s-16 -3 -51 -3h-213c-14 0 -22 -7 -22 -22v-45h-91v89c0 45 15 64 60 64h430v-68l-343 -638h-110z" />
    <glyph glyph-name="eight" unicode="8" horiz-adv-x="579" 
d="M43 202c0 116 117 181 117 181v2s-87 46 -87 144s78 189 220 189c135 0 221 -81 221 -191c0 -104 -86 -168 -86 -168v-2c64 -37 106 -86 106 -162c0 -110 -101 -207 -245 -207c-132 0 -246 83 -246 214zM287 416c13 -6 42 -17 54 -17c24 0 75 59 75 122
c0 65 -51 106 -123 106c-77 0 -122 -44 -122 -100c0 -62 52 -86 116 -111zM144 207c0 -79 68 -128 145 -128c75 0 143 49 143 119c0 62 -52 89 -118 116c-27 11 -65 26 -73 26c-25 0 -97 -58 -97 -133z" />
    <glyph glyph-name="nine" unicode="9" horiz-adv-x="571" 
d="M72 17l32 86s45 -24 101 -24c129 0 197 122 212 243h-2c-29 -44 -94 -69 -156 -69c-134 0 -223 100 -223 229c0 139 95 236 227 236c150 0 264 -128 264 -325c0 -184 -99 -405 -318 -405c-84 0 -137 29 -137 29zM279 336c79 0 143 48 143 99c0 91 -68 192 -158 192
c-82 0 -130 -63 -130 -145c0 -84 54 -146 145 -146z" />
    <glyph glyph-name="colon" unicode=":" horiz-adv-x="217" 
d="M59 403v103h99v-103h-99zM59 0v103h99v-103h-99z" />
    <glyph glyph-name="semicolon" unicode=";" horiz-adv-x="268" 
d="M99 403v103h99v-103h-99zM46 -101l51 206h97l-73 -206h-75z" />
    <glyph glyph-name="less" unicode="&#x3c;" 
d="M43 252v66l466 208v-89l-357 -151v-2l357 -151v-89z" />
    <glyph glyph-name="equal" unicode="=" 
d="M50 340v78h477v-78h-477zM50 151v78h477v-78h-477z" />
    <glyph glyph-name="greater" unicode="&#x3e;" 
d="M67 44v89l357 151v2l-357 151v89l466 -208v-66z" />
    <glyph glyph-name="question" unicode="?" horiz-adv-x="463" 
d="M149 194v47c0 152 170 174 170 289c0 56 -49 99 -115 99c-63 0 -114 -42 -114 -42l-53 69s66 64 174 64c114 0 209 -72 209 -183c0 -165 -177 -182 -177 -302v-41h-94zM146 0v97h100v-97h-100z" />
    <glyph glyph-name="at" unicode="@" horiz-adv-x="782" 
d="M48 241c0 206 161 370 365 370c193 0 260 -97 260 -203v-283h72v-73h-273c-125 0 -207 88 -207 189c0 99 81 187 207 187h108c-2 57 -59 103 -162 103c-155 0 -273 -134 -273 -290c0 -158 114 -287 284 -287v-79c-224 0 -381 162 -381 366zM363 242
c0 -65 48 -117 116 -117h101v236h-99c-70 0 -118 -54 -118 -119z" />
    <glyph glyph-name="A" unicode="A" horiz-adv-x="665" 
d="M12 0v86h14c18 0 27 4 33 22l221 598h105l221 -598c6 -18 15 -22 33 -22h14v-86h-55c-50 0 -66 12 -83 58l-53 145h-259l-53 -145c-17 -46 -33 -58 -83 -58h-55zM227 287h211l-77 215c-12 37 -28 99 -28 99h-2s-15 -62 -27 -99z" />
    <glyph glyph-name="B" unicode="B" horiz-adv-x="609" 
d="M98 64v556h-65v86h303c119 0 205 -66 205 -180c0 -77 -41 -129 -88 -152v-2c74 -22 116 -92 116 -171c0 -133 -103 -201 -227 -201h-179c-45 0 -65 19 -65 64zM198 409h138c63 0 103 45 103 107s-38 104 -105 104h-136v-211zM198 108c0 -14 8 -22 22 -22h127
c74 0 119 48 119 120s-47 121 -120 121h-148v-219z" />
    <glyph glyph-name="C" unicode="C" horiz-adv-x="698" 
d="M35 359c0 204 152 359 354 359c95 0 265 -39 265 -153v-69h-92v40c0 59 -100 89 -171 89c-142 0 -252 -107 -252 -266c0 -154 111 -277 255 -277c140 0 223 96 223 96l54 -72s-100 -118 -278 -118c-211 0 -358 163 -358 371z" />
    <glyph glyph-name="D" unicode="D" horiz-adv-x="714" 
d="M98 64v556h-65v86h286c215 0 358 -129 358 -352c0 -224 -143 -354 -358 -354h-156c-45 0 -65 19 -65 64zM198 108c0 -14 8 -22 22 -22h92c158 0 261 94 261 268c0 173 -104 266 -261 266h-114v-512z" />
    <glyph glyph-name="E" unicode="E" horiz-adv-x="571" 
d="M98 64v556h-65v86h416c45 0 64 -19 64 -64v-89h-92v45c0 15 -8 22 -22 22h-201v-221h248v-86h-248v-205c0 -14 8 -22 22 -22h207c14 0 22 8 22 22v45h91v-89c0 -45 -19 -64 -64 -64h-313c-45 0 -65 19 -65 64z" />
    <glyph glyph-name="F" unicode="F" horiz-adv-x="511" 
d="M98 0v620h-65v86h390c45 0 64 -19 64 -64v-89h-91v45c0 15 -8 22 -22 22h-176v-232h242v-86h-242v-302h-100z" />
    <glyph glyph-name="G" unicode="G" horiz-adv-x="728" 
d="M35 356c0 203 153 362 356 362c168 0 252 -87 252 -87l-57 -73s-76 68 -193 68c-141 0 -254 -113 -254 -270c0 -164 112 -274 256 -274c126 0 201 88 201 88v71c0 14 -8 22 -22 22h-43v86h92c46 0 65 -19 65 -64v-285h-88v44c0 15 1 30 1 30h-2s-79 -86 -220 -86
c-189 0 -344 148 -344 368z" />
    <glyph glyph-name="H" unicode="H" horiz-adv-x="757" 
d="M99 0v598c0 15 -8 22 -22 22h-43v86h101c45 0 64 -19 64 -64v-247h359v247c0 45 19 64 65 64h100v-86h-43c-14 0 -22 -7 -22 -22v-598h-100v310h-359v-310h-100z" />
    <glyph glyph-name="I" unicode="I" horiz-adv-x="318" 
d="M42 0v86h69v534h-69v86h233v-86h-68v-534h68v-86h-233z" />
    <glyph glyph-name="J" unicode="J" horiz-adv-x="511" 
d="M16 203v35h100v-27c0 -98 57 -129 112 -129s110 33 110 125v391c0 15 -8 22 -22 22h-173v86h230c46 0 65 -19 65 -64v-439c0 -153 -107 -215 -211 -215s-211 63 -211 215z" />
    <glyph glyph-name="K" unicode="K" horiz-adv-x="612" 
d="M99 0v598c0 15 -8 22 -22 22h-43v86h101c45 0 64 -19 64 -64v-233h67c26 0 46 4 58 24l157 273h112l-171 -293c-20 -35 -40 -46 -40 -46v-2s20 -5 40 -44l106 -212c10 -21 26 -23 50 -23h19v-86h-55c-55 0 -76 7 -98 53l-122 245c-12 23 -34 26 -63 26h-60v-324h-100z
" />
    <glyph glyph-name="L" unicode="L" horiz-adv-x="541" 
d="M98 64v534c0 15 -8 22 -22 22h-43v86h101c45 0 64 -19 64 -64v-534c0 -14 8 -22 22 -22h196c14 0 22 8 22 22v45h91v-89c0 -45 -19 -64 -64 -64h-302c-45 0 -65 19 -65 64z" />
    <glyph glyph-name="M" unicode="M" horiz-adv-x="862" 
d="M23 0v86h33c14 0 21 8 22 22l48 598h103l166 -373c17 -39 35 -90 35 -90h2s18 51 35 90l166 373h103l48 -598c1 -14 8 -22 22 -22h34v-86h-89c-46 0 -61 19 -65 64l-28 373c-4 42 -2 104 -2 104h-2s-21 -66 -38 -104l-143 -310h-84l-142 310c-17 37 -38 105 -38 105h-2
s1 -63 -2 -105l-29 -373c-3 -45 -19 -64 -64 -64h-89z" />
    <glyph glyph-name="N" unicode="N" horiz-adv-x="757" 
d="M34 0v86h43c14 0 22 8 22 22v598h91l314 -447c26 -38 59 -96 59 -96h2s-7 57 -7 96v383c0 45 19 64 65 64h100v-86h-43c-14 0 -22 -7 -22 -22v-598h-90l-315 447c-26 38 -58 96 -58 96h-2s6 -57 6 -96v-383c0 -45 -19 -64 -64 -64h-101z" />
    <glyph glyph-name="O" unicode="O" horiz-adv-x="793" 
d="M34 358c0 203 158 360 362 360s363 -157 363 -360c0 -208 -159 -370 -363 -370s-362 162 -362 370zM138 358c0 -156 115 -276 258 -276s259 120 259 276c0 151 -116 267 -259 267s-258 -116 -258 -267z" />
    <glyph glyph-name="P" unicode="P" horiz-adv-x="585" 
d="M98 0v620h-65v86h311c130 0 222 -87 222 -221s-92 -224 -222 -224h-146v-261h-100zM198 347h130c84 0 135 53 135 138s-51 135 -134 135h-131v-273z" />
    <glyph glyph-name="Q" unicode="Q" horiz-adv-x="793" 
d="M34 357c0 204 157 361 361 361c206 0 364 -157 364 -361c0 -88 -32 -170 -83 -232l81 -79l-60 -64l-81 81c-61 -49 -138 -75 -221 -75c-204 0 -361 163 -361 369zM138 357c0 -155 113 -275 257 -275c93 0 149 49 149 49l-78 76l60 65l77 -79c32 44 52 103 52 164
c0 153 -114 267 -260 267c-144 0 -257 -114 -257 -267z" />
    <glyph glyph-name="R" unicode="R" horiz-adv-x="622" 
d="M98 0v620h-65v86h309c123 0 211 -78 211 -207c0 -118 -78 -176 -128 -187v-2s18 -9 30 -32l85 -169c11 -21 27 -23 51 -23h13v-86h-49c-56 0 -76 7 -99 53l-96 190c-17 33 -31 38 -69 38h-93v-281h-100zM198 367h131c76 0 121 49 121 128s-45 125 -120 125h-132v-253z
" />
    <glyph glyph-name="S" unicode="S" horiz-adv-x="525" 
d="M29 93l58 71s73 -85 178 -85c65 0 120 40 120 105c0 147 -340 124 -340 345c0 106 92 189 226 189c75 0 200 -34 200 -130v-58h-92v33c0 37 -52 64 -109 64c-75 0 -124 -42 -124 -95c0 -142 341 -109 341 -343c0 -108 -84 -201 -224 -201c-151 0 -234 105 -234 105z" />
    <glyph glyph-name="T" unicode="T" horiz-adv-x="632" 
d="M266 0v620h-141c-15 0 -22 -7 -22 -22v-45h-90v93c0 45 15 60 60 60h486c45 0 60 -15 60 -60v-93h-89v45c0 15 -8 22 -22 22h-142v-620h-100z" />
    <glyph glyph-name="U" unicode="U" horiz-adv-x="720" 
d="M91 247v351c0 15 -8 22 -22 22h-43v86h100c45 0 65 -19 65 -64v-391c0 -106 66 -169 169 -169c102 0 169 63 169 170v390c0 45 19 64 64 64h101v-86h-43c-14 0 -22 -7 -22 -22v-351c0 -154 -108 -259 -268 -259c-162 0 -270 105 -270 259z" />
    <glyph glyph-name="V" unicode="V" horiz-adv-x="667" 
d="M280 0l-221 598c-7 18 -16 22 -34 22h-14v86h57c50 0 66 -11 82 -58l155 -435c13 -38 27 -97 27 -97h2s14 59 27 97l155 435c17 47 33 58 83 58h57v-86h-14c-18 0 -27 -4 -34 -22l-222 -598h-106z" />
    <glyph glyph-name="W" unicode="W" horiz-adv-x="967" 
d="M220 0l-154 598c-5 18 -16 22 -35 22h-15v86h58c49 0 75 -10 86 -58l110 -454c9 -38 13 -75 13 -75h2s7 36 17 75l143 510h89l132 -510c10 -39 15 -75 15 -75h2s5 37 14 75l110 454c11 48 36 58 86 58h58v-86h-15c-19 0 -30 -4 -35 -22l-154 -598h-117l-120 446
c-12 46 -20 97 -20 97h-2s-9 -51 -22 -96l-129 -447h-117z" />
    <glyph glyph-name="X" unicode="X" horiz-adv-x="595" 
d="M12 0l222 364l-142 231c-14 23 -26 25 -47 25h-25v86h58c49 0 69 -9 95 -54l79 -134c22 -39 45 -83 45 -83h2s20 44 43 83l80 134c26 45 45 54 94 54h59v-86h-26c-20 0 -32 -2 -46 -25l-143 -231l223 -364h-113l-129 215c-22 39 -44 80 -44 80h-2s-21 -42 -43 -81
l-128 -214h-112z" />
    <glyph glyph-name="Y" unicode="Y" horiz-adv-x="606" 
d="M253 0v308l-179 287c-12 21 -22 25 -43 25h-20v86h46c48 0 67 -7 95 -54l107 -178c23 -39 43 -79 43 -79h2s20 40 43 79l106 178c28 47 48 54 95 54h47v-86h-20c-21 0 -31 -4 -44 -25l-178 -287v-308h-100z" />
    <glyph glyph-name="Z" unicode="Z" horiz-adv-x="600" 
d="M32 0v66l348 490c27 39 53 65 53 65v2s-19 -3 -53 -3h-227c-14 0 -22 -7 -22 -22v-45h-91v89c0 45 19 64 64 64h452v-65l-348 -491c-28 -39 -53 -64 -53 -64v-2s19 2 53 2h249c14 0 22 8 22 22v45h91v-89c0 -45 -19 -64 -64 -64h-474z" />
    <glyph glyph-name="bracketleft" unicode="[" horiz-adv-x="282" 
d="M78 -31v702c0 45 19 64 64 64h102v-73h-59c-14 0 -22 -7 -22 -22v-639c0 -15 8 -22 22 -22h59v-74h-102c-45 0 -64 19 -64 64z" />
    <glyph glyph-name="backslash" unicode="\" horiz-adv-x="413" 
d="M290 -42l-254 786h86l254 -786h-86z" />
    <glyph glyph-name="bracketright" unicode="]" horiz-adv-x="282" 
d="M39 -21h58c14 0 22 7 22 22v639c0 15 -8 22 -22 22h-58v73h101c45 0 65 -19 65 -64v-702c0 -45 -20 -64 -65 -64h-101v74z" />
    <glyph glyph-name="asciicircum" unicode="^" horiz-adv-x="613" 
d="M69 247l200 459h63l200 -459h-88l-144 352l-143 -352h-88z" />
    <glyph glyph-name="underscore" unicode="_" horiz-adv-x="565" 
d="M14 0h538v-78h-538v78z" />
    <glyph glyph-name="grave" unicode="`" horiz-adv-x="379" 
d="M178 755l-95 127h98l73 -127h-76z" />
    <glyph glyph-name="a" unicode="a" horiz-adv-x="529" 
d="M28 138c0 170 221 177 306 177h22v7c0 87 -34 119 -112 119c-24 0 -83 -6 -83 -39v-29h-92v51c0 81 127 94 173 94c167 0 211 -85 211 -198v-215c0 -15 8 -22 22 -22h41v-83h-92c-45 0 -62 22 -62 58c0 18 1 30 1 30h-2c1 0 -43 -100 -163 -100c-88 0 -170 53 -170 150z
M125 147c0 -41 32 -82 95 -82c84 0 136 86 136 161v19h-26c-73 0 -205 -7 -205 -98z" />
    <glyph glyph-name="b" unicode="b" horiz-adv-x="583" 
d="M67 0v601c0 15 -8 22 -22 22h-41v83h95c45 0 65 -19 65 -64v-165c0 -24 -2 -42 -2 -42h2s44 83 162 83c136 0 223 -108 223 -265c0 -161 -98 -265 -231 -265c-113 0 -159 85 -159 85h-2s2 -16 2 -38v-35h-92zM161 251c0 -90 47 -180 143 -180c80 0 146 66 146 181
c0 110 -59 181 -143 181c-76 0 -146 -53 -146 -182z" />
    <glyph glyph-name="c" unicode="c" horiz-adv-x="530" 
d="M33 253c0 149 109 265 272 265c61 0 182 -25 182 -111v-52h-88v28c0 36 -58 52 -94 52c-99 0 -174 -74 -174 -181c0 -115 84 -180 179 -180s157 70 157 70l41 -69s-71 -87 -205 -87c-159 0 -270 113 -270 265z" />
    <glyph glyph-name="d" unicode="d" horiz-adv-x="601" 
d="M35 253c0 161 95 265 228 265c117 0 156 -78 156 -78h2s-1 15 -1 34v127c0 15 -8 22 -22 22h-41v83h95c46 0 65 -19 65 -64v-537c0 -15 8 -22 22 -22h41v-83h-93c-45 0 -62 20 -62 54c0 15 1 26 1 26h-2s-42 -92 -166 -92c-137 0 -223 108 -223 265zM133 253
c0 -110 59 -181 144 -181c75 0 145 53 145 182c0 90 -46 180 -143 180c-79 0 -146 -66 -146 -181z" />
    <glyph glyph-name="e" unicode="e" horiz-adv-x="539" 
d="M33 253c0 161 110 265 254 265c143 0 218 -107 218 -237c0 -14 -2 -33 -3 -41h-369c6 -109 84 -168 175 -168c77 0 132 47 149 59l41 -71c-24 -20 -100 -72 -196 -72c-159 0 -269 115 -269 265zM137 310h271c-3 87 -57 133 -123 133c-75 0 -134 -49 -148 -133z" />
    <glyph glyph-name="f" unicode="f" horiz-adv-x="316" 
d="M85 0v428h-63v78h63v17c0 167 127 188 191 188c22 0 37 -3 37 -3v-83s-10 2 -25 2c-38 0 -106 -12 -106 -106v-15h120v-78h-120v-428h-97z" />
    <glyph glyph-name="g" unicode="g" horiz-adv-x="594" 
d="M114 -90c0 0 63 -34 138 -34c88 0 161 39 161 141v34c0 16 1 32 1 32h-2c-30 -49 -77 -77 -150 -77c-141 0 -227 113 -227 259c0 145 81 253 222 253c127 0 163 -79 163 -79h2s-1 8 -1 16c0 30 17 51 57 51h94v-83h-41c-13 0 -22 -7 -22 -20v-382
c0 -167 -126 -231 -255 -231c-60 0 -123 17 -172 42zM281 90c70 0 134 42 134 174s-64 170 -143 170c-88 0 -138 -64 -138 -167c0 -105 56 -177 147 -177z" />
    <glyph glyph-name="h" unicode="h" horiz-adv-x="605" 
d="M67 0v601c0 15 -8 22 -22 22h-41v83h95c45 0 65 -19 65 -62v-197c0 -24 -2 -42 -2 -42h2c22 49 86 113 187 113c119 0 174 -65 174 -194v-219c0 -15 8 -22 22 -22h41v-83h-96c-45 0 -64 19 -64 64v238c0 71 -14 127 -95 127c-77 0 -140 -52 -161 -125
c-6 -20 -8 -43 -8 -67v-237h-97z" />
    <glyph glyph-name="i" unicode="i" horiz-adv-x="265" 
d="M86 605v101h87v-101h-87zM84 64v337c0 15 -8 22 -22 22h-41v83h95c46 0 65 -19 65 -64v-337c0 -15 8 -22 22 -22h41v-83h-96c-45 0 -64 19 -64 64z" />
    <glyph glyph-name="j" unicode="j" horiz-adv-x="245" 
d="M86 605v101h87v-101h-87zM84 -11v412c0 15 -8 22 -22 22h-41v83h96c45 0 64 -19 64 -64v-459c0 -169 -131 -189 -194 -189c-20 0 -34 2 -34 2v83s9 -1 22 -1c38 0 109 12 109 111z" />
    <glyph glyph-name="k" unicode="k" horiz-adv-x="513" 
d="M67 0v601c0 15 -8 22 -22 22h-41v83h95c45 0 65 -13 65 -58v-328h45c18 0 40 5 52 22l117 164h112l-138 -188c-23 -31 -38 -38 -38 -38v-2s17 -6 34 -38l75 -137c9 -16 18 -20 44 -20h30v-83h-70c-46 0 -62 8 -83 47l-93 170c-10 19 -33 21 -50 21h-37v-238h-97z" />
    <glyph glyph-name="l" unicode="l" horiz-adv-x="249" 
d="M67 64v537c0 15 -8 22 -22 22h-40v83h95c45 0 64 -19 64 -64v-537c0 -15 8 -22 22 -22h41v-83h-95c-45 0 -65 19 -65 64z" />
    <glyph glyph-name="m" unicode="m" horiz-adv-x="934" 
d="M85 0v401c0 15 -8 22 -22 22h-41v83h93c44 0 64 -19 64 -56v-19c0 -16 -1 -29 -1 -29h2c24 59 94 116 173 116c86 0 135 -39 153 -115h2c27 61 97 115 179 115c114 0 167 -65 167 -194v-219c0 -15 8 -22 22 -22h41v-83h-96c-45 0 -64 19 -64 64v239c0 71 -14 127 -89 127
c-70 0 -124 -61 -141 -130c-6 -21 -9 -43 -9 -69v-231h-97v303c0 66 -10 127 -87 127c-73 0 -126 -62 -145 -134c-5 -20 -7 -42 -7 -65v-231h-97z" />
    <glyph glyph-name="n" unicode="n" horiz-adv-x="623" 
d="M85 0v401c0 15 -8 22 -22 22h-41v83h93c44 0 64 -19 64 -56v-19c0 -16 -2 -29 -2 -29h2c20 44 80 116 191 116c119 0 173 -65 173 -194v-219c0 -15 8 -22 22 -22h41v-83h-96c-45 0 -64 19 -64 64v238c0 71 -14 127 -95 127c-77 0 -139 -51 -160 -124
c-7 -20 -9 -43 -9 -68v-237h-97z" />
    <glyph glyph-name="o" unicode="o" horiz-adv-x="611" 
d="M33 254c0 153 121 264 272 264s273 -111 273 -264c0 -154 -122 -266 -273 -266s-272 112 -272 266zM131 254c0 -106 79 -182 174 -182c96 0 174 76 174 182c0 105 -78 180 -174 180c-95 0 -174 -75 -174 -180z" />
    <glyph glyph-name="p" unicode="p" horiz-adv-x="601" 
d="M85 -200v601c0 15 -8 22 -22 22h-41v83h91c45 0 62 -19 62 -51c0 -15 -1 -27 -1 -27h2s42 90 168 90c137 0 223 -108 223 -265c0 -161 -97 -265 -230 -265c-112 0 -155 81 -155 81h-2s2 -18 2 -44v-225h-97zM179 251c0 -90 49 -180 144 -180c79 0 145 66 145 181
c0 110 -59 181 -143 181c-75 0 -146 -53 -146 -182z" />
    <glyph glyph-name="q" unicode="q" horiz-adv-x="602" 
d="M35 253c0 161 95 265 228 265c120 0 163 -86 163 -86h2s-1 11 -1 26c0 30 19 48 62 48h91v-83h-41c-14 0 -22 -7 -22 -22v-601h-97v229c0 26 2 44 2 44h-2s-43 -85 -162 -85c-137 0 -223 108 -223 265zM133 253c0 -110 59 -181 144 -181c75 0 145 53 145 182
c0 90 -46 180 -143 180c-79 0 -146 -66 -146 -181z" />
    <glyph glyph-name="r" unicode="r" horiz-adv-x="376" 
d="M85 0v401c0 15 -8 22 -22 22h-41v83h93c43 0 64 -18 64 -59v-32c0 -20 -2 -35 -2 -35h2c24 74 82 132 160 132c13 0 26 -2 26 -2v-96s-13 3 -28 3c-63 0 -119 -44 -143 -119c-9 -29 -12 -60 -12 -91v-207h-97z" />
    <glyph glyph-name="s" unicode="s" horiz-adv-x="449" 
d="M28 77l49 65s61 -75 154 -75c47 0 87 21 87 65c0 91 -275 81 -275 244c0 97 85 142 188 142c60 0 166 -21 166 -98v-48h-87v25c0 30 -46 43 -76 43c-57 0 -95 -20 -95 -60c0 -96 277 -75 277 -244c0 -90 -80 -148 -186 -148c-135 0 -202 89 -202 89z" />
    <glyph glyph-name="t" unicode="t" horiz-adv-x="328" 
d="M83 185v243h-66v78h68v139h95v-139h122v-78h-122v-232c0 -101 71 -114 108 -114c14 0 23 2 23 2v-86s-14 -2 -34 -2c-65 0 -194 20 -194 189z" />
    <glyph glyph-name="u" unicode="u" horiz-adv-x="617" 
d="M80 182v219c0 15 -8 22 -22 22h-41v83h95c45 0 64 -19 64 -62v-240c0 -70 15 -126 95 -126c104 0 165 91 165 191v237h97v-401c0 -15 8 -22 22 -22h41v-83h-93c-44 0 -64 20 -64 56v19c0 16 1 29 1 29h-2c-21 -50 -87 -116 -186 -116c-114 0 -172 60 -172 194z" />
    <glyph glyph-name="v" unicode="v" horiz-adv-x="534" 
d="M211 0l-156 403c-5 15 -15 20 -31 20h-10v83h50c45 0 62 -11 77 -51l109 -291c10 -28 18 -66 18 -66h2s8 38 18 66l108 291c15 40 33 51 77 51h47v-83h-10c-16 0 -27 -5 -32 -20l-155 -403h-112z" />
    <glyph glyph-name="w" unicode="w" horiz-adv-x="845" 
d="M194 0l-133 403c-6 16 -16 20 -32 20h-14v83h61c45 0 63 -11 76 -54l89 -301c7 -26 12 -54 12 -54h2s6 28 14 54l109 353h90l109 -353c8 -26 13 -54 13 -54h2s5 28 13 54l89 301c13 43 30 54 75 54h61v-83h-14c-16 0 -25 -4 -31 -20l-133 -403h-109l-105 325
c-8 26 -14 55 -14 55h-2s-6 -29 -14 -55l-105 -325h-109z" />
    <glyph glyph-name="x" unicode="x" horiz-adv-x="505" 
d="M20 0l171 260l-97 144c-11 16 -22 19 -42 19h-29v83h62c47 0 62 -8 89 -51l61 -98c8 -13 16 -32 16 -32h2s9 19 17 32l61 98c27 43 42 51 89 51h62v-83h-29c-20 0 -31 -3 -42 -18l-97 -145l171 -260h-110l-106 165c-8 12 -16 27 -16 27h-2s-7 -15 -15 -27l-106 -165h-110
z" />
    <glyph glyph-name="y" unicode="y" horiz-adv-x="543" 
d="M121 -210c-75 0 -119 50 -119 50l40 70c1 -3 32 -36 74 -36c39 0 70 28 89 73l23 55l-173 401c-7 16 -15 20 -31 20h-13v83h57c41 0 57 -11 73 -51l114 -285c10 -26 18 -61 18 -61h2s8 35 17 61l106 285c14 40 32 51 73 51h58v-83h-13c-16 0 -25 -4 -32 -20l-199 -494
c-32 -78 -93 -119 -164 -119z" />
    <glyph glyph-name="z" unicode="z" horiz-adv-x="515" 
d="M37 0v56l259 320c21 27 41 47 41 47v2s-15 -2 -48 -2h-139c-14 0 -22 -8 -22 -22v-34h-89v75c0 45 20 64 65 64h361v-56l-259 -321c-21 -26 -42 -46 -42 -46v-2s16 2 49 2h161c14 0 22 8 22 22v34h89v-75c0 -45 -19 -64 -64 -64h-384z" />
    <glyph glyph-name="braceleft" unicode="{" horiz-adv-x="323" 
d="M110 77v96c0 102 -85 109 -85 109v86s85 7 85 111v84c0 158 114 174 162 174c14 0 23 -1 23 -1v-74h-14c-25 0 -86 -9 -86 -105v-103c0 -99 -81 -127 -81 -127v-2s81 -24 81 -127v-115c0 -96 61 -105 86 -105h14v-74s-9 -2 -23 -2c-48 0 -162 16 -162 175z" />
    <glyph glyph-name="bar" unicode="|" horiz-adv-x="239" 
d="M77 -159v951h85v-951h-85z" />
    <glyph glyph-name="braceright" unicode="}" horiz-adv-x="323" 
d="M28 -22h14c25 0 86 9 86 105v115c0 103 81 127 81 127v2s-81 28 -81 127v103c0 96 -61 105 -86 105h-14v74s9 1 23 1c48 0 162 -16 162 -174v-84c0 -104 85 -111 85 -111v-86s-85 -7 -85 -109v-96c0 -159 -114 -175 -162 -175c-14 0 -23 2 -23 2v74z" />
    <glyph glyph-name="asciitilde" unicode="~" horiz-adv-x="591" 
d="M58 204c0 116 54 169 140 169c105 0 116 -98 192 -98c52 0 66 52 66 94h79c0 -117 -53 -169 -139 -169c-105 0 -116 97 -192 97c-52 0 -66 -52 -66 -93h-80z" />
    <glyph glyph-name="exclamdown" unicode="&#xa1;" horiz-adv-x="243" 
d="M71 409v97h100v-97h-100zM71 -200l7 512h87l7 -512h-101z" />
    <glyph glyph-name="cent" unicode="&#xa2;" 
d="M263 -38v111c-128 18 -204 136 -204 280c0 145 76 263 204 281v110h73v-110c86 -13 148 -72 182 -155l-89 -34c-23 56 -64 99 -126 99c-93 0 -145 -83 -145 -191c0 -111 50 -190 145 -190c62 0 103 42 126 99l89 -35c-31 -74 -91 -144 -182 -154v-111h-73z" />
    <glyph glyph-name="sterling" unicode="&#xa3;" 
d="M46 0v86h61v233h-44v70h44v136c0 111 91 193 217 193c101 0 167 -64 167 -64l-57 -69s-48 43 -109 43c-74 0 -118 -48 -118 -107v-132h184v-70h-184v-233h216c14 0 22 8 22 22v45h92v-89c0 -45 -19 -64 -64 -64h-427z" />
    <glyph glyph-name="yen" unicode="&#xa5;" horiz-adv-x="617" 
d="M98 204v63h160v41l-27 44h-136v63h94v2l-112 181c-11 19 -23 22 -44 22h-17v86h44c48 0 70 -7 98 -54l106 -178c23 -39 43 -78 43 -78h2s20 39 43 78l107 178c27 47 49 54 97 54h44v-86h-17c-21 0 -33 -3 -45 -22l-111 -181v-2h91v-63h-132l-28 -44v-41h160v-63h-160
v-204h-100v204h-160z" />
    <glyph glyph-name="section" unicode="&#xa7;" horiz-adv-x="437" 
d="M138 111l-71 390c-4 15 -6 31 -6 46c0 97 71 171 189 171c87 0 141 -51 141 -51l-46 -64s-40 34 -95 34c-59 0 -106 -33 -106 -101c0 -12 1 -25 5 -40l68 -385h-79zM46 -11l44 67s42 -37 97 -37c59 0 106 35 106 105c0 13 -2 28 -6 45l-66 376h79l70 -390
c4 -16 5 -31 5 -45c0 -99 -71 -172 -188 -172c-87 0 -141 51 -141 51z" />
    <glyph glyph-name="dieresis" unicode="&#xa8;" horiz-adv-x="501" 
d="M307 781v101h73v-101h-73zM142 781v101h74v-101h-74z" />
    <glyph glyph-name="copyright" unicode="&#xa9;" horiz-adv-x="803" 
d="M44 353c0 203 159 365 355 365c200 0 359 -162 359 -365s-159 -365 -359 -365c-196 0 -355 162 -355 365zM118 353c0 -167 123 -297 281 -297c162 0 286 130 286 297s-124 297 -286 297c-158 0 -281 -130 -281 -297zM210 352c0 105 76 200 197 200c115 0 163 -99 163 -99
l-61 -33s-34 63 -100 63c-78 0 -124 -62 -124 -131c0 -71 44 -131 124 -131c67 0 100 63 100 63l61 -33s-49 -99 -163 -99c-121 0 -197 94 -197 200z" />
    <glyph glyph-name="ordfeminine" unicode="&#xaa;" horiz-adv-x="440" 
d="M176 383c-56 0 -109 34 -109 99c0 99 126 107 184 107h14c-2 50 -19 66 -61 66c-12 0 -43 -1 -43 -17v-19h-69v40c0 49 82 57 113 57c104 0 132 -56 132 -126v-126c0 -7 3 -10 10 -10h28v-65h-58c-25 0 -43 9 -46 37l-1 10h-2s-27 -53 -92 -53zM190 442c47 0 72 46 75 96
h-11c-39 0 -113 -3 -113 -53c0 -22 16 -43 49 -43zM66 265v57h312v-57h-312z" />
    <glyph glyph-name="guillemotleft" unicode="&#xab;" horiz-adv-x="549" 
d="M243 282l164 206h97l-164 -206l164 -205h-97zM205 77l-164 205l164 206h97l-164 -206l164 -205h-97z" />
    <glyph glyph-name="logicalnot" unicode="&#xac;" horiz-adv-x="604" 
d="M62 340v78h477v-267h-81v189h-396z" />
    <glyph glyph-name="registered" unicode="&#xae;" horiz-adv-x="803" 
d="M44 353c0 203 159 365 355 365c200 0 359 -162 359 -365s-159 -365 -359 -365c-196 0 -355 162 -355 365zM118 353c0 -167 123 -297 281 -297c162 0 286 130 286 297s-124 297 -286 297c-158 0 -281 -130 -281 -297zM277 166v323h-33v54h179c71 0 119 -45 119 -115
c0 -58 -39 -92 -69 -100v-2s12 -3 21 -20l39 -75c6 -12 16 -13 24 -13h11v-52h-39c-27 0 -41 3 -54 28l-51 99c-9 17 -20 19 -35 19h-41v-146h-71zM348 364h60c38 0 61 24 61 64c0 39 -23 61 -60 61h-61v-125z" />
    <glyph glyph-name="macron" unicode="&#xaf;" horiz-adv-x="464" 
d="M108 784v68h254v-68h-254z" />
    <glyph glyph-name="degree" unicode="&#xb0;" horiz-adv-x="384" 
d="M192 422c-84 0 -152 66 -152 148c0 81 68 148 152 148c83 0 152 -67 152 -148c0 -82 -69 -148 -152 -148zM192 496c41 0 74 33 74 74s-33 75 -74 75c-42 0 -74 -34 -74 -75s32 -74 74 -74z" />
    <glyph glyph-name="plusminus" unicode="&#xb1;" 
d="M24 246v78h224v246h82v-246h223v-78h-223v-246h-82v246h-224zM40 -95h497v-78h-497v78z" />
    <glyph glyph-name="twosuperior" unicode="&#xb2;" horiz-adv-x="376" 
d="M78 266c-35 0 -48 11 -48 59c0 86 65 125 124 158c48 27 92 53 92 102c0 34 -25 59 -66 59c-34 0 -58 -17 -58 -35v-24h-71v44c0 61 83 86 130 86c83 0 142 -52 142 -130c0 -86 -71 -124 -130 -157c-44 -25 -85 -49 -85 -89c0 -5 4 -6 9 -6h148c4 0 6 2 6 7v34h71v-62
c0 -32 -14 -46 -46 -46h-218z" />
    <glyph glyph-name="threesuperior" unicode="&#xb3;" horiz-adv-x="376" 
d="M187 258c-94 0 -156 80 -156 80l52 49s44 -58 104 -58c41 0 76 30 76 72s-37 67 -81 67h-35l-12 44l85 106c9 12 21 23 21 23v2s-16 -2 -33 -2h-76c-7 0 -9 -3 -9 -10v-26h-71v53c0 36 10 48 47 48h233v-51l-105 -127c59 -8 113 -58 113 -128c0 -85 -72 -142 -153 -142z
" />
    <glyph glyph-name="acute" unicode="&#xb4;" horiz-adv-x="388" 
d="M119 755l73 127h98l-95 -127h-76z" />
    <glyph glyph-name="mu" unicode="&#xb5;" horiz-adv-x="655" 
d="M105 -200v601c0 15 -8 22 -22 22h-41v83h95c45 0 64 -19 64 -62v-240c0 -70 15 -126 95 -126c104 0 165 91 165 191v237h97v-401c0 -15 8 -22 22 -22h41v-83h-93c-44 0 -64 20 -64 56v19c0 16 1 29 1 29h-2s-47 -116 -186 -116c-67 0 -91 31 -91 31h-2s7 -49 7 -78v-141
h-86z" />
    <glyph glyph-name="mu" unicode="&#x3bc;" horiz-adv-x="655" 
d="M105 -200v601c0 15 -8 22 -22 22h-41v83h95c45 0 64 -19 64 -62v-240c0 -70 15 -126 95 -126c104 0 165 91 165 191v237h97v-401c0 -15 8 -22 22 -22h41v-83h-93c-44 0 -64 20 -64 56v19c0 16 1 29 1 29h-2s-47 -116 -186 -116c-67 0 -91 31 -91 31h-2s7 -49 7 -78v-141
h-86z" />
    <glyph glyph-name="paragraph" unicode="&#xb6;" horiz-adv-x="592" 
d="M272 -50v291c-129 0 -237 102 -237 233s108 232 237 232h271v-86h-196v-670h-75zM409 -50v613h75v-613h-75z" />
    <glyph glyph-name="periodcentered" unicode="&#xb7;" horiz-adv-x="217" 
d="M59 239v103h99v-103h-99z" />
    <glyph glyph-name="cedilla" unicode="&#xb8;" horiz-adv-x="416" 
d="M132 -88l28 111l49 -10v-8l-11 -55c40 -5 71 -30 71 -73c0 -62 -50 -84 -102 -84c-31 0 -55 7 -55 7v58s20 -7 43 -7c25 0 47 8 47 31c0 21 -22 31 -53 31c-8 0 -17 -1 -17 -1z" />
    <glyph glyph-name="onesuperior" unicode="&#xb9;" horiz-adv-x="376" 
d="M68 266v67h93v241c0 21 1 33 1 33h-2s-5 -10 -12 -17l-40 -38l-46 49l109 105h66v-373h92v-67h-261z" />
    <glyph glyph-name="ordmasculine" unicode="&#xba;" horiz-adv-x="466" 
d="M232 384c-94 0 -171 70 -171 168c0 95 77 165 171 165c95 0 172 -70 172 -165c0 -98 -77 -168 -172 -168zM232 449c55 0 99 42 99 103c0 59 -44 101 -99 101c-54 0 -98 -42 -98 -101c0 -61 44 -103 98 -103zM77 265v57h313v-57h-313z" />
    <glyph glyph-name="guillemotright" unicode="&#xbb;" horiz-adv-x="549" 
d="M247 77l164 205l-164 206h97l164 -206l-164 -205h-97zM45 77l164 205l-164 206h97l164 -206l-164 -205h-97z" />
    <glyph glyph-name="onequarter" unicode="&#xbc;" horiz-adv-x="874" 
d="M261 0l287 706h80l-287 -706h-80zM54 266v67h93v241c0 21 1 33 1 33h-2s-5 -10 -12 -17l-40 -38l-46 49l109 105h66v-373h89v-67h-258zM493 113v46l192 282h87v-261h66v-67h-66v-113h-76v113h-203zM575 179c0 0 13 1 20 1h102v137c0 18 1 36 1 36h-2s-6 -14 -15 -27
l-92 -129c-6 -8 -14 -16 -14 -16v-2z" />
    <glyph glyph-name="onehalf" unicode="&#xbd;" horiz-adv-x="866" 
d="M246 0l287 706h80l-286 -706h-81zM51 266v67h93v241c0 21 1 33 1 33h-2s-5 -10 -12 -17l-40 -38l-46 49l108 105h67v-373h89v-67h-258zM516 59c0 86 65 125 124 159c48 26 92 52 92 101c0 35 -26 60 -66 60c-34 0 -58 -17 -58 -35v-24h-71v43c0 61 83 86 130 86
c83 0 142 -52 142 -129c0 -87 -71 -125 -130 -158c-44 -25 -85 -49 -85 -88c0 -5 3 -7 9 -7h148c4 0 6 2 6 7v34h71v-61c0 -33 -14 -47 -46 -47h-218c-35 0 -48 12 -48 59z" />
    <glyph glyph-name="threequarters" unicode="&#xbe;" horiz-adv-x="877" 
d="M262 0l287 706h80l-286 -706h-81zM196 258c-94 0 -156 80 -156 80l52 49s44 -58 103 -58c42 0 77 30 77 72s-37 67 -81 67h-35l-12 44l84 106c10 12 22 23 22 23v2s-16 -2 -33 -2h-76c-7 0 -10 -3 -10 -10v-26h-70v53c0 36 10 48 47 48h233v-51l-105 -127
c59 -8 113 -58 113 -128c0 -85 -72 -142 -153 -142zM496 113v46l192 282h87v-261h66v-67h-66v-113h-76v113h-203zM578 179c0 0 13 1 20 1h102v137c0 18 1 36 1 36h-2s-6 -14 -15 -27l-91 -129c-6 -8 -15 -16 -15 -16v-2z" />
    <glyph glyph-name="questiondown" unicode="&#xbf;" horiz-adv-x="457" 
d="M214 409v97h100v-97h-100zM40 -28c0 165 177 182 177 303v37h94v-43c0 -152 -169 -175 -169 -289c0 -56 48 -100 114 -100c63 0 114 43 114 43l53 -69s-65 -64 -174 -64c-114 0 -209 71 -209 182z" />
    <glyph glyph-name="Agrave" unicode="&#xc0;" horiz-adv-x="665" 
d="M12 0v86h14c18 0 27 4 33 22l221 598h105l221 -598c6 -18 15 -22 33 -22h14v-86h-55c-50 0 -66 12 -83 58l-53 145h-259l-53 -145c-17 -46 -33 -58 -83 -58h-55zM227 287h211l-77 215c-12 37 -28 99 -28 99h-2s-15 -62 -27 -99zM293 755l-95 127h98l73 -127h-76z" />
    <glyph glyph-name="Aacute" unicode="&#xc1;" horiz-adv-x="665" 
d="M12 0v86h14c18 0 27 4 33 22l221 598h105l221 -598c6 -18 15 -22 33 -22h14v-86h-55c-50 0 -66 12 -83 58l-53 145h-259l-53 -145c-17 -46 -33 -58 -83 -58h-55zM227 287h211l-77 215c-12 37 -28 99 -28 99h-2s-15 -62 -27 -99zM293 755l73 127h98l-95 -127h-76z" />
    <glyph glyph-name="Acircumflex" unicode="&#xc2;" horiz-adv-x="665" 
d="M12 0v86h14c18 0 27 4 33 22l221 598h105l221 -598c6 -18 15 -22 33 -22h14v-86h-55c-50 0 -66 12 -83 58l-53 145h-259l-53 -145c-17 -46 -33 -58 -83 -58h-55zM227 287h211l-77 215c-12 37 -28 99 -28 99h-2s-15 -62 -27 -99zM201 755l87 127h89l88 -127h-79l-52 80h-2
l-53 -80h-78z" />
    <glyph glyph-name="Atilde" unicode="&#xc3;" horiz-adv-x="665" 
d="M12 0v86h14c18 0 27 4 33 22l221 598h105l221 -598c6 -18 15 -22 33 -22h14v-86h-55c-50 0 -66 12 -83 58l-53 145h-259l-53 -145c-17 -46 -33 -58 -83 -58h-55zM227 287h211l-77 215c-12 37 -28 99 -28 99h-2s-15 -62 -27 -99zM162 756c0 84 35 127 103 127
c69 0 84 -68 128 -68c30 0 41 36 41 65h65c0 -83 -35 -127 -103 -127s-84 68 -128 68c-30 0 -40 -35 -40 -65h-66z" />
    <glyph glyph-name="Adieresis" unicode="&#xc4;" horiz-adv-x="665" 
d="M12 0v86h14c18 0 27 4 33 22l221 598h105l221 -598c6 -18 15 -22 33 -22h14v-86h-55c-50 0 -66 12 -83 58l-53 145h-259l-53 -145c-17 -46 -33 -58 -83 -58h-55zM227 287h211l-77 215c-12 37 -28 99 -28 99h-2s-15 -62 -27 -99zM379 781v101h73v-101h-73zM214 781v101h74
v-101h-74z" />
    <glyph glyph-name="Aring" unicode="&#xc5;" horiz-adv-x="665" 
d="M12 0v86h14c18 0 27 4 33 22l221 598h105l221 -598c6 -18 15 -22 33 -22h14v-86h-55c-50 0 -66 12 -83 58l-53 145h-259l-53 -145c-17 -46 -33 -58 -83 -58h-55zM227 287h211l-77 215c-12 37 -28 99 -28 99h-2s-15 -62 -27 -99zM333 743c-43 0 -81 28 -81 74
c0 47 38 75 81 75c42 0 81 -28 81 -75c0 -46 -39 -74 -81 -74zM333 784c20 0 34 14 34 33c0 21 -14 35 -34 35s-34 -14 -34 -35c0 -19 14 -33 34 -33z" />
    <glyph glyph-name="AE" unicode="&#xc6;" horiz-adv-x="863" 
d="M10 0v86h11c18 0 27 4 34 22l237 598h448c45 0 64 -19 64 -64v-89h-91v45c0 15 -8 22 -22 22h-195v-221h242v-86h-242v-205c0 -17 9 -22 26 -22h196c14 0 22 8 22 22v45h92v-89c0 -45 -19 -64 -64 -64h-301c-51 0 -72 14 -72 64v249h-159l-95 -255
c-17 -46 -33 -58 -83 -58h-48zM269 399h126v221h-43z" />
    <glyph glyph-name="Ccedilla" unicode="&#xc7;" horiz-adv-x="698" 
d="M327 -88l20 78c-187 20 -312 175 -312 369c0 204 152 359 354 359c96 0 266 -40 266 -153v-69h-92v40c0 59 -100 89 -172 89c-141 0 -251 -107 -251 -266c0 -154 107 -277 252 -277c140 0 226 95 226 95l54 -71s-95 -113 -271 -118l-7 -38c40 -5 71 -30 71 -73
c0 -62 -51 -84 -102 -84c-31 0 -55 7 -55 7v58s20 -7 43 -7c24 0 47 8 47 31c0 21 -22 31 -53 31c-9 0 -18 -1 -18 -1z" />
    <glyph glyph-name="Egrave" unicode="&#xc8;" horiz-adv-x="571" 
d="M98 64v556h-65v86h416c45 0 64 -19 64 -64v-89h-92v45c0 15 -8 22 -22 22h-201v-221h248v-86h-248v-205c0 -14 8 -22 22 -22h207c14 0 22 8 22 22v45h91v-89c0 -45 -19 -64 -64 -64h-313c-45 0 -65 19 -65 64zM251 755l-95 127h98l73 -127h-76z" />
    <glyph glyph-name="Eacute" unicode="&#xc9;" horiz-adv-x="571" 
d="M251 755l73 127h98l-95 -127h-76zM98 64v556h-65v86h416c45 0 64 -19 64 -64v-89h-92v45c0 15 -8 22 -22 22h-201v-221h248v-86h-248v-205c0 -14 8 -22 22 -22h207c14 0 22 8 22 22v45h91v-89c0 -45 -19 -64 -64 -64h-313c-45 0 -65 19 -65 64z" />
    <glyph glyph-name="Ecircumflex" unicode="&#xca;" horiz-adv-x="571" 
d="M159 755l87 127h89l88 -127h-79l-52 80h-2l-53 -80h-78zM98 64v556h-65v86h416c45 0 64 -19 64 -64v-89h-92v45c0 15 -8 22 -22 22h-201v-221h248v-86h-248v-205c0 -14 8 -22 22 -22h207c14 0 22 8 22 22v45h91v-89c0 -45 -19 -64 -64 -64h-313c-45 0 -65 19 -65 64z" />
    <glyph glyph-name="Edieresis" unicode="&#xcb;" horiz-adv-x="571" 
d="M337 781v101h73v-101h-73zM172 781v101h74v-101h-74zM98 64v556h-65v86h416c45 0 64 -19 64 -64v-89h-92v45c0 15 -8 22 -22 22h-201v-221h248v-86h-248v-205c0 -14 8 -22 22 -22h207c14 0 22 8 22 22v45h91v-89c0 -45 -19 -64 -64 -64h-313c-45 0 -65 19 -65 64z" />
    <glyph glyph-name="Igrave" unicode="&#xcc;" horiz-adv-x="318" 
d="M42 0v86h69v534h-69v86h233v-86h-68v-534h68v-86h-233zM120 755l-95 127h98l73 -127h-76z" />
    <glyph glyph-name="Iacute" unicode="&#xcd;" horiz-adv-x="318" 
d="M42 0v86h69v534h-69v86h233v-86h-68v-534h68v-86h-233zM119 755l73 127h98l-95 -127h-76z" />
    <glyph glyph-name="Icircumflex" unicode="&#xce;" horiz-adv-x="318" 
d="M42 0v86h69v534h-69v86h233v-86h-68v-534h68v-86h-233zM27 755l87 127h89l88 -127h-79l-52 80h-2l-53 -80h-78z" />
    <glyph glyph-name="Idieresis" unicode="&#xcf;" horiz-adv-x="318" 
d="M42 0v86h69v534h-69v86h233v-86h-68v-534h68v-86h-233zM205 781v101h73v-101h-73zM40 781v101h74v-101h-74z" />
    <glyph glyph-name="Eth" unicode="&#xd0;" horiz-adv-x="716" 
d="M100 64v248h-48v82h48v226h-65v86h286c215 0 358 -129 358 -352c0 -224 -143 -354 -358 -354h-156c-45 0 -65 19 -65 64zM200 108c0 -14 8 -22 22 -22h92c158 0 261 94 261 268c0 173 -104 266 -261 266h-114v-226h144v-82h-144v-204z" />
    <glyph glyph-name="Ntilde" unicode="&#xd1;" horiz-adv-x="757" 
d="M34 0v86h43c14 0 22 8 22 22v598h91l314 -447c26 -38 59 -96 59 -96h2s-7 57 -7 96v383c0 45 19 64 65 64h100v-86h-43c-14 0 -22 -7 -22 -22v-598h-90l-315 447c-26 38 -58 96 -58 96h-2s6 -57 6 -96v-383c0 -45 -19 -64 -64 -64h-101zM218 756c0 84 35 127 103 127
c69 0 84 -68 128 -68c30 0 41 36 41 65h65c0 -83 -35 -127 -103 -127s-84 68 -128 68c-30 0 -40 -35 -40 -65h-66z" />
    <glyph glyph-name="Ograve" unicode="&#xd2;" horiz-adv-x="793" 
d="M34 358c0 203 158 360 362 360s363 -157 363 -360c0 -208 -159 -370 -363 -370s-362 162 -362 370zM138 358c0 -156 115 -276 258 -276s259 120 259 276c0 151 -116 267 -259 267s-258 -116 -258 -267zM354 755l-95 127h98l73 -127h-76z" />
    <glyph glyph-name="Oacute" unicode="&#xd3;" horiz-adv-x="793" 
d="M354 755l73 127h98l-95 -127h-76zM34 358c0 203 158 360 362 360s363 -157 363 -360c0 -208 -159 -370 -363 -370s-362 162 -362 370zM138 358c0 -156 115 -276 258 -276s259 120 259 276c0 151 -116 267 -259 267s-258 -116 -258 -267z" />
    <glyph glyph-name="Ocircumflex" unicode="&#xd4;" horiz-adv-x="793" 
d="M262 755l87 127h89l88 -127h-79l-52 80h-2l-53 -80h-78zM34 358c0 203 158 360 362 360s363 -157 363 -360c0 -208 -159 -370 -363 -370s-362 162 -362 370zM138 358c0 -156 115 -276 258 -276s259 120 259 276c0 151 -116 267 -259 267s-258 -116 -258 -267z" />
    <glyph glyph-name="Otilde" unicode="&#xd5;" horiz-adv-x="793" 
d="M34 358c0 203 158 360 362 360s363 -157 363 -360c0 -208 -159 -370 -363 -370s-362 162 -362 370zM138 358c0 -156 115 -276 258 -276s259 120 259 276c0 151 -116 267 -259 267s-258 -116 -258 -267zM223 756c0 84 35 127 103 127c69 0 84 -68 128 -68
c30 0 41 36 41 65h65c0 -83 -35 -127 -103 -127s-84 68 -128 68c-30 0 -40 -35 -40 -65h-66z" />
    <glyph glyph-name="Odieresis" unicode="&#xd6;" horiz-adv-x="793" 
d="M440 781v101h73v-101h-73zM275 781v101h74v-101h-74zM34 358c0 203 158 360 362 360s363 -157 363 -360c0 -208 -159 -370 -363 -370s-362 162 -362 370zM138 358c0 -156 115 -276 258 -276s259 120 259 276c0 151 -116 267 -259 267s-258 -116 -258 -267z" />
    <glyph glyph-name="multiply" unicode="&#xd7;" 
d="M29 55l206 230l-206 230l54 55l205 -228l205 228l55 -55l-208 -230l208 -230l-55 -55l-205 227l-205 -227z" />
    <glyph glyph-name="Oslash" unicode="&#xd8;" horiz-adv-x="793" 
d="M111 9l48 66c-77 68 -125 168 -125 283c0 203 158 360 362 360c69 0 134 -19 188 -51l47 65l49 -34l-47 -65c77 -66 126 -164 126 -275c0 -208 -159 -370 -363 -370c-69 0 -134 19 -188 53l-47 -66zM218 157l309 431c-38 23 -83 37 -131 37c-143 0 -258 -116 -258 -267
c0 -81 30 -151 80 -201zM264 119c39 -24 84 -37 132 -37c143 0 259 120 259 276c0 77 -32 145 -82 192z" />
    <glyph glyph-name="Ugrave" unicode="&#xd9;" horiz-adv-x="720" 
d="M91 247v351c0 15 -8 22 -22 22h-43v86h100c45 0 65 -19 65 -64v-391c0 -106 66 -169 169 -169c102 0 169 63 169 170v390c0 45 19 64 64 64h101v-86h-43c-14 0 -22 -7 -22 -22v-351c0 -154 -108 -259 -268 -259c-162 0 -270 105 -270 259zM315 755l-95 127h98l73 -127
h-76z" />
    <glyph glyph-name="Uacute" unicode="&#xda;" horiz-adv-x="720" 
d="M321 755l73 127h98l-95 -127h-76zM91 247v351c0 15 -8 22 -22 22h-43v86h100c45 0 65 -19 65 -64v-391c0 -106 66 -169 169 -169c102 0 169 63 169 170v390c0 45 19 64 64 64h101v-86h-43c-14 0 -22 -7 -22 -22v-351c0 -154 -108 -259 -268 -259
c-162 0 -270 105 -270 259z" />
    <glyph glyph-name="Ucircumflex" unicode="&#xdb;" horiz-adv-x="720" 
d="M229 755l87 127h89l88 -127h-79l-52 80h-2l-53 -80h-78zM91 247v351c0 15 -8 22 -22 22h-43v86h100c45 0 65 -19 65 -64v-391c0 -106 66 -169 169 -169c102 0 169 63 169 170v390c0 45 19 64 64 64h101v-86h-43c-14 0 -22 -7 -22 -22v-351c0 -154 -108 -259 -268 -259
c-162 0 -270 105 -270 259z" />
    <glyph glyph-name="Udieresis" unicode="&#xdc;" horiz-adv-x="720" 
d="M407 781v101h73v-101h-73zM242 781v101h74v-101h-74zM91 247v351c0 15 -8 22 -22 22h-43v86h100c45 0 65 -19 65 -64v-391c0 -106 66 -169 169 -169c102 0 169 63 169 170v390c0 45 19 64 64 64h101v-86h-43c-14 0 -22 -7 -22 -22v-351c0 -154 -108 -259 -268 -259
c-162 0 -270 105 -270 259z" />
    <glyph glyph-name="Yacute" unicode="&#xdd;" horiz-adv-x="606" 
d="M253 0v308l-179 287c-12 21 -22 25 -43 25h-20v86h46c48 0 67 -7 95 -54l107 -178c23 -39 43 -79 43 -79h2s20 40 43 79l106 178c28 47 48 54 95 54h47v-86h-20c-21 0 -31 -4 -44 -25l-178 -287v-308h-100zM264 755l73 127h98l-95 -127h-76z" />
    <glyph glyph-name="Thorn" unicode="&#xde;" horiz-adv-x="585" 
d="M99 0v598c0 15 -8 22 -22 22h-43v86h101c45 0 64 -19 64 -64v-56h146c129 0 221 -87 221 -221s-92 -224 -222 -224h-145v-141h-100zM199 227h130c83 0 134 53 134 138s-51 135 -133 135h-131v-273z" />
    <glyph glyph-name="germandbls" unicode="&#xdf;" horiz-adv-x="590" 
d="M25 0v83h37c14 0 22 7 22 22v425c0 123 108 188 216 188c111 0 191 -72 191 -161c0 -94 -101 -122 -101 -181c0 -67 179 -103 179 -236c0 -102 -82 -152 -171 -152c-97 0 -151 50 -151 50l27 75s50 -41 112 -41c44 0 85 20 85 72c0 85 -179 118 -179 229
c0 81 100 112 100 183c0 39 -32 78 -95 78c-58 0 -116 -36 -116 -111v-459c0 -45 -19 -64 -64 -64h-92z" />
    <glyph glyph-name="agrave" unicode="&#xe0;" horiz-adv-x="529" 
d="M28 138c0 170 221 177 306 177h22v7c0 87 -34 119 -112 119c-24 0 -83 -6 -83 -39v-29h-92v51c0 81 127 94 173 94c167 0 211 -85 211 -198v-215c0 -15 8 -22 22 -22h41v-83h-92c-45 0 -62 22 -62 58c0 18 1 30 1 30h-2c1 0 -43 -100 -163 -100c-88 0 -170 53 -170 150z
M125 147c0 -41 32 -82 95 -82c84 0 136 86 136 161v19h-26c-73 0 -205 -7 -205 -98zM217 580l-95 127h98l73 -127h-76z" />
    <glyph glyph-name="aacute" unicode="&#xe1;" horiz-adv-x="529" 
d="M28 138c0 170 221 177 306 177h22v7c0 87 -34 119 -112 119c-24 0 -83 -6 -83 -39v-29h-92v51c0 81 127 94 173 94c167 0 211 -85 211 -198v-215c0 -15 8 -22 22 -22h41v-83h-92c-45 0 -62 22 -62 58c0 18 1 30 1 30h-2c1 0 -43 -100 -163 -100c-88 0 -170 53 -170 150z
M125 147c0 -41 32 -82 95 -82c84 0 136 86 136 161v19h-26c-73 0 -205 -7 -205 -98zM217 580l73 127h98l-95 -127h-76z" />
    <glyph glyph-name="acircumflex" unicode="&#xe2;" horiz-adv-x="529" 
d="M28 138c0 170 221 177 306 177h22v7c0 87 -34 119 -112 119c-24 0 -83 -6 -83 -39v-29h-92v51c0 81 127 94 173 94c167 0 211 -85 211 -198v-215c0 -15 8 -22 22 -22h41v-83h-92c-45 0 -62 22 -62 58c0 18 1 30 1 30h-2c1 0 -43 -100 -163 -100c-88 0 -170 53 -170 150z
M125 147c0 -41 32 -82 95 -82c84 0 136 86 136 161v19h-26c-73 0 -205 -7 -205 -98zM125 580l87 127h89l88 -127h-79l-52 80h-2l-53 -80h-78z" />
    <glyph glyph-name="atilde" unicode="&#xe3;" horiz-adv-x="529" 
d="M28 138c0 170 221 177 306 177h22v7c0 87 -34 119 -112 119c-24 0 -83 -6 -83 -39v-29h-92v51c0 81 127 94 173 94c167 0 211 -85 211 -198v-215c0 -15 8 -22 22 -22h41v-83h-92c-45 0 -62 22 -62 58c0 18 1 30 1 30h-2c1 0 -43 -100 -163 -100c-88 0 -170 53 -170 150z
M125 147c0 -41 32 -82 95 -82c84 0 136 86 136 161v19h-26c-73 0 -205 -7 -205 -98zM87 581c0 84 35 127 103 127c69 0 84 -68 128 -68c30 0 41 36 41 65h65c0 -83 -35 -127 -103 -127s-84 68 -128 68c-30 0 -40 -35 -40 -65h-66z" />
    <glyph glyph-name="adieresis" unicode="&#xe4;" horiz-adv-x="529" 
d="M28 138c0 170 221 177 306 177h22v7c0 87 -34 119 -112 119c-24 0 -83 -6 -83 -39v-29h-92v51c0 81 127 94 173 94c167 0 211 -85 211 -198v-215c0 -15 8 -22 22 -22h41v-83h-92c-45 0 -62 22 -62 58c0 18 1 30 1 30h-2c1 0 -43 -100 -163 -100c-88 0 -170 53 -170 150z
M125 147c0 -41 32 -82 95 -82c84 0 136 86 136 161v19h-26c-73 0 -205 -7 -205 -98zM304 606v101h73v-101h-73zM139 606v101h74v-101h-74z" />
    <glyph glyph-name="aring" unicode="&#xe5;" horiz-adv-x="529" 
d="M28 138c0 170 221 177 306 177h22v7c0 87 -34 119 -112 119c-24 0 -83 -6 -83 -39v-29h-92v51c0 81 127 94 173 94c167 0 211 -85 211 -198v-215c0 -15 8 -22 22 -22h41v-83h-92c-45 0 -62 22 -62 58c0 18 1 30 1 30h-2c1 0 -43 -100 -163 -100c-88 0 -170 53 -170 150z
M125 147c0 -41 32 -82 95 -82c84 0 136 86 136 161v19h-26c-73 0 -205 -7 -205 -98zM257 568c-43 0 -81 28 -81 74c0 47 38 75 81 75c42 0 81 -28 81 -75c0 -46 -39 -74 -81 -74zM257 609c20 0 34 14 34 33c0 21 -14 35 -34 35s-34 -14 -34 -35c0 -19 14 -33 34 -33z" />
    <glyph glyph-name="ae" unicode="&#xe6;" horiz-adv-x="849" 
d="M29 141c0 161 194 172 298 172h29v11c0 88 -36 117 -112 117c-25 0 -83 -6 -83 -39v-29h-92v51c0 72 101 94 175 94c101 0 148 -35 172 -89h2c41 59 103 89 180 89c137 0 217 -105 217 -235c0 -15 -2 -41 -2 -41h-364c6 -114 78 -170 169 -170c87 0 148 60 148 60l41 -70
s-75 -74 -195 -74c-102 0 -177 48 -217 126h-2c-9 -25 -60 -125 -191 -125c-93 0 -173 54 -173 152zM453 313h263c-4 83 -58 127 -119 127c-75 0 -129 -45 -144 -127zM127 147c0 -42 32 -81 96 -81c83 0 134 86 134 162v14h-47c-77 0 -183 -10 -183 -95z" />
    <glyph glyph-name="ccedilla" unicode="&#xe7;" horiz-adv-x="532" 
d="M33 253c0 149 110 265 272 265c62 0 182 -25 182 -111v-52h-87v28c0 36 -58 52 -95 52c-98 0 -173 -74 -173 -181c0 -115 84 -180 179 -180s156 70 156 70l42 -69s-71 -86 -205 -87l-8 -38c41 -5 72 -30 72 -73c0 -62 -51 -84 -102 -84c-32 0 -55 7 -55 7v58s20 -7 42 -7
c25 0 48 8 48 31c0 21 -22 31 -53 31c-9 0 -18 -1 -18 -1l21 81c-130 21 -218 125 -218 260z" />
    <glyph glyph-name="egrave" unicode="&#xe8;" horiz-adv-x="539" 
d="M33 253c0 161 110 265 254 265c143 0 218 -107 218 -237c0 -14 -2 -33 -3 -41h-369c6 -109 84 -168 175 -168c77 0 132 47 149 59l41 -71c-24 -20 -100 -72 -196 -72c-159 0 -269 115 -269 265zM137 310h271c-3 87 -57 133 -123 133c-75 0 -134 -49 -148 -133zM254 559
l-95 127h98l73 -127h-76z" />
    <glyph glyph-name="eacute" unicode="&#xe9;" horiz-adv-x="539" 
d="M243 580l73 127h98l-95 -127h-76zM33 253c0 161 110 265 254 265c143 0 218 -107 218 -237c0 -14 -2 -33 -3 -41h-369c6 -109 84 -168 175 -168c77 0 132 47 149 59l41 -71c-24 -20 -100 -72 -196 -72c-159 0 -269 115 -269 265zM137 310h271c-3 87 -57 133 -123 133
c-75 0 -134 -49 -148 -133z" />
    <glyph glyph-name="ecircumflex" unicode="&#xea;" horiz-adv-x="539" 
d="M150 580l87 127h89l88 -127h-79l-52 80h-2l-53 -80h-78zM33 253c0 161 110 265 254 265c143 0 218 -107 218 -237c0 -14 -2 -33 -3 -41h-369c6 -109 84 -168 175 -168c77 0 132 47 149 59l41 -71c-24 -20 -100 -72 -196 -72c-159 0 -269 115 -269 265zM137 310h271
c-3 87 -57 133 -123 133c-75 0 -134 -49 -148 -133z" />
    <glyph glyph-name="edieresis" unicode="&#xeb;" horiz-adv-x="539" 
d="M328 606v101h73v-101h-73zM163 606v101h74v-101h-74zM33 253c0 161 110 265 254 265c143 0 218 -107 218 -237c0 -14 -2 -33 -3 -41h-369c6 -109 84 -168 175 -168c77 0 132 47 149 59l41 -71c-24 -20 -100 -72 -196 -72c-159 0 -269 115 -269 265zM137 310h271
c-3 87 -57 133 -123 133c-75 0 -134 -49 -148 -133z" />
    <glyph glyph-name="igrave" unicode="&#xec;" horiz-adv-x="265" 
d="M85 579l-95 127h98l73 -127h-76zM84 64v337c0 15 -8 22 -22 22h-41v83h95c46 0 65 -19 65 -64v-337c0 -15 8 -22 22 -22h41v-83h-96c-45 0 -64 19 -64 64z" />
    <glyph glyph-name="iacute" unicode="&#xed;" horiz-adv-x="265" 
d="M85 579l73 127h99l-96 -127h-76zM84 64v337c0 15 -8 22 -22 22h-41v83h95c46 0 65 -19 65 -64v-337c0 -15 8 -22 22 -22h41v-83h-96c-45 0 -64 19 -64 64z" />
    <glyph glyph-name="icircumflex" unicode="&#xee;" horiz-adv-x="265" 
d="M-7 579l87 127h89l88 -127h-79l-52 81h-2l-53 -81h-78zM84 64v337c0 15 -8 22 -22 22h-41v83h95c46 0 65 -19 65 -64v-337c0 -15 8 -22 22 -22h41v-83h-96c-45 0 -64 19 -64 64z" />
    <glyph glyph-name="idieresis" unicode="&#xef;" horiz-adv-x="265" 
d="M156 605v101h73v-101h-73zM16 605v101h74v-101h-74zM84 64v337c0 15 -8 22 -22 22h-41v83h95c46 0 65 -19 65 -64v-337c0 -15 8 -22 22 -22h41v-83h-96c-45 0 -64 19 -64 64z" />
    <glyph glyph-name="eth" unicode="&#xf0;" horiz-adv-x="562" 
d="M34 235c0 118 83 231 237 231c80 0 123 -42 123 -42h2c-21 56 -60 100 -109 133l-180 -80l-10 62l123 55c-40 20 -85 36 -129 46l27 79c71 -16 143 -42 207 -80l139 61l10 -61l-93 -42c84 -70 144 -176 144 -322c0 -135 -72 -287 -254 -287c-151 0 -237 122 -237 247z
M133 233c0 -82 48 -161 141 -161c108 0 152 100 152 186c0 75 -55 130 -141 130c-104 0 -152 -77 -152 -155z" />
    <glyph glyph-name="ntilde" unicode="&#xf1;" horiz-adv-x="623" 
d="M85 0v401c0 15 -8 22 -22 22h-41v83h93c44 0 64 -19 64 -56v-19c0 -16 -2 -29 -2 -29h2c20 44 80 116 191 116c119 0 173 -65 173 -194v-219c0 -15 8 -22 22 -22h41v-83h-96c-45 0 -64 19 -64 64v238c0 71 -14 127 -95 127c-77 0 -139 -51 -160 -124
c-7 -20 -9 -43 -9 -68v-237h-97zM152 581c0 84 35 127 103 127c69 0 84 -68 128 -68c30 0 41 36 41 65h65c0 -83 -35 -127 -103 -127s-84 68 -128 68c-30 0 -40 -35 -40 -65h-66z" />
    <glyph glyph-name="ograve" unicode="&#xf2;" horiz-adv-x="611" 
d="M33 254c0 153 121 264 272 264s273 -111 273 -264c0 -154 -122 -266 -273 -266s-272 112 -272 266zM131 254c0 -106 79 -182 174 -182c96 0 174 76 174 182c0 105 -78 180 -174 180c-95 0 -174 -75 -174 -180zM266 580l-95 127h98l73 -127h-76z" />
    <glyph glyph-name="oacute" unicode="&#xf3;" horiz-adv-x="611" 
d="M266 580l73 127h98l-95 -127h-76zM33 254c0 153 121 264 272 264s273 -111 273 -264c0 -154 -122 -266 -273 -266s-272 112 -272 266zM131 254c0 -106 79 -182 174 -182c96 0 174 76 174 182c0 105 -78 180 -174 180c-95 0 -174 -75 -174 -180z" />
    <glyph glyph-name="ocircumflex" unicode="&#xf4;" horiz-adv-x="611" 
d="M173 580l87 127h89l88 -127h-79l-52 80h-2l-53 -80h-78zM33 254c0 153 121 264 272 264s273 -111 273 -264c0 -154 -122 -266 -273 -266s-272 112 -272 266zM131 254c0 -106 79 -182 174 -182c96 0 174 76 174 182c0 105 -78 180 -174 180c-95 0 -174 -75 -174 -180z" />
    <glyph glyph-name="otilde" unicode="&#xf5;" horiz-adv-x="611" 
d="M33 254c0 153 121 264 272 264s273 -111 273 -264c0 -154 -122 -266 -273 -266s-272 112 -272 266zM131 254c0 -106 79 -182 174 -182c96 0 174 76 174 182c0 105 -78 180 -174 180c-95 0 -174 -75 -174 -180zM135 581c0 84 35 127 103 127c69 0 84 -68 128 -68
c30 0 41 36 41 65h65c0 -83 -35 -127 -103 -127s-84 68 -128 68c-30 0 -40 -35 -40 -65h-66z" />
    <glyph glyph-name="odieresis" unicode="&#xf6;" horiz-adv-x="611" 
d="M351 606v101h73v-101h-73zM186 606v101h74v-101h-74zM33 254c0 153 121 264 272 264s273 -111 273 -264c0 -154 -122 -266 -273 -266s-272 112 -272 266zM131 254c0 -106 79 -182 174 -182c96 0 174 76 174 182c0 105 -78 180 -174 180c-95 0 -174 -75 -174 -180z" />
    <glyph glyph-name="divide" unicode="&#xf7;" 
d="M240 435v91h95v-91h-95zM35 246v78h505v-78h-505zM240 44v91h95v-91h-95z" />
    <glyph glyph-name="oslash" unicode="&#xf8;" horiz-adv-x="611" 
d="M91 -3l38 52c-59 47 -96 120 -96 205c0 153 121 264 272 264c49 0 96 -12 135 -34l40 56l48 -34l-39 -54c54 -48 89 -117 89 -198c0 -154 -122 -266 -273 -266c-46 0 -89 10 -127 30l-39 -56zM183 124l206 288c-25 14 -53 22 -84 22c-95 0 -174 -75 -174 -180
c0 -53 20 -97 52 -130zM230 90c23 -12 48 -18 75 -18c96 0 174 76 174 182c0 48 -17 90 -46 120z" />
    <glyph glyph-name="ugrave" unicode="&#xf9;" horiz-adv-x="618" 
d="M80 182v219c0 15 -8 22 -22 22h-41v83h95c45 0 64 -19 64 -62v-240c0 -70 15 -126 95 -126c104 0 165 91 165 191v237h97v-401c0 -15 8 -22 22 -22h41v-83h-93c-44 0 -64 20 -64 56v19c0 16 1 29 1 29h-2c-21 -50 -87 -116 -186 -116c-114 0 -172 60 -172 194zM261 580
l-95 127h98l73 -127h-76z" />
    <glyph glyph-name="uacute" unicode="&#xfa;" horiz-adv-x="618" 
d="M261 580l73 127h98l-95 -127h-76zM80 182v219c0 15 -8 22 -22 22h-41v83h95c45 0 64 -19 64 -62v-240c0 -70 15 -126 95 -126c104 0 165 91 165 191v237h97v-401c0 -15 8 -22 22 -22h41v-83h-93c-44 0 -64 20 -64 56v19c0 16 1 29 1 29h-2c-21 -50 -87 -116 -186 -116
c-114 0 -172 60 -172 194z" />
    <glyph glyph-name="ucircumflex" unicode="&#xfb;" horiz-adv-x="618" 
d="M169 580l87 127h89l88 -127h-79l-52 80h-2l-53 -80h-78zM80 182v219c0 15 -8 22 -22 22h-41v83h95c45 0 64 -19 64 -62v-240c0 -70 15 -126 95 -126c104 0 165 91 165 191v237h97v-401c0 -15 8 -22 22 -22h41v-83h-93c-44 0 -64 20 -64 56v19c0 16 1 29 1 29h-2
c-21 -50 -87 -116 -186 -116c-114 0 -172 60 -172 194z" />
    <glyph glyph-name="udieresis" unicode="&#xfc;" horiz-adv-x="618" 
d="M347 606v101h73v-101h-73zM182 606v101h74v-101h-74zM80 182v219c0 15 -8 22 -22 22h-41v83h95c45 0 64 -19 64 -62v-240c0 -70 15 -126 95 -126c104 0 165 91 165 191v237h97v-401c0 -15 8 -22 22 -22h41v-83h-93c-44 0 -64 20 -64 56v19c0 16 1 29 1 29h-2
c-21 -50 -87 -116 -186 -116c-114 0 -172 60 -172 194z" />
    <glyph glyph-name="yacute" unicode="&#xfd;" horiz-adv-x="543" 
d="M42 -90c0 -1 31 -36 74 -36c39 0 70 28 89 73l23 55l-173 401c-7 16 -15 20 -31 20h-13v83h57c41 0 57 -11 73 -51l114 -285c10 -26 18 -61 18 -61h2s8 35 17 61l106 285c14 40 32 51 73 51h58v-83h-13c-16 0 -25 -4 -32 -20l-199 -494c-32 -78 -93 -119 -164 -119
c-75 0 -119 50 -119 50zM231 580l73 127h98l-95 -127h-76z" />
    <glyph glyph-name="thorn" unicode="&#xfe;" horiz-adv-x="584" 
d="M68 -200v801c0 15 -8 22 -22 22h-41v83h95c46 0 65 -19 65 -64v-163c0 -26 -2 -44 -2 -44h2c30 52 80 83 159 83c138 0 225 -110 225 -265c0 -154 -87 -265 -225 -265c-119 0 -159 81 -159 81h-2s2 -18 2 -44v-225h-97zM162 253c0 -133 70 -181 147 -181
c86 0 142 74 142 181s-56 181 -142 181c-79 0 -147 -48 -147 -181z" />
    <glyph glyph-name="ydieresis" unicode="&#xff;" horiz-adv-x="543" 
d="M42 -90c0 -1 31 -36 74 -36c39 0 70 28 89 73l23 55l-173 401c-7 16 -15 20 -31 20h-13v83h57c41 0 57 -11 73 -51l114 -285c10 -26 18 -61 18 -61h2s8 35 17 61l106 285c14 40 32 51 73 51h58v-83h-13c-16 0 -25 -4 -32 -20l-199 -494c-32 -78 -93 -119 -164 -119
c-75 0 -119 50 -119 50zM316 606v101h73v-101h-73zM151 606v101h74v-101h-74z" />
    <glyph glyph-name="Amacron" unicode="&#x100;" horiz-adv-x="665" 
d="M12 0v86h14c18 0 27 4 33 22l221 598h105l221 -598c6 -18 15 -22 33 -22h14v-86h-55c-50 0 -66 12 -83 58l-53 145h-259l-53 -145c-17 -46 -33 -58 -83 -58h-55zM227 287h211l-77 215c-12 37 -28 99 -28 99h-2s-15 -62 -27 -99zM206 784v68h254v-68h-254z" />
    <glyph glyph-name="amacron" unicode="&#x101;" horiz-adv-x="529" 
d="M28 138c0 170 221 177 306 177h22v7c0 87 -34 119 -112 119c-24 0 -83 -6 -83 -39v-29h-92v51c0 81 127 94 173 94c167 0 211 -85 211 -198v-215c0 -15 8 -22 22 -22h41v-83h-92c-45 0 -62 22 -62 58c0 18 1 30 1 30h-2c1 0 -43 -100 -163 -100c-88 0 -170 53 -170 150z
M125 147c0 -41 32 -82 95 -82c84 0 136 86 136 161v19h-26c-73 0 -205 -7 -205 -98zM130 609v68h254v-68h-254z" />
    <glyph glyph-name="Abreve" unicode="&#x102;" horiz-adv-x="665" 
d="M12 0v86h14c18 0 27 4 33 22l221 598h105l221 -598c6 -18 15 -22 33 -22h14v-86h-55c-50 0 -66 12 -83 58l-53 145h-259l-53 -145c-17 -46 -33 -58 -83 -58h-55zM227 287h211l-77 215c-12 37 -28 99 -28 99h-2s-15 -62 -27 -99zM332 751c-63 0 -128 40 -128 117v14h67
v-13c0 -42 30 -60 61 -60s62 18 62 61v12h66v-14c0 -77 -64 -117 -128 -117z" />
    <glyph glyph-name="abreve" unicode="&#x103;" horiz-adv-x="529" 
d="M28 138c0 170 221 177 306 177h22v7c0 87 -34 119 -112 119c-24 0 -83 -6 -83 -39v-29h-92v51c0 81 127 94 173 94c167 0 211 -85 211 -198v-215c0 -15 8 -22 22 -22h41v-83h-92c-45 0 -62 22 -62 58c0 18 1 30 1 30h-2c1 0 -43 -100 -163 -100c-88 0 -170 53 -170 150z
M125 147c0 -41 32 -82 95 -82c84 0 136 86 136 161v19h-26c-73 0 -205 -7 -205 -98zM256 576c-63 0 -128 40 -128 117v14h67v-13c0 -42 30 -60 61 -60s62 18 62 61v12h66v-14c0 -77 -64 -117 -128 -117z" />
    <glyph glyph-name="Aogonek" unicode="&#x104;" horiz-adv-x="665" 
d="M12 0v86h14c18 0 27 4 33 22l221 598h105l221 -598c6 -18 15 -22 33 -22h14v-86c-20 -17 -64 -54 -64 -89c0 -38 56 -43 56 -43l-23 -75s-116 9 -116 95c0 53 39 92 68 113v2c-33 4 -46 18 -59 55l-53 145h-259l-53 -145c-17 -46 -33 -58 -83 -58h-55zM227 287h211
l-77 215c-12 37 -28 99 -28 99h-2s-15 -62 -27 -99z" />
    <glyph glyph-name="aogonek" unicode="&#x105;" horiz-adv-x="529" 
d="M28 142c0 166 221 173 307 173h21v8c0 86 -34 118 -112 118c-25 0 -83 -6 -83 -39v-29h-92v51c0 81 126 94 175 94c165 0 209 -86 209 -198v-215c0 -15 8 -22 22 -22h41v-83c-21 -16 -65 -54 -65 -89c0 -38 56 -43 56 -43l-23 -75s-116 10 -116 95c0 51 37 88 66 110v2
h-18c-42 0 -55 29 -55 55v5c0 16 2 28 2 28h-2c-23 -49 -73 -100 -160 -100c-90 0 -173 54 -173 154zM127 147c0 -41 31 -81 95 -81c82 0 134 86 134 161v18h-25c-72 0 -204 -5 -204 -98z" />
    <glyph glyph-name="Cacute" unicode="&#x106;" horiz-adv-x="698" 
d="M346 755l73 127h98l-95 -127h-76zM35 359c0 204 152 359 354 359c95 0 265 -39 265 -153v-69h-92v40c0 59 -100 89 -171 89c-142 0 -252 -107 -252 -266c0 -154 111 -277 255 -277c140 0 223 96 223 96l54 -72s-100 -118 -278 -118c-211 0 -358 163 -358 371z" />
    <glyph glyph-name="cacute" unicode="&#x107;" horiz-adv-x="530" 
d="M249 580l73 127h98l-95 -127h-76zM33 253c0 149 109 265 272 265c61 0 182 -25 182 -111v-52h-88v28c0 36 -58 52 -94 52c-99 0 -174 -74 -174 -181c0 -115 84 -180 179 -180s157 70 157 70l41 -69s-71 -87 -205 -87c-159 0 -270 113 -270 265z" />
    <glyph glyph-name="Ccircumflex" unicode="&#x108;" horiz-adv-x="698" 
d="M253 755l87 127h89l88 -127h-79l-52 80h-2l-53 -80h-78zM35 359c0 204 152 359 354 359c95 0 265 -39 265 -153v-69h-92v40c0 59 -100 89 -171 89c-142 0 -252 -107 -252 -266c0 -154 111 -277 255 -277c140 0 223 96 223 96l54 -72s-100 -118 -278 -118
c-211 0 -358 163 -358 371z" />
    <glyph glyph-name="ccircumflex" unicode="&#x109;" horiz-adv-x="530" 
d="M156 580l87 127h89l88 -127h-79l-52 80h-2l-53 -80h-78zM33 253c0 149 109 265 272 265c61 0 182 -25 182 -111v-52h-88v28c0 36 -58 52 -94 52c-99 0 -174 -74 -174 -181c0 -115 84 -180 179 -180s157 70 157 70l41 -69s-71 -87 -205 -87c-159 0 -270 113 -270 265z" />
    <glyph glyph-name="Cdotaccent" unicode="&#x10a;" horiz-adv-x="698" 
d="M35 359c0 204 152 359 354 359c95 0 265 -39 265 -153v-69h-92v40c0 59 -100 89 -171 89c-142 0 -252 -107 -252 -266c0 -154 111 -277 255 -277c140 0 223 96 223 96l54 -72s-100 -118 -278 -118c-211 0 -358 163 -358 371zM341 781v101h87v-101h-87z" />
    <glyph glyph-name="cdotaccent" unicode="&#x10b;" horiz-adv-x="530" 
d="M33 253c0 149 109 265 272 265c61 0 182 -25 182 -111v-52h-88v28c0 36 -58 52 -94 52c-99 0 -174 -74 -174 -181c0 -115 84 -180 179 -180s157 70 157 70l41 -69s-71 -87 -205 -87c-159 0 -270 113 -270 265zM244 606v101h87v-101h-87z" />
    <glyph glyph-name="Ccaron" unicode="&#x10c;" horiz-adv-x="698" 
d="M341 755l-88 127h79l52 -81h2l52 81h80l-88 -127h-89zM35 359c0 204 152 359 354 359c95 0 265 -39 265 -153v-69h-92v40c0 59 -100 89 -171 89c-142 0 -252 -107 -252 -266c0 -154 111 -277 255 -277c140 0 223 96 223 96l54 -72s-100 -118 -278 -118
c-211 0 -358 163 -358 371z" />
    <glyph glyph-name="ccaron" unicode="&#x10d;" horiz-adv-x="530" 
d="M244 580l-88 127h79l52 -81h2l52 81h80l-88 -127h-89zM33 253c0 149 109 265 272 265c61 0 182 -25 182 -111v-52h-88v28c0 36 -58 52 -94 52c-99 0 -174 -74 -174 -181c0 -115 84 -180 179 -180s157 70 157 70l41 -69s-71 -87 -205 -87c-159 0 -270 113 -270 265z" />
    <glyph glyph-name="Dcaron" unicode="&#x10e;" horiz-adv-x="714" 
d="M293 755l-88 127h79l52 -81h2l52 81h80l-88 -127h-89zM98 64v556h-65v86h286c215 0 358 -129 358 -352c0 -224 -143 -354 -358 -354h-156c-45 0 -65 19 -65 64zM198 108c0 -14 8 -22 22 -22h92c158 0 261 94 261 268c0 173 -104 266 -261 266h-114v-512z" />
    <glyph glyph-name="dcaron" unicode="&#x10f;" horiz-adv-x="601" 
d="M571 706h79c4 -18 6 -34 6 -49c0 -31 -8 -58 -24 -92h-69c12 31 19 56 19 82c0 18 -3 37 -11 59zM35 253c0 161 95 265 228 265c117 0 156 -78 156 -78h2s-1 15 -1 34v127c0 15 -8 22 -22 22h-41v83h95c46 0 65 -19 65 -64v-537c0 -15 8 -22 22 -22h41v-83h-93
c-45 0 -62 20 -62 54c0 15 1 26 1 26h-2s-42 -92 -166 -92c-137 0 -223 108 -223 265zM133 253c0 -110 59 -181 144 -181c75 0 145 53 145 182c0 90 -46 180 -143 180c-79 0 -146 -66 -146 -181z" />
    <glyph glyph-name="Dcroat" unicode="&#x110;" horiz-adv-x="716" 
d="M100 64v248h-48v82h48v226h-65v86h286c215 0 358 -129 358 -352c0 -224 -143 -354 -358 -354h-156c-45 0 -65 19 -65 64zM200 108c0 -14 8 -22 22 -22h92c158 0 261 94 261 268c0 173 -104 266 -261 266h-114v-226h144v-82h-144v-204z" />
    <glyph glyph-name="dcroat" unicode="&#x111;" horiz-adv-x="601" 
d="M35 253c0 161 95 265 228 265c117 0 156 -78 156 -78h2s-1 15 -1 34v89h-129v63h129v80h97v-80h77v-63h-77v-458c0 -15 8 -22 22 -22h41v-83h-93c-45 0 -62 20 -62 54c0 15 1 26 1 26h-2s-42 -92 -166 -92c-137 0 -223 108 -223 265zM133 253c0 -110 59 -181 144 -181
c75 0 145 53 145 182c0 90 -46 180 -143 180c-79 0 -146 -66 -146 -181z" />
    <glyph glyph-name="Emacron" unicode="&#x112;" horiz-adv-x="571" 
d="M98 64v556h-65v86h416c45 0 64 -19 64 -64v-89h-92v45c0 15 -8 22 -22 22h-201v-221h248v-86h-248v-205c0 -14 8 -22 22 -22h207c14 0 22 8 22 22v45h91v-89c0 -45 -19 -64 -64 -64h-313c-45 0 -65 19 -65 64zM164 784v68h254v-68h-254z" />
    <glyph glyph-name="emacron" unicode="&#x113;" horiz-adv-x="539" 
d="M33 253c0 161 110 265 254 265c143 0 218 -107 218 -237c0 -14 -2 -33 -3 -41h-369c6 -109 84 -168 175 -168c77 0 132 47 149 59l41 -71c-24 -20 -100 -72 -196 -72c-159 0 -269 115 -269 265zM137 310h271c-3 87 -57 133 -123 133c-75 0 -134 -49 -148 -133zM155 609
v68h254v-68h-254z" />
    <glyph glyph-name="Ebreve" unicode="&#x114;" horiz-adv-x="571" 
d="M98 64v556h-65v86h416c45 0 64 -19 64 -64v-89h-92v45c0 15 -8 22 -22 22h-201v-221h248v-86h-248v-205c0 -14 8 -22 22 -22h207c14 0 22 8 22 22v45h91v-89c0 -45 -19 -64 -64 -64h-313c-45 0 -65 19 -65 64zM290 751c-63 0 -128 40 -128 117v14h67v-13
c0 -42 30 -60 61 -60s62 18 62 61v12h66v-14c0 -77 -64 -117 -128 -117z" />
    <glyph glyph-name="ebreve" unicode="&#x115;" horiz-adv-x="539" 
d="M33 253c0 161 110 265 254 265c143 0 218 -107 218 -237c0 -14 -2 -33 -3 -41h-369c6 -109 84 -168 175 -168c77 0 132 47 149 59l41 -71c-24 -20 -100 -72 -196 -72c-159 0 -269 115 -269 265zM137 310h271c-3 87 -57 133 -123 133c-75 0 -134 -49 -148 -133zM282 576
c-63 0 -128 40 -128 117v14h67v-13c0 -42 30 -60 61 -60s62 18 62 61v12h66v-14c0 -77 -64 -117 -128 -117z" />
    <glyph glyph-name="Edotaccent" unicode="&#x116;" horiz-adv-x="571" 
d="M98 64v556h-65v86h416c45 0 64 -19 64 -64v-89h-92v45c0 15 -8 22 -22 22h-201v-221h248v-86h-248v-205c0 -14 8 -22 22 -22h207c14 0 22 8 22 22v45h91v-89c0 -45 -19 -64 -64 -64h-313c-45 0 -65 19 -65 64zM247 781v101h87v-101h-87z" />
    <glyph glyph-name="edotaccent" unicode="&#x117;" horiz-adv-x="539" 
d="M33 253c0 161 110 265 254 265c143 0 218 -107 218 -237c0 -14 -2 -33 -3 -41h-369c6 -109 84 -168 175 -168c77 0 132 47 149 59l41 -71c-24 -20 -100 -72 -196 -72c-159 0 -269 115 -269 265zM137 310h271c-3 87 -57 133 -123 133c-75 0 -134 -49 -148 -133zM238 606
v101h87v-101h-87z" />
    <glyph glyph-name="Eogonek" unicode="&#x118;" horiz-adv-x="571" 
d="M98 64v556h-65v86h416c45 0 64 -19 64 -64v-89h-92v45c0 15 -8 22 -22 22h-201v-221h248v-86h-248v-205c0 -14 8 -22 22 -22h207c14 0 22 8 22 22v45h91v-89c0 -27 -7 -41 -22 -56c-30 -25 -75 -58 -75 -97c0 -38 55 -43 55 -43l-23 -75s-116 9 -116 95
c0 50 35 87 65 110v2h-261c-45 0 -65 19 -65 64z" />
    <glyph glyph-name="eogonek" unicode="&#x119;" horiz-adv-x="540" 
d="M33 253c0 161 110 265 254 265c143 0 218 -106 218 -237c0 -13 -2 -30 -3 -38h-369c6 -110 84 -171 175 -171c77 0 132 47 149 59l41 -71c-39 -38 -134 -83 -134 -149c0 -38 55 -43 55 -43l-23 -75s-116 9 -116 95c0 44 29 77 56 101v2c-11 -2 -21 -3 -34 -3
c-159 0 -269 115 -269 265zM137 307h271c-3 89 -57 135 -123 135c-75 0 -134 -50 -148 -135z" />
    <glyph glyph-name="Ecaron" unicode="&#x11a;" horiz-adv-x="571" 
d="M246 755l-88 127h79l52 -81h2l52 81h80l-88 -127h-89zM98 64v556h-65v86h416c45 0 64 -19 64 -64v-89h-92v45c0 15 -8 22 -22 22h-201v-221h248v-86h-248v-205c0 -14 8 -22 22 -22h207c14 0 22 8 22 22v45h91v-89c0 -45 -19 -64 -64 -64h-313c-45 0 -65 19 -65 64z" />
    <glyph glyph-name="ecaron" unicode="&#x11b;" horiz-adv-x="539" 
d="M238 580l-88 127h79l52 -81h2l52 81h80l-88 -127h-89zM33 253c0 161 110 265 254 265c143 0 218 -107 218 -237c0 -14 -2 -33 -3 -41h-369c6 -109 84 -168 175 -168c77 0 132 47 149 59l41 -71c-24 -20 -100 -72 -196 -72c-159 0 -269 115 -269 265zM137 310h271
c-3 87 -57 133 -123 133c-75 0 -134 -49 -148 -133z" />
    <glyph glyph-name="Gcircumflex" unicode="&#x11c;" horiz-adv-x="728" 
d="M256 755l87 127h89l88 -127h-79l-52 80h-2l-53 -80h-78zM35 356c0 203 153 362 356 362c168 0 252 -87 252 -87l-57 -73s-76 68 -193 68c-141 0 -254 -113 -254 -270c0 -164 112 -274 256 -274c126 0 201 88 201 88v71c0 14 -8 22 -22 22h-43v86h92c46 0 65 -19 65 -64
v-285h-88v44c0 15 1 30 1 30h-2s-79 -86 -220 -86c-189 0 -344 148 -344 368z" />
    <glyph glyph-name="gcircumflex" unicode="&#x11d;" horiz-adv-x="593" 
d="M166 580l87 127h89l88 -127h-79l-52 80h-2l-53 -80h-78zM114 -90c0 0 63 -34 138 -34c88 0 161 39 161 141v34c0 16 1 32 1 32h-2c-30 -49 -77 -77 -150 -77c-141 0 -227 113 -227 259c0 145 81 253 222 253c127 0 163 -79 163 -79h2s-1 8 -1 16c0 30 17 51 57 51h94v-83
h-41c-13 0 -22 -7 -22 -20v-382c0 -167 -126 -231 -255 -231c-60 0 -123 17 -172 42zM281 90c70 0 134 42 134 174s-64 170 -143 170c-88 0 -138 -64 -138 -167c0 -105 56 -177 147 -177z" />
    <glyph glyph-name="Gbreve" unicode="&#x11e;" horiz-adv-x="728" 
d="M35 356c0 203 153 362 356 362c168 0 252 -87 252 -87l-57 -73s-76 68 -193 68c-141 0 -254 -113 -254 -270c0 -164 112 -274 256 -274c126 0 201 88 201 88v71c0 14 -8 22 -22 22h-43v86h92c46 0 65 -19 65 -64v-285h-88v44c0 15 1 30 1 30h-2s-79 -86 -220 -86
c-189 0 -344 148 -344 368zM387 751c-63 0 -128 40 -128 117v14h67v-13c0 -42 30 -60 61 -60s62 18 62 61v12h66v-14c0 -77 -64 -117 -128 -117z" />
    <glyph glyph-name="gbreve" unicode="&#x11f;" horiz-adv-x="593" 
d="M114 -90c0 0 63 -34 138 -34c88 0 161 39 161 141v34c0 16 1 32 1 32h-2c-30 -49 -77 -77 -150 -77c-141 0 -227 113 -227 259c0 145 81 253 222 253c127 0 163 -79 163 -79h2s-1 8 -1 16c0 30 17 51 57 51h94v-83h-41c-13 0 -22 -7 -22 -20v-382
c0 -167 -126 -231 -255 -231c-60 0 -123 17 -172 42zM281 90c70 0 134 42 134 174s-64 170 -143 170c-88 0 -138 -64 -138 -167c0 -105 56 -177 147 -177zM297 576c-63 0 -128 40 -128 117v14h67v-13c0 -42 30 -60 61 -60s62 18 62 61v12h66v-14c0 -77 -64 -117 -128 -117z
" />
    <glyph glyph-name="Gdotaccent" unicode="&#x120;" horiz-adv-x="728" 
d="M35 356c0 203 153 362 356 362c168 0 252 -87 252 -87l-57 -73s-76 68 -193 68c-141 0 -254 -113 -254 -270c0 -164 112 -274 256 -274c126 0 201 88 201 88v71c0 14 -8 22 -22 22h-43v86h92c46 0 65 -19 65 -64v-285h-88v44c0 15 1 30 1 30h-2s-79 -86 -220 -86
c-189 0 -344 148 -344 368zM344 781v101h87v-101h-87z" />
    <glyph glyph-name="gdotaccent" unicode="&#x121;" horiz-adv-x="593" 
d="M114 -90c0 0 63 -34 138 -34c88 0 161 39 161 141v34c0 16 1 32 1 32h-2c-30 -49 -77 -77 -150 -77c-141 0 -227 113 -227 259c0 145 81 253 222 253c127 0 163 -79 163 -79h2s-1 8 -1 16c0 30 17 51 57 51h94v-83h-41c-13 0 -22 -7 -22 -20v-382
c0 -167 -126 -231 -255 -231c-60 0 -123 17 -172 42zM281 90c70 0 134 42 134 174s-64 170 -143 170c-88 0 -138 -64 -138 -167c0 -105 56 -177 147 -177zM254 606v101h87v-101h-87z" />
    <glyph glyph-name="Gcommaaccent" unicode="&#x122;" horiz-adv-x="728" 
d="M340 -59h79c4 -18 6 -34 6 -49c0 -31 -8 -58 -24 -92h-69c12 31 19 56 19 82c0 18 -3 37 -11 59zM35 356c0 203 153 362 356 362c168 0 252 -87 252 -87l-57 -73s-76 68 -193 68c-141 0 -254 -113 -254 -270c0 -164 112 -274 256 -274c126 0 201 88 201 88v71
c0 14 -8 22 -22 22h-43v86h92c46 0 65 -19 65 -64v-285h-88v44c0 15 1 30 1 30h-2s-79 -86 -220 -86c-189 0 -344 148 -344 368z" />
    <glyph glyph-name="gcommaaccent" unicode="&#x123;" horiz-adv-x="593" 
d="M324 565h-79c-4 18 -6 34 -6 49c0 31 8 58 24 92h69c-12 -31 -19 -56 -19 -82c0 -18 3 -37 11 -59zM114 -90c0 0 63 -34 138 -34c88 0 161 39 161 141v34c0 16 1 32 1 32h-2c-30 -49 -77 -77 -150 -77c-141 0 -227 113 -227 259c0 145 81 253 222 253
c127 0 163 -79 163 -79h2s-1 8 -1 16c0 30 17 51 57 51h94v-83h-41c-13 0 -22 -7 -22 -20v-382c0 -167 -126 -231 -255 -231c-60 0 -123 17 -172 42zM281 90c70 0 134 42 134 174s-64 170 -143 170c-88 0 -138 -64 -138 -167c0 -105 56 -177 147 -177z" />
    <glyph glyph-name="Hcircumflex" unicode="&#x124;" horiz-adv-x="757" 
d="M247 755l87 127h89l88 -127h-79l-52 80h-2l-53 -80h-78zM99 0v598c0 15 -8 22 -22 22h-43v86h101c45 0 64 -19 64 -64v-247h359v247c0 45 19 64 65 64h100v-86h-43c-14 0 -22 -7 -22 -22v-598h-100v310h-359v-310h-100z" />
    <glyph glyph-name="hcircumflex" unicode="&#x125;" horiz-adv-x="605" 
d="M-13 755l87 127h89l88 -127h-79l-52 80h-2l-53 -80h-78zM67 0v601c0 15 -8 22 -22 22h-41v83h95c45 0 65 -19 65 -62v-197c0 -24 -2 -42 -2 -42h2c22 49 86 113 187 113c119 0 174 -65 174 -194v-219c0 -15 8 -22 22 -22h41v-83h-96c-45 0 -64 19 -64 64v238
c0 71 -14 127 -95 127c-77 0 -140 -52 -161 -125c-6 -20 -8 -43 -8 -67v-237h-97z" />
    <glyph glyph-name="Hbar" unicode="&#x126;" horiz-adv-x="760" 
d="M100 0v514h-65v68h65v124h100v-124h360v124h100v-124h65v-68h-65v-514h-100v310h-360v-310h-100zM200 395h360v119h-360v-119z" />
    <glyph glyph-name="hbar" unicode="&#x127;" horiz-adv-x="605" 
d="M67 0v563h-76v63h76v80h97v-80h128v-63h-128v-116c0 -24 -2 -42 -2 -42h2c9 27 66 113 187 113c119 0 174 -65 174 -194v-219c0 -15 8 -22 22 -22h41v-83h-96c-45 0 -64 19 -64 64v238c0 69 -14 127 -95 127c-102 0 -169 -85 -169 -192v-237h-97z" />
    <glyph glyph-name="Itilde" unicode="&#x128;" horiz-adv-x="318" 
d="M42 0v86h69v534h-69v86h233v-86h-68v-534h68v-86h-233zM-11 756c0 84 35 127 103 127c69 0 84 -68 128 -68c30 0 41 36 41 65h65c0 -83 -35 -127 -103 -127s-84 68 -128 68c-30 0 -40 -35 -40 -65h-66z" />
    <glyph glyph-name="itilde" unicode="&#x129;" horiz-adv-x="265" 
d="M-23 581c0 83 27 127 92 127c57 0 74 -66 103 -66c27 0 34 33 34 63h64c0 -84 -27 -127 -92 -127c-57 0 -74 65 -103 65c-28 0 -34 -33 -34 -62h-64zM84 64v337c0 15 -8 22 -22 22h-41v83h95c46 0 65 -19 65 -64v-337c0 -15 8 -22 22 -22h41v-83h-96c-45 0 -64 19 -64 64
z" />
    <glyph glyph-name="Imacron" unicode="&#x12a;" horiz-adv-x="318" 
d="M42 0v86h69v534h-69v86h233v-86h-68v-534h68v-86h-233zM32 784v68h254v-68h-254z" />
    <glyph glyph-name="imacron" unicode="&#x12b;" horiz-adv-x="265" 
d="M10 609v68h231v-68h-231zM84 64v337c0 15 -8 22 -22 22h-41v83h95c46 0 65 -19 65 -64v-337c0 -15 8 -22 22 -22h41v-83h-96c-45 0 -64 19 -64 64z" />
    <glyph glyph-name="Ibreve" unicode="&#x12c;" horiz-adv-x="318" 
d="M42 0v86h69v534h-69v86h233v-86h-68v-534h68v-86h-233zM159 751c-63 0 -128 40 -128 117v14h67v-13c0 -42 30 -60 61 -60s62 18 62 61v12h66v-14c0 -77 -64 -117 -128 -117z" />
    <glyph glyph-name="ibreve" unicode="&#x12d;" horiz-adv-x="265" 
d="M125 575c-64 0 -129 40 -129 118v13h67v-12c0 -43 30 -61 62 -61c30 0 61 18 61 61v12h67v-13c0 -78 -65 -118 -128 -118zM84 64v337c0 15 -8 22 -22 22h-41v83h95c46 0 65 -19 65 -64v-337c0 -15 8 -22 22 -22h41v-83h-96c-45 0 -64 19 -64 64z" />
    <glyph glyph-name="Iogonek" unicode="&#x12e;" horiz-adv-x="318" 
d="M42 0v86h69v534h-69v86h233v-86h-68v-534h68v-86c-20 -17 -64 -54 -64 -89c0 -38 56 -43 56 -43l-23 -75s-116 9 -116 95c0 50 35 87 64 110v2h-150z" />
    <glyph glyph-name="iogonek" unicode="&#x12f;" horiz-adv-x="265" 
d="M86 605v101h87v-101h-87zM84 81v320c0 15 -8 22 -22 22h-41v83h95c46 0 65 -19 65 -64v-337c0 -15 8 -22 22 -22h41v-83c-21 -17 -64 -54 -64 -89c0 -38 55 -43 55 -43l-23 -75s-116 9 -116 95c0 50 36 88 65 110v2h-20c-43 0 -57 30 -57 81z" />
    <glyph glyph-name="Idotaccent" unicode="&#x130;" horiz-adv-x="318" 
d="M42 0v86h69v534h-69v86h233v-86h-68v-534h68v-86h-233zM114 781v101h87v-101h-87z" />
    <glyph glyph-name="dotlessi" unicode="&#x131;" horiz-adv-x="265" 
d="M84 64v337c0 15 -8 22 -22 22h-41v83h95c46 0 65 -19 65 -64v-337c0 -15 8 -22 22 -22h41v-83h-96c-45 0 -64 19 -64 64z" />
    <glyph glyph-name="IJ" unicode="&#x132;" horiz-adv-x="675" 
d="M364 -5v91c58 0 138 23 138 154v358c0 15 -8 22 -22 22h-112v86h170c45 0 64 -19 64 -64v-403c0 -204 -130 -244 -238 -244zM42 0v86h69v534h-69v86h233v-86h-68v-534h68v-86h-233z" />
    <glyph glyph-name="ij" unicode="&#x133;" horiz-adv-x="509" 
d="M86 605v101h87v-101h-87zM84 64v337c0 15 -8 22 -22 22h-41v83h95c46 0 65 -19 65 -64v-337c0 -15 8 -22 22 -22h41v-83h-96c-45 0 -64 19 -64 64zM350 605v101h87v-101h-87zM348 -11v412c0 15 -8 22 -22 22h-41v83h96c45 0 64 -19 64 -64v-459
c0 -169 -131 -189 -194 -189c-20 0 -34 2 -34 2v83s9 -1 22 -1c38 0 109 12 109 111z" />
    <glyph glyph-name="Jcircumflex" unicode="&#x134;" horiz-adv-x="511" 
d="M151 755l87 127h89l88 -127h-79l-52 80h-2l-53 -80h-78zM16 203v35h100v-27c0 -98 57 -129 112 -129s110 33 110 125v391c0 15 -8 22 -22 22h-173v86h230c46 0 65 -19 65 -64v-439c0 -153 -107 -215 -211 -215s-211 63 -211 215z" />
    <glyph glyph-name="jcircumflex" unicode="&#x135;" horiz-adv-x="243" 
d="M-27 579l88 127h88l88 -127h-79l-53 82l-53 -82h-79zM84 -12v416c0 17 -9 22 -25 22h-38v80h93c45 0 65 -13 65 -58v-465c0 -169 -129 -189 -192 -189c-20 0 -34 2 -34 2v81s9 -1 22 -1c38 0 109 13 109 112z" />
    <glyph glyph-name="Kcommaaccent" unicode="&#x136;" horiz-adv-x="612" 
d="M280 -59h79c4 -18 6 -34 6 -49c0 -31 -8 -58 -24 -92h-69c12 31 19 56 19 82c0 18 -3 37 -11 59zM99 0v598c0 15 -8 22 -22 22h-43v86h101c45 0 64 -19 64 -64v-233h67c26 0 46 4 58 24l157 273h112l-171 -293c-20 -35 -40 -46 -40 -46v-2s20 -5 40 -44l106 -212
c10 -21 26 -23 50 -23h19v-86h-55c-55 0 -76 7 -98 53l-122 245c-12 23 -34 26 -63 26h-60v-324h-100z" />
    <glyph glyph-name="kcommaaccent" unicode="&#x137;" horiz-adv-x="513" 
d="M224 -59h79c4 -18 6 -34 6 -49c0 -31 -8 -58 -24 -92h-69c12 31 19 56 19 82c0 18 -3 37 -11 59zM67 0v601c0 15 -8 22 -22 22h-41v83h95c45 0 65 -13 65 -58v-328h45c18 0 40 5 52 22l117 164h112l-138 -188c-23 -31 -38 -38 -38 -38v-2s17 -6 34 -38l75 -137
c9 -16 18 -20 44 -20h30v-83h-70c-46 0 -62 8 -83 47l-93 170c-10 19 -33 21 -50 21h-37v-238h-97z" />
    <glyph glyph-name="kgreenlandic" unicode="&#x138;" horiz-adv-x="529" 
d="M85 0v401c0 15 -8 22 -22 22h-41v83h96c45 0 64 -13 64 -58v-148h45c17 0 39 2 53 21l122 185h110l-143 -207c-22 -31 -36 -37 -36 -37v-2s15 -6 32 -39l65 -118c9 -16 19 -20 44 -20h35v-83h-74c-47 0 -62 8 -84 47l-82 150c-10 20 -33 20 -49 20h-38v-217h-97z" />
    <glyph glyph-name="Lacute" unicode="&#x139;" horiz-adv-x="541" 
d="M118 755l73 127h98l-95 -127h-76zM98 64v534c0 15 -8 22 -22 22h-43v86h101c45 0 64 -19 64 -64v-534c0 -14 8 -22 22 -22h196c14 0 22 8 22 22v45h91v-89c0 -45 -19 -64 -64 -64h-302c-45 0 -65 19 -65 64z" />
    <glyph glyph-name="lacute" unicode="&#x13a;" horiz-adv-x="249" 
d="M64 755l73 127h98l-95 -127h-76zM67 64v537c0 15 -8 22 -22 22h-40v83h95c45 0 64 -19 64 -64v-537c0 -15 8 -22 22 -22h41v-83h-95c-45 0 -65 19 -65 64z" />
    <glyph glyph-name="Lcommaaccent" unicode="&#x13b;" horiz-adv-x="541" 
d="M270 -59h79c4 -18 6 -34 6 -49c0 -31 -8 -58 -24 -92h-69c12 31 19 56 19 82c0 18 -3 37 -11 59zM98 64v534c0 15 -8 22 -22 22h-43v86h101c45 0 64 -19 64 -64v-534c0 -14 8 -22 22 -22h196c14 0 22 8 22 22v45h91v-89c0 -45 -19 -64 -64 -64h-302c-45 0 -65 19 -65 64z
" />
    <glyph glyph-name="lcommaaccent" unicode="&#x13c;" horiz-adv-x="249" 
d="M89 -59h79c4 -18 6 -34 6 -49c0 -31 -8 -58 -24 -92h-69c12 31 19 56 19 82c0 18 -3 37 -11 59zM67 64v537c0 15 -8 22 -22 22h-40v83h95c45 0 64 -19 64 -64v-537c0 -15 8 -22 22 -22h41v-83h-95c-45 0 -65 19 -65 64z" />
    <glyph glyph-name="Lcaron" unicode="&#x13d;" horiz-adv-x="542" 
d="M283 706h79c4 -18 6 -34 6 -49c0 -31 -8 -58 -24 -92h-69c12 31 19 56 19 82c0 18 -3 37 -11 59zM98 64v534c0 15 -8 22 -22 22h-43v86h101c45 0 64 -19 64 -64v-534c0 -14 8 -22 22 -22h196c14 0 22 8 22 22v45h91v-89c0 -45 -19 -64 -64 -64h-302c-45 0 -65 19 -65 64z
" />
    <glyph glyph-name="lcaron" unicode="&#x13e;" horiz-adv-x="249" 
d="M220 706h79c4 -18 6 -34 6 -49c0 -31 -8 -58 -24 -92h-69c12 31 19 56 19 82c0 18 -3 37 -11 59zM67 64v537c0 15 -8 22 -22 22h-40v83h95c45 0 64 -19 64 -64v-537c0 -15 8 -22 22 -22h41v-83h-95c-45 0 -65 19 -65 64z" />
    <glyph glyph-name="Ldot" unicode="&#x13f;" horiz-adv-x="542" 
d="M98 64v534c0 15 -8 22 -22 22h-43v86h101c45 0 64 -19 64 -64v-534c0 -14 8 -22 22 -22h196c14 0 22 8 22 22v45h91v-89c0 -45 -19 -64 -64 -64h-302c-45 0 -65 19 -65 64zM310 327v103h99v-103h-99z" />
    <glyph glyph-name="ldot" unicode="&#x140;" horiz-adv-x="340" 
d="M67 64v537c0 15 -8 22 -22 22h-40v83h95c45 0 64 -19 64 -64v-537c0 -15 8 -22 22 -22h41v-83h-95c-45 0 -65 19 -65 64zM235 327v103h99v-103h-99z" />
    <glyph glyph-name="Lslash" unicode="&#x141;" horiz-adv-x="544" 
d="M101 64v239l-63 -36v97l63 36v198c0 15 -8 22 -22 22h-43v86h101c45 0 64 -19 64 -64v-185l104 60v-97l-104 -60v-252c0 -14 8 -22 22 -22h195c14 0 22 8 22 22v45h92v-89c0 -45 -19 -64 -65 -64h-302c-45 0 -64 19 -64 64z" />
    <glyph glyph-name="lslash" unicode="&#x142;" horiz-adv-x="264" 
d="M79 64v257l-75 -43v97l75 44v182c0 15 -8 22 -22 22h-41v83h96c45 0 64 -19 64 -64v-168l78 45v-97l-78 -46v-271c0 -15 8 -22 22 -22h41v-83h-96c-45 0 -64 19 -64 64z" />
    <glyph glyph-name="Nacute" unicode="&#x143;" horiz-adv-x="757" 
d="M349 755l73 127h98l-95 -127h-76zM34 0v86h43c14 0 22 8 22 22v598h91l314 -447c26 -38 59 -96 59 -96h2s-7 57 -7 96v383c0 45 19 64 65 64h100v-86h-43c-14 0 -22 -7 -22 -22v-598h-90l-315 447c-26 38 -58 96 -58 96h-2s6 -57 6 -96v-383c0 -45 -19 -64 -64 -64h-101z
" />
    <glyph glyph-name="nacute" unicode="&#x144;" horiz-adv-x="623" 
d="M283 580l73 127h98l-95 -127h-76zM85 0v401c0 15 -8 22 -22 22h-41v83h93c44 0 64 -19 64 -56v-19c0 -16 -2 -29 -2 -29h2c20 44 80 116 191 116c119 0 173 -65 173 -194v-219c0 -15 8 -22 22 -22h41v-83h-96c-45 0 -64 19 -64 64v238c0 71 -14 127 -95 127
c-77 0 -139 -51 -160 -124c-7 -20 -9 -43 -9 -68v-237h-97z" />
    <glyph glyph-name="Ncommaaccent" unicode="&#x145;" horiz-adv-x="757" 
d="M335 -59h79c4 -18 6 -34 6 -49c0 -31 -8 -58 -24 -92h-69c12 31 19 56 19 82c0 18 -3 37 -11 59zM34 0v86h43c14 0 22 8 22 22v598h91l314 -447c26 -38 59 -96 59 -96h2s-7 57 -7 96v383c0 45 19 64 65 64h100v-86h-43c-14 0 -22 -7 -22 -22v-598h-90l-315 447
c-26 38 -58 96 -58 96h-2s6 -57 6 -96v-383c0 -45 -19 -64 -64 -64h-101z" />
    <glyph glyph-name="ncommaaccent" unicode="&#x146;" horiz-adv-x="623" 
d="M284 -59h79c4 -18 6 -34 6 -49c0 -31 -8 -58 -24 -92h-69c12 31 19 56 19 82c0 18 -3 37 -11 59zM85 0v401c0 15 -8 22 -22 22h-41v83h93c44 0 64 -19 64 -56v-19c0 -16 -2 -29 -2 -29h2c20 44 80 116 191 116c119 0 173 -65 173 -194v-219c0 -15 8 -22 22 -22h41v-83
h-96c-45 0 -64 19 -64 64v238c0 71 -14 127 -95 127c-77 0 -139 -51 -160 -124c-7 -20 -9 -43 -9 -68v-237h-97z" />
    <glyph glyph-name="Ncaron" unicode="&#x147;" horiz-adv-x="757" 
d="M344 755l-88 127h79l52 -81h2l52 81h80l-88 -127h-89zM34 0v86h43c14 0 22 8 22 22v598h91l314 -447c26 -38 59 -96 59 -96h2s-7 57 -7 96v383c0 45 19 64 65 64h100v-86h-43c-14 0 -22 -7 -22 -22v-598h-90l-315 447c-26 38 -58 96 -58 96h-2s6 -57 6 -96v-383
c0 -45 -19 -64 -64 -64h-101z" />
    <glyph glyph-name="ncaron" unicode="&#x148;" horiz-adv-x="623" 
d="M278 580l-88 127h79l52 -81h2l52 81h80l-88 -127h-89zM85 0v401c0 15 -8 22 -22 22h-41v83h93c44 0 64 -19 64 -56v-19c0 -16 -2 -29 -2 -29h2c20 44 80 116 191 116c119 0 173 -65 173 -194v-219c0 -15 8 -22 22 -22h41v-83h-96c-45 0 -64 19 -64 64v238
c0 71 -14 127 -95 127c-77 0 -139 -51 -160 -124c-7 -20 -9 -43 -9 -68v-237h-97z" />
    <glyph glyph-name="napostrophe" unicode="&#x149;" horiz-adv-x="623" 
d="M-33 706h79c4 -18 6 -34 6 -49c0 -31 -8 -58 -24 -92h-69c12 31 19 56 19 82c0 18 -3 37 -11 59zM85 0v401c0 15 -8 22 -22 22h-41v83h93c44 0 64 -19 64 -56v-19c0 -16 -2 -29 -2 -29h2c20 44 80 116 191 116c119 0 173 -65 173 -194v-219c0 -15 8 -22 22 -22h41v-83
h-96c-45 0 -64 19 -64 64v238c0 71 -14 127 -95 127c-77 0 -139 -51 -160 -124c-7 -20 -9 -43 -9 -68v-237h-97z" />
    <glyph glyph-name="Eng" unicode="&#x14a;" horiz-adv-x="757" 
d="M34 0v86h43c14 0 22 8 22 22v598h91l314 -447c26 -38 59 -96 59 -96h2s-7 57 -7 96v383c0 45 19 64 65 64h100v-86h-43c-14 0 -22 -7 -22 -22v-571c0 -182 -124 -232 -232 -232v91c54 0 132 32 132 123v7l-305 431c-26 38 -58 96 -58 96h-2s6 -57 6 -96v-383
c0 -45 -19 -64 -64 -64h-101z" />
    <glyph glyph-name="eng" unicode="&#x14b;" horiz-adv-x="600" 
d="M85 0v401c0 15 -8 22 -22 22h-41v83h93c44 0 64 -19 64 -56v-19c0 -16 -2 -29 -2 -29h2c20 44 80 116 191 116c119 0 173 -65 173 -194v-344c0 -169 -131 -189 -194 -189c-20 0 -34 2 -34 2v83s9 -1 22 -1c38 0 109 12 109 112v315c0 71 -14 127 -95 127
c-77 0 -140 -52 -161 -125c-6 -20 -8 -43 -8 -67v-237h-97z" />
    <glyph glyph-name="Omacron" unicode="&#x14c;" horiz-adv-x="793" 
d="M267 784v68h254v-68h-254zM34 358c0 203 158 360 362 360s363 -157 363 -360c0 -208 -159 -370 -363 -370s-362 162 -362 370zM138 358c0 -156 115 -276 258 -276s259 120 259 276c0 151 -116 267 -259 267s-258 -116 -258 -267z" />
    <glyph glyph-name="omacron" unicode="&#x14d;" horiz-adv-x="611" 
d="M178 609v68h254v-68h-254zM33 254c0 153 121 264 272 264s273 -111 273 -264c0 -154 -122 -266 -273 -266s-272 112 -272 266zM131 254c0 -106 79 -182 174 -182c96 0 174 76 174 182c0 105 -78 180 -174 180c-95 0 -174 -75 -174 -180z" />
    <glyph glyph-name="Obreve" unicode="&#x14e;" horiz-adv-x="793" 
d="M34 358c0 203 158 360 362 360s363 -157 363 -360c0 -208 -159 -370 -363 -370s-362 162 -362 370zM138 358c0 -156 115 -276 258 -276s259 120 259 276c0 151 -116 267 -259 267s-258 -116 -258 -267zM393 751c-63 0 -128 40 -128 117v14h67v-13c0 -42 30 -60 61 -60
s62 18 62 61v12h66v-14c0 -77 -64 -117 -128 -117z" />
    <glyph glyph-name="obreve" unicode="&#x14f;" horiz-adv-x="611" 
d="M33 254c0 153 121 264 272 264s273 -111 273 -264c0 -154 -122 -266 -273 -266s-272 112 -272 266zM131 254c0 -106 79 -182 174 -182c96 0 174 76 174 182c0 105 -78 180 -174 180c-95 0 -174 -75 -174 -180zM305 576c-63 0 -128 40 -128 117v14h67v-13
c0 -42 30 -60 61 -60s62 18 62 61v12h66v-14c0 -77 -64 -117 -128 -117z" />
    <glyph glyph-name="Ohungarumlaut" unicode="&#x150;" horiz-adv-x="793" 
d="M428 755l72 127h99l-96 -127h-75zM275 755l69 127h84l-70 -127h-83zM34 358c0 203 158 360 362 360s363 -157 363 -360c0 -208 -159 -370 -363 -370s-362 162 -362 370zM138 358c0 -156 115 -276 258 -276s259 120 259 276c0 151 -116 267 -259 267s-258 -116 -258 -267z
" />
    <glyph glyph-name="ohungarumlaut" unicode="&#x151;" horiz-adv-x="611" 
d="M340 580l72 127h99l-96 -127h-75zM187 580l69 127h84l-70 -127h-83zM33 254c0 153 121 264 272 264s273 -111 273 -264c0 -154 -122 -266 -273 -266s-272 112 -272 266zM131 254c0 -106 79 -182 174 -182c96 0 174 76 174 182c0 105 -78 180 -174 180
c-95 0 -174 -75 -174 -180z" />
    <glyph glyph-name="OE" unicode="&#x152;" horiz-adv-x="938" 
d="M34 354c0 203 150 361 348 361c55 0 103 -9 143 -9h290c45 0 64 -19 64 -64v-89h-91v45c0 15 -8 22 -22 22h-195v-221h241v-86h-241v-227h222c14 0 22 8 22 22v45h92v-89c0 -45 -19 -64 -61 -64h-320c-40 0 -89 -9 -144 -9c-198 0 -348 159 -348 363zM139 354
c0 -154 98 -270 243 -270c35 0 67 3 89 8v522c-22 5 -54 8 -89 8c-145 0 -243 -115 -243 -268z" />
    <glyph glyph-name="oe" unicode="&#x153;" horiz-adv-x="988" 
d="M33 252c0 160 123 266 271 266c101 0 178 -47 222 -120h2c40 76 111 120 209 120c142 0 218 -107 218 -237c0 -14 -3 -41 -3 -41h-370c8 -112 86 -168 175 -168c87 0 148 60 148 60l42 -70s-76 -74 -195 -74c-107 0 -181 49 -222 123h-2c-44 -75 -121 -123 -224 -123
c-148 0 -271 104 -271 264zM587 311h268c-4 84 -55 130 -119 130c-75 0 -135 -46 -149 -130zM131 252c0 -109 79 -180 173 -180c95 0 175 71 175 183c0 109 -82 179 -175 179c-94 0 -173 -72 -173 -182z" />
    <glyph glyph-name="Racute" unicode="&#x154;" horiz-adv-x="622" 
d="M243 755l73 127h98l-95 -127h-76zM98 0v620h-65v86h309c123 0 211 -78 211 -207c0 -118 -78 -176 -128 -187v-2s18 -9 30 -32l85 -169c11 -21 27 -23 51 -23h13v-86h-49c-56 0 -76 7 -99 53l-96 190c-17 33 -31 38 -69 38h-93v-281h-100zM198 367h131
c76 0 121 49 121 128s-45 125 -120 125h-132v-253z" />
    <glyph glyph-name="racute" unicode="&#x155;" horiz-adv-x="376" 
d="M160 580l73 127h98l-95 -127h-76zM85 0v401c0 15 -8 22 -22 22h-41v83h93c43 0 64 -18 64 -59v-32c0 -20 -2 -35 -2 -35h2c24 74 82 132 160 132c13 0 26 -2 26 -2v-96s-13 3 -28 3c-63 0 -119 -44 -143 -119c-9 -29 -12 -60 -12 -91v-207h-97z" />
    <glyph glyph-name="Rcommaaccent" unicode="&#x156;" horiz-adv-x="622" 
d="M296 -59h79c4 -18 6 -34 6 -49c0 -31 -8 -58 -24 -92h-69c12 31 19 56 19 82c0 18 -3 37 -11 59zM98 0v620h-65v86h309c123 0 211 -78 211 -207c0 -118 -78 -176 -128 -187v-2s18 -9 30 -32l85 -169c11 -21 27 -23 51 -23h13v-86h-49c-56 0 -76 7 -99 53l-96 190
c-17 33 -31 38 -69 38h-93v-281h-100zM198 367h131c76 0 121 49 121 128s-45 125 -120 125h-132v-253z" />
    <glyph glyph-name="rcommaaccent" unicode="&#x157;" horiz-adv-x="376" 
d="M98 -59h79c4 -18 6 -34 6 -49c0 -31 -8 -58 -24 -92h-69c12 31 19 56 19 82c0 18 -3 37 -11 59zM85 0v401c0 15 -8 22 -22 22h-41v83h93c43 0 64 -18 64 -59v-32c0 -20 -2 -35 -2 -35h2c24 74 82 132 160 132c13 0 26 -2 26 -2v-96s-13 3 -28 3c-63 0 -119 -44 -143 -119
c-9 -29 -12 -60 -12 -91v-207h-97z" />
    <glyph glyph-name="Rcaron" unicode="&#x158;" horiz-adv-x="622" 
d="M238 755l-88 127h79l52 -81h2l52 81h80l-88 -127h-89zM98 0v620h-65v86h309c123 0 211 -78 211 -207c0 -118 -78 -176 -128 -187v-2s18 -9 30 -32l85 -169c11 -21 27 -23 51 -23h13v-86h-49c-56 0 -76 7 -99 53l-96 190c-17 33 -31 38 -69 38h-93v-281h-100zM198 367h131
c76 0 121 49 121 128s-45 125 -120 125h-132v-253z" />
    <glyph glyph-name="rcaron" unicode="&#x159;" horiz-adv-x="376" 
d="M155 580l-88 127h79l52 -81h2l52 81h80l-88 -127h-89zM85 0v401c0 15 -8 22 -22 22h-41v83h93c43 0 64 -18 64 -59v-32c0 -20 -2 -35 -2 -35h2c24 74 82 132 160 132c13 0 26 -2 26 -2v-96s-13 3 -28 3c-63 0 -119 -44 -143 -119c-9 -29 -12 -60 -12 -91v-207h-97z" />
    <glyph glyph-name="Sacute" unicode="&#x15a;" horiz-adv-x="525" 
d="M228 755l73 127h98l-95 -127h-76zM29 93l58 71s73 -85 178 -85c65 0 120 40 120 105c0 147 -340 124 -340 345c0 106 92 189 226 189c75 0 200 -34 200 -130v-58h-92v33c0 37 -52 64 -109 64c-75 0 -124 -42 -124 -95c0 -142 341 -109 341 -343
c0 -108 -84 -201 -224 -201c-151 0 -234 105 -234 105z" />
    <glyph glyph-name="sacute" unicode="&#x15b;" horiz-adv-x="449" 
d="M187 580l73 127h98l-95 -127h-76zM28 77l49 65s61 -75 154 -75c47 0 87 21 87 65c0 91 -275 81 -275 244c0 97 85 142 188 142c60 0 166 -21 166 -98v-48h-87v25c0 30 -46 43 -76 43c-57 0 -95 -20 -95 -60c0 -96 277 -75 277 -244c0 -90 -80 -148 -186 -148
c-135 0 -202 89 -202 89z" />
    <glyph glyph-name="Scircumflex" unicode="&#x15c;" horiz-adv-x="525" 
d="M136 755l87 127h89l88 -127h-79l-52 80h-2l-53 -80h-78zM29 93l58 71s73 -85 178 -85c65 0 120 40 120 105c0 147 -340 124 -340 345c0 106 92 189 226 189c75 0 200 -34 200 -130v-58h-92v33c0 37 -52 64 -109 64c-75 0 -124 -42 -124 -95c0 -142 341 -109 341 -343
c0 -108 -84 -201 -224 -201c-151 0 -234 105 -234 105z" />
    <glyph glyph-name="scircumflex" unicode="&#x15d;" horiz-adv-x="449" 
d="M95 580l87 127h89l88 -127h-79l-52 80h-2l-53 -80h-78zM28 77l49 65s61 -75 154 -75c47 0 87 21 87 65c0 91 -275 81 -275 244c0 97 85 142 188 142c60 0 166 -21 166 -98v-48h-87v25c0 30 -46 43 -76 43c-57 0 -95 -20 -95 -60c0 -96 277 -75 277 -244
c0 -90 -80 -148 -186 -148c-135 0 -202 89 -202 89z" />
    <glyph glyph-name="Scedilla" unicode="&#x15e;" horiz-adv-x="526" 
d="M30 93l58 71s72 -85 177 -85c66 0 121 40 121 105c0 147 -341 124 -341 345c0 106 93 189 226 189c75 0 201 -34 201 -130v-58h-92v33c0 37 -53 64 -109 64c-76 0 -124 -42 -124 -95c0 -142 341 -109 341 -343c0 -103 -77 -192 -204 -200l-8 -39c41 -5 72 -30 72 -73
c0 -62 -51 -84 -102 -84c-32 0 -55 7 -55 7v58s20 -7 42 -7c25 0 48 8 48 31c0 21 -22 31 -53 31c-9 0 -18 -1 -18 -1l20 78c-130 14 -200 103 -200 103z" />
    <glyph glyph-name="scedilla" unicode="&#x15f;" horiz-adv-x="450" 
d="M28 77l49 65s61 -75 154 -75c47 0 87 21 87 65c0 91 -275 81 -275 244c0 97 85 142 188 142c60 0 166 -21 166 -98v-48h-87v25c0 30 -46 43 -76 43c-57 0 -95 -20 -95 -60c0 -96 277 -75 277 -244c0 -87 -75 -143 -174 -148l-8 -38c40 -5 71 -30 71 -73
c0 -62 -50 -84 -102 -84c-31 0 -55 7 -55 7v58s20 -7 43 -7c25 0 47 8 47 31c0 21 -22 31 -53 31c-8 0 -17 -1 -17 -1l20 79c-108 15 -160 86 -160 86z" />
    <glyph glyph-name="Scaron" unicode="&#x160;" horiz-adv-x="525" 
d="M223 755l-88 127h79l52 -81h2l52 81h80l-88 -127h-89zM29 93l58 71s73 -85 178 -85c65 0 120 40 120 105c0 147 -340 124 -340 345c0 106 92 189 226 189c75 0 200 -34 200 -130v-58h-92v33c0 37 -52 64 -109 64c-75 0 -124 -42 -124 -95c0 -142 341 -109 341 -343
c0 -108 -84 -201 -224 -201c-151 0 -234 105 -234 105z" />
    <glyph glyph-name="scaron" unicode="&#x161;" horiz-adv-x="449" 
d="M182 580l-88 127h79l52 -81h2l52 81h80l-88 -127h-89zM28 77l49 65s61 -75 154 -75c47 0 87 21 87 65c0 91 -275 81 -275 244c0 97 85 142 188 142c60 0 166 -21 166 -98v-48h-87v25c0 30 -46 43 -76 43c-57 0 -95 -20 -95 -60c0 -96 277 -75 277 -244
c0 -90 -80 -148 -186 -148c-135 0 -202 89 -202 89z" />
    <glyph glyph-name="Tcommaaccent" unicode="&#x162;" horiz-adv-x="632" 
d="M266 0v620h-141c-15 0 -22 -7 -22 -22v-45h-90v93c0 45 15 60 60 60h486c45 0 60 -15 60 -60v-93h-89v45c0 15 -8 22 -22 22h-142v-620h-24l-10 -50c40 -5 71 -30 71 -73c0 -61 -50 -84 -101 -84c-32 0 -56 7 -56 7v58s20 -7 43 -7c25 0 47 8 47 31c0 21 -21 31 -52 31
c-9 0 -18 -1 -18 -1l22 88h-22z" />
    <glyph glyph-name="tcommaaccent" unicode="&#x163;" horiz-adv-x="328" 
d="M83 185v243h-66v78h68v139h95v-139h122v-78h-122v-232c0 -101 71 -114 108 -114c14 0 23 2 23 2v-86s-14 -2 -34 -2c-15 0 -33 1 -53 5l-10 -51c41 -5 72 -30 72 -73c0 -62 -51 -84 -102 -84c-32 0 -55 7 -55 7v58s20 -7 42 -7c25 0 48 8 48 31c0 21 -22 31 -53 31
c-9 0 -18 -1 -18 -1l27 104c-49 23 -92 70 -92 169z" />
    <glyph glyph-name="Tcaron" unicode="&#x164;" horiz-adv-x="632" 
d="M272 755l-88 127h79l52 -81h2l52 81h80l-88 -127h-89zM266 0v620h-141c-15 0 -22 -7 -22 -22v-45h-90v93c0 45 15 60 60 60h486c45 0 60 -15 60 -60v-93h-89v45c0 15 -8 22 -22 22h-142v-620h-100z" />
    <glyph glyph-name="tcaron" unicode="&#x165;" horiz-adv-x="328" 
d="M243 706h79c4 -18 6 -34 6 -49c0 -31 -8 -58 -24 -92h-69c12 31 19 56 19 82c0 18 -3 37 -11 59zM83 185v243h-66v78h68v139h95v-139h122v-78h-122v-232c0 -101 71 -114 108 -114c14 0 23 2 23 2v-86s-14 -2 -34 -2c-65 0 -194 20 -194 189z" />
    <glyph glyph-name="Tbar" unicode="&#x166;" horiz-adv-x="646" 
d="M272 0v310h-154v76h154v234h-141c-15 0 -22 -7 -22 -22v-45h-90v93c0 45 15 60 61 60h485c45 0 60 -15 60 -60v-93h-89v45c0 15 -7 22 -22 22h-142v-234h161v-76h-161v-310h-100z" />
    <glyph glyph-name="tbar" unicode="&#x167;" horiz-adv-x="331" 
d="M84 185v74h-66v68h66v101h-66v78h68v139h95v-139h121v-78h-121v-101h121v-68h-121v-66c0 -97 70 -111 107 -111c14 0 23 2 23 2v-86s-13 -2 -34 -2c-64 0 -193 20 -193 189z" />
    <glyph glyph-name="Utilde" unicode="&#x168;" horiz-adv-x="720" 
d="M91 247v351c0 15 -8 22 -22 22h-43v86h100c45 0 65 -19 65 -64v-391c0 -106 66 -169 169 -169c102 0 169 63 169 170v390c0 45 19 64 64 64h101v-86h-43c-14 0 -22 -7 -22 -22v-351c0 -154 -108 -259 -268 -259c-162 0 -270 105 -270 259zM190 756c0 84 35 127 103 127
c69 0 84 -68 128 -68c30 0 41 36 41 65h65c0 -83 -35 -127 -103 -127s-84 68 -128 68c-30 0 -40 -35 -40 -65h-66z" />
    <glyph glyph-name="utilde" unicode="&#x169;" horiz-adv-x="618" 
d="M80 182v219c0 15 -8 22 -22 22h-41v83h95c45 0 64 -19 64 -62v-240c0 -70 15 -126 95 -126c104 0 165 91 165 191v237h97v-401c0 -15 8 -22 22 -22h41v-83h-93c-44 0 -64 20 -64 56v19c0 16 1 29 1 29h-2c-21 -50 -87 -116 -186 -116c-114 0 -172 60 -172 194zM131 581
c0 84 35 127 103 127c69 0 84 -68 128 -68c30 0 41 36 41 65h65c0 -83 -35 -127 -103 -127s-84 68 -128 68c-30 0 -40 -35 -40 -65h-66z" />
    <glyph glyph-name="Umacron" unicode="&#x16a;" horiz-adv-x="720" 
d="M91 247v351c0 15 -8 22 -22 22h-43v86h100c45 0 65 -19 65 -64v-391c0 -106 66 -169 169 -169c102 0 169 63 169 170v390c0 45 19 64 64 64h101v-86h-43c-14 0 -22 -7 -22 -22v-351c0 -154 -108 -259 -268 -259c-162 0 -270 105 -270 259zM234 784v68h254v-68h-254z" />
    <glyph glyph-name="umacron" unicode="&#x16b;" horiz-adv-x="618" 
d="M80 182v219c0 15 -8 22 -22 22h-41v83h95c45 0 64 -19 64 -62v-240c0 -70 15 -126 95 -126c104 0 165 91 165 191v237h97v-401c0 -15 8 -22 22 -22h41v-83h-93c-44 0 -64 20 -64 56v19c0 16 1 29 1 29h-2c-21 -50 -87 -116 -186 -116c-114 0 -172 60 -172 194zM174 609
v68h254v-68h-254z" />
    <glyph glyph-name="Ubreve" unicode="&#x16c;" horiz-adv-x="720" 
d="M91 247v351c0 15 -8 22 -22 22h-43v86h100c45 0 65 -19 65 -64v-391c0 -106 66 -169 169 -169c102 0 169 63 169 170v390c0 45 19 64 64 64h101v-86h-43c-14 0 -22 -7 -22 -22v-351c0 -154 -108 -259 -268 -259c-162 0 -270 105 -270 259zM360 751
c-63 0 -128 40 -128 117v14h67v-13c0 -42 30 -60 61 -60s62 18 62 61v12h66v-14c0 -77 -64 -117 -128 -117z" />
    <glyph glyph-name="ubreve" unicode="&#x16d;" horiz-adv-x="618" 
d="M80 182v219c0 15 -8 22 -22 22h-41v83h95c45 0 64 -19 64 -62v-240c0 -70 15 -126 95 -126c104 0 165 91 165 191v237h97v-401c0 -15 8 -22 22 -22h41v-83h-93c-44 0 -64 20 -64 56v19c0 16 1 29 1 29h-2c-21 -50 -87 -116 -186 -116c-114 0 -172 60 -172 194zM300 576
c-63 0 -128 40 -128 117v14h67v-13c0 -42 30 -60 61 -60s62 18 62 61v12h66v-14c0 -77 -64 -117 -128 -117z" />
    <glyph glyph-name="Uring" unicode="&#x16e;" horiz-adv-x="720" 
d="M360 743c-43 0 -81 28 -81 74c0 47 38 75 81 75c42 0 81 -28 81 -75c0 -46 -39 -74 -81 -74zM360 784c20 0 34 14 34 33c0 21 -14 35 -34 35s-34 -14 -34 -35c0 -19 14 -33 34 -33zM91 247v351c0 15 -8 22 -22 22h-43v86h100c45 0 65 -19 65 -64v-391
c0 -106 66 -169 169 -169c102 0 169 63 169 170v390c0 45 19 64 64 64h101v-86h-43c-14 0 -22 -7 -22 -22v-351c0 -154 -108 -259 -268 -259c-162 0 -270 105 -270 259z" />
    <glyph glyph-name="uring" unicode="&#x16f;" horiz-adv-x="618" 
d="M301 568c-43 0 -81 28 -81 74c0 47 38 75 81 75c42 0 81 -28 81 -75c0 -46 -39 -74 -81 -74zM301 609c20 0 34 14 34 33c0 21 -14 35 -34 35s-34 -14 -34 -35c0 -19 14 -33 34 -33zM80 182v219c0 15 -8 22 -22 22h-41v83h95c45 0 64 -19 64 -62v-240
c0 -70 15 -126 95 -126c104 0 165 91 165 191v237h97v-401c0 -15 8 -22 22 -22h41v-83h-93c-44 0 -64 20 -64 56v19c0 16 1 29 1 29h-2c-21 -50 -87 -116 -186 -116c-114 0 -172 60 -172 194z" />
    <glyph glyph-name="Uhungarumlaut" unicode="&#x170;" horiz-adv-x="720" 
d="M91 247v351c0 15 -8 22 -22 22h-43v86h100c45 0 65 -19 65 -64v-391c0 -106 66 -169 169 -169c102 0 169 63 169 170v390c0 45 19 64 64 64h101v-86h-43c-14 0 -22 -7 -22 -22v-351c0 -154 -108 -259 -268 -259c-162 0 -270 105 -270 259zM395 755l72 127h99l-96 -127
h-75zM242 755l69 127h84l-70 -127h-83z" />
    <glyph glyph-name="uhungarumlaut" unicode="&#x171;" horiz-adv-x="618" 
d="M80 182v219c0 15 -8 22 -22 22h-41v83h95c45 0 64 -19 64 -62v-240c0 -70 15 -126 95 -126c104 0 165 91 165 191v237h97v-401c0 -15 8 -22 22 -22h41v-83h-93c-44 0 -64 20 -64 56v19c0 16 1 29 1 29h-2c-21 -50 -87 -116 -186 -116c-114 0 -172 60 -172 194zM335 580
l72 127h99l-96 -127h-75zM182 580l69 127h84l-70 -127h-83z" />
    <glyph glyph-name="Uogonek" unicode="&#x172;" horiz-adv-x="722" 
d="M91 247v351c0 15 -8 22 -22 22h-43v86h100c45 0 65 -19 65 -64v-391c0 -106 66 -169 169 -169c102 0 169 63 169 170v390c0 45 19 64 64 64h101v-86h-43c-14 0 -22 -7 -22 -22v-355c0 -121 -69 -189 -140 -230c-39 -22 -86 -61 -86 -102c0 -38 56 -43 56 -43l-23 -75
s-116 9 -116 95c0 42 25 78 52 100v2s-11 -1 -21 -1c-154 0 -260 107 -260 258z" />
    <glyph glyph-name="uogonek" unicode="&#x173;" horiz-adv-x="618" 
d="M80 182v219c0 15 -8 22 -22 22h-41v83h96c54 0 64 -25 64 -83v-219c0 -70 14 -126 94 -126c104 0 165 91 165 191v237h97v-401c0 -15 8 -22 22 -22h41v-83c-21 -17 -64 -54 -64 -89c0 -38 55 -43 55 -43l-23 -75s-116 9 -116 95c0 50 38 89 67 111v2h-19
c-36 0 -57 19 -57 55v19c0 15 2 29 2 29h-3s-47 -116 -185 -116c-115 0 -173 60 -173 194z" />
    <glyph glyph-name="Wcircumflex" unicode="&#x174;" horiz-adv-x="967" 
d="M357 755l87 127h89l88 -127h-79l-52 80h-2l-53 -80h-78zM220 0l-154 598c-5 18 -16 22 -35 22h-15v86h58c49 0 75 -10 86 -58l110 -454c9 -38 13 -75 13 -75h2s7 36 17 75l143 510h89l132 -510c10 -39 15 -75 15 -75h2s5 37 14 75l110 454c11 48 36 58 86 58h58v-86h-15
c-19 0 -30 -4 -35 -22l-154 -598h-117l-120 446c-12 46 -20 97 -20 97h-2s-9 -51 -22 -96l-129 -447h-117z" />
    <glyph glyph-name="wcircumflex" unicode="&#x175;" horiz-adv-x="845" 
d="M291 580l87 127h89l88 -127h-79l-52 80h-2l-53 -80h-78zM194 0l-133 403c-6 16 -16 20 -32 20h-14v83h61c45 0 63 -11 76 -54l89 -301c7 -26 12 -54 12 -54h2s6 28 14 54l109 353h90l109 -353c8 -26 13 -54 13 -54h2s5 28 13 54l89 301c13 43 30 54 75 54h61v-83h-14
c-16 0 -25 -4 -31 -20l-133 -403h-109l-105 325c-8 26 -14 55 -14 55h-2s-6 -29 -14 -55l-105 -325h-109z" />
    <glyph glyph-name="Ycircumflex" unicode="&#x176;" horiz-adv-x="606" 
d="M253 0v308l-179 287c-12 21 -22 25 -43 25h-20v86h46c48 0 67 -7 95 -54l107 -178c23 -39 43 -79 43 -79h2s20 40 43 79l106 178c28 47 48 54 95 54h47v-86h-20c-21 0 -31 -4 -44 -25l-178 -287v-308h-100zM171 755l87 127h89l88 -127h-79l-52 80h-2l-53 -80h-78z" />
    <glyph glyph-name="ycircumflex" unicode="&#x177;" horiz-adv-x="543" 
d="M42 -90c0 -1 31 -36 74 -36c39 0 70 28 89 73l23 55l-173 401c-7 16 -15 20 -31 20h-13v83h57c41 0 57 -11 73 -51l114 -285c10 -26 18 -61 18 -61h2s8 35 17 61l106 285c14 40 32 51 73 51h58v-83h-13c-16 0 -25 -4 -32 -20l-199 -494c-32 -78 -93 -119 -164 -119
c-75 0 -119 50 -119 50zM138 580l87 127h89l88 -127h-79l-52 80h-2l-53 -80h-78z" />
    <glyph glyph-name="Ydieresis" unicode="&#x178;" horiz-adv-x="606" 
d="M253 0v308l-179 287c-12 21 -22 25 -43 25h-20v86h46c48 0 67 -7 95 -54l107 -178c23 -39 43 -79 43 -79h2s20 40 43 79l106 178c28 47 48 54 95 54h47v-86h-20c-21 0 -31 -4 -44 -25l-178 -287v-308h-100zM350 781v101h73v-101h-73zM185 781v101h74v-101h-74z" />
    <glyph glyph-name="Zacute" unicode="&#x179;" horiz-adv-x="600" 
d="M270 755l73 127h98l-95 -127h-76zM32 0v66l348 490c27 39 53 65 53 65v2s-19 -3 -53 -3h-227c-14 0 -22 -7 -22 -22v-45h-91v89c0 45 19 64 64 64h452v-65l-348 -491c-28 -39 -53 -64 -53 -64v-2s19 2 53 2h249c14 0 22 8 22 22v45h91v-89c0 -45 -19 -64 -64 -64h-474z
" />
    <glyph glyph-name="zacute" unicode="&#x17a;" horiz-adv-x="515" 
d="M224 580l73 127h98l-95 -127h-76zM37 0v56l259 320c21 27 41 47 41 47v2s-15 -2 -48 -2h-139c-14 0 -22 -8 -22 -22v-34h-89v75c0 45 20 64 65 64h361v-56l-259 -321c-21 -26 -42 -46 -42 -46v-2s16 2 49 2h161c14 0 22 8 22 22v34h89v-75c0 -45 -19 -64 -64 -64h-384z
" />
    <glyph glyph-name="Zdotaccent" unicode="&#x17b;" horiz-adv-x="600" 
d="M32 0v66l348 490c27 39 53 65 53 65v2s-19 -3 -53 -3h-227c-14 0 -22 -7 -22 -22v-45h-91v89c0 45 19 64 64 64h452v-65l-348 -491c-28 -39 -53 -64 -53 -64v-2s19 2 53 2h249c14 0 22 8 22 22v45h91v-89c0 -45 -19 -64 -64 -64h-474zM266 781v101h87v-101h-87z" />
    <glyph glyph-name="zdotaccent" unicode="&#x17c;" horiz-adv-x="515" 
d="M37 0v56l259 320c21 27 41 47 41 47v2s-15 -2 -48 -2h-139c-14 0 -22 -8 -22 -22v-34h-89v75c0 45 20 64 65 64h361v-56l-259 -321c-21 -26 -42 -46 -42 -46v-2s16 2 49 2h161c14 0 22 8 22 22v34h89v-75c0 -45 -19 -64 -64 -64h-384zM220 606v101h87v-101h-87z" />
    <glyph glyph-name="Zcaron" unicode="&#x17d;" horiz-adv-x="600" 
d="M265 755l-88 127h79l52 -81h2l52 81h80l-88 -127h-89zM32 0v66l348 490c27 39 53 65 53 65v2s-19 -3 -53 -3h-227c-14 0 -22 -7 -22 -22v-45h-91v89c0 45 19 64 64 64h452v-65l-348 -491c-28 -39 -53 -64 -53 -64v-2s19 2 53 2h249c14 0 22 8 22 22v45h91v-89
c0 -45 -19 -64 -64 -64h-474z" />
    <glyph glyph-name="zcaron" unicode="&#x17e;" horiz-adv-x="515" 
d="M219 580l-88 127h79l52 -81h2l52 81h80l-88 -127h-89zM37 0v56l259 320c21 27 41 47 41 47v2s-15 -2 -48 -2h-139c-14 0 -22 -8 -22 -22v-34h-89v75c0 45 20 64 65 64h361v-56l-259 -321c-21 -26 -42 -46 -42 -46v-2s16 2 49 2h161c14 0 22 8 22 22v34h89v-75
c0 -45 -19 -64 -64 -64h-384z" />
    <glyph glyph-name="longs" unicode="&#x17f;" horiz-adv-x="262" 
d="M85 0v428h-63v78h63v17c0 167 127 188 191 188c22 0 37 -3 37 -3v-83s-10 2 -25 2c-38 0 -106 -13 -106 -107v-520h-97z" />
    <glyph glyph-name="florin" unicode="&#x192;" 
d="M82 30c0 0 10 -2 24 -2c37 0 106 13 115 111l18 211h-75v78h83l8 95c15 167 142 188 207 188c22 0 37 -3 37 -3l-8 -83s-10 2 -25 2c-38 0 -106 -13 -115 -111l-8 -88h105v-78h-112l-19 -218c-15 -167 -142 -188 -206 -188c-22 0 -37 2 -37 2z" />
    <glyph glyph-name="Scommaaccent" unicode="&#x218;" horiz-adv-x="525" 
d="M222 -59h79c4 -18 6 -34 6 -49c0 -31 -8 -58 -24 -92h-69c12 31 19 56 19 82c0 18 -3 37 -11 59zM29 93l58 71s73 -85 178 -85c65 0 120 40 120 105c0 147 -340 124 -340 345c0 106 92 189 226 189c75 0 200 -34 200 -130v-58h-92v33c0 37 -52 64 -109 64
c-75 0 -124 -42 -124 -95c0 -142 341 -109 341 -343c0 -108 -84 -201 -224 -201c-151 0 -234 105 -234 105z" />
    <glyph glyph-name="scommaaccent" unicode="&#x219;" horiz-adv-x="449" 
d="M185 -59h79c4 -18 6 -34 6 -49c0 -31 -8 -58 -24 -92h-69c12 31 19 56 19 82c0 18 -3 37 -11 59zM28 77l49 65s61 -75 154 -75c47 0 87 21 87 65c0 91 -275 81 -275 244c0 97 85 142 188 142c60 0 166 -21 166 -98v-48h-87v25c0 30 -46 43 -76 43c-57 0 -95 -20 -95 -60
c0 -96 277 -75 277 -244c0 -90 -80 -148 -186 -148c-135 0 -202 89 -202 89z" />
    <glyph glyph-name="uni021A" unicode="&#x21a;" horiz-adv-x="632" 
d="M273 -59h79c4 -18 6 -34 6 -49c0 -31 -8 -58 -24 -92h-69c12 31 19 56 19 82c0 18 -3 37 -11 59zM266 0v620h-141c-15 0 -22 -7 -22 -22v-45h-90v93c0 45 15 60 60 60h486c45 0 60 -15 60 -60v-93h-89v45c0 15 -8 22 -22 22h-142v-620h-100z" />
    <glyph glyph-name="uni021B" unicode="&#x21b;" horiz-adv-x="328" 
d="M151 -59h79c4 -18 6 -34 6 -49c0 -31 -8 -58 -24 -92h-69c12 31 19 56 19 82c0 18 -3 37 -11 59zM83 185v243h-66v78h68v139h95v-139h122v-78h-122v-232c0 -101 71 -114 108 -114c14 0 23 2 23 2v-86s-14 -2 -34 -2c-65 0 -194 20 -194 189z" />
    <glyph glyph-name="circumflex" unicode="&#x2c6;" horiz-adv-x="485" 
d="M111 755l87 127h89l88 -127h-79l-52 80h-2l-53 -80h-78z" />
    <glyph glyph-name="caron" unicode="&#x2c7;" horiz-adv-x="488" 
d="M198 755l-88 127h79l52 -81h2l52 81h80l-88 -127h-89z" />
    <glyph glyph-name="breve" unicode="&#x2d8;" horiz-adv-x="501" 
d="M243 751c-63 0 -128 40 -128 117v14h67v-13c0 -42 30 -60 61 -60s62 18 62 61v12h66v-14c0 -77 -64 -117 -128 -117z" />
    <glyph glyph-name="dotaccent" unicode="&#x2d9;" horiz-adv-x="256" 
d="M84 781v101h87v-101h-87z" />
    <glyph glyph-name="ring" unicode="&#x2da;" horiz-adv-x="380" 
d="M190 743c-43 0 -81 28 -81 74c0 47 38 75 81 75c42 0 81 -28 81 -75c0 -46 -39 -74 -81 -74zM190 784c20 0 34 14 34 33c0 21 -14 35 -34 35s-34 -14 -34 -35c0 -19 14 -33 34 -33z" />
    <glyph glyph-name="ogonek" unicode="&#x2db;" horiz-adv-x="361" 
d="M108 -112c0 76 91 129 91 129l69 -7s-77 -54 -77 -99c0 -38 56 -43 56 -43l-23 -75s-116 9 -116 95z" />
    <glyph glyph-name="tilde" unicode="&#x2dc;" horiz-adv-x="519" 
d="M92 756c0 84 35 127 103 127c69 0 84 -68 128 -68c30 0 41 36 41 65h65c0 -83 -35 -127 -103 -127s-84 68 -128 68c-30 0 -40 -35 -40 -65h-66z" />
    <glyph glyph-name="hungarumlaut" unicode="&#x2dd;" horiz-adv-x="535" 
d="M252 755l72 127h99l-96 -127h-75zM99 755l69 127h84l-70 -127h-83z" />
    <glyph glyph-name="uni1E9E" unicode="&#x1e9e;" horiz-adv-x="638" 
d="M33 0v86h43c14 0 22 8 22 22v398c0 116 85 200 202 200h273v-67l-139 -203c-14 -21 -24 -33 -24 -33v-2l25 -1c99 -8 167 -99 167 -195c0 -114 -93 -205 -209 -205h-94v86h88c69 0 114 56 114 119s-45 117 -113 117h-88v69l113 169c29 45 45 61 45 61v2s-8 -3 -44 -3
h-110c-62 0 -106 -49 -106 -112v-444c0 -45 -20 -64 -65 -64h-100z" />
    <glyph glyph-name="endash" unicode="&#x2013;" horiz-adv-x="647" 
d="M60 246v78h527v-78h-527z" />
    <glyph glyph-name="emdash" unicode="&#x2014;" horiz-adv-x="847" 
d="M60 246v78h727v-78h-727z" />
    <glyph glyph-name="quoteleft" unicode="&#x2018;" horiz-adv-x="222" 
d="M48 522l66 195h69l-43 -195h-92z" />
    <glyph glyph-name="quoteright" unicode="&#x2019;" horiz-adv-x="217" 
d="M53 523l43 195h92l-65 -195h-70z" />
    <glyph glyph-name="quotesinglbase" unicode="&#x201a;" horiz-adv-x="238" 
d="M39 -90l43 195h92l-65 -195h-70z" />
    <glyph glyph-name="quotedblleft" unicode="&#x201c;" horiz-adv-x="360" 
d="M187 522l65 195h70l-43 -195h-92zM48 522l66 195h69l-43 -195h-92z" />
    <glyph glyph-name="quotedblright" unicode="&#x201d;" horiz-adv-x="355" 
d="M192 523l43 195h91l-65 -195h-69zM53 523l43 195h92l-65 -195h-70z" />
    <glyph glyph-name="quotedblbase" unicode="&#x201e;" horiz-adv-x="377" 
d="M178 -90l43 195h91l-65 -195h-69zM39 -90l43 195h92l-65 -195h-70z" />
    <glyph glyph-name="dagger" unicode="&#x2020;" horiz-adv-x="426" 
d="M165 -50v479h-121v77h121v200h93v-200h124v-77h-124v-479h-93z" />
    <glyph glyph-name="daggerdbl" unicode="&#x2021;" horiz-adv-x="435" 
d="M48 171v78h121v180h-121v77h121v200h93v-200h124v-77h-124v-180h124v-78h-124v-221h-93v221h-121z" />
    <glyph glyph-name="bullet" unicode="&#x2022;" horiz-adv-x="456" 
d="M228 136c-86 0 -155 69 -155 155s69 155 155 155c85 0 154 -69 154 -155s-69 -155 -154 -155z" />
    <glyph glyph-name="ellipsis" unicode="&#x2026;" horiz-adv-x="736" 
d="M578 0v103h99v-103h-99zM318 0v103h100v-103h-100zM59 0v103h99v-103h-99z" />
    <glyph glyph-name="perthousand" unicode="&#x2030;" horiz-adv-x="1102" 
d="M199 422c-84 0 -151 66 -151 148c0 81 67 148 151 148s152 -67 152 -148c0 -82 -68 -148 -152 -148zM63 0l540 706h94l-540 -706h-94zM199 496c42 0 74 32 74 74c0 41 -32 75 -74 75s-74 -34 -74 -75c0 -42 32 -74 74 -74zM764 136c0 81 68 148 152 148s152 -67 152 -148
c0 -82 -68 -148 -152 -148s-152 66 -152 148zM410 136c0 81 67 148 151 148s152 -67 152 -148c0 -82 -68 -148 -152 -148s-151 66 -151 148zM842 136c0 -42 32 -74 74 -74c41 0 74 32 74 74c0 41 -33 75 -74 75c-42 0 -74 -34 -74 -75zM488 136c0 -42 32 -74 73 -74
c42 0 75 32 75 74c0 41 -33 75 -75 75c-41 0 -73 -34 -73 -75z" />
    <glyph glyph-name="guilsinglleft" unicode="&#x2039;" horiz-adv-x="348" 
d="M205 77l-164 205l164 206h97l-164 -206l164 -205h-97z" />
    <glyph glyph-name="guilsinglright" unicode="&#x203a;" horiz-adv-x="348" 
d="M45 77l164 205l-164 206h97l164 -206l-164 -205h-97z" />
    <glyph glyph-name="fraction" unicode="&#x2044;" horiz-adv-x="150" 
d="M-27 0h-81l287 706h80z" />
    <glyph glyph-name="Euro" unicode="&#x20ac;" 
d="M25 258v63h60s-2 18 -2 33s2 39 2 39h-60v64h71c41 152 174 261 339 261c53 0 95 -12 95 -12l-23 -91s-35 11 -74 11c-112 0 -199 -67 -232 -169h277l-13 -64h-278s-3 -17 -3 -37c0 -12 3 -35 3 -35h265l-13 -63h-235c31 -105 120 -176 232 -176c52 0 93 14 93 14l20 -91
s-49 -17 -114 -17c-171 0 -302 111 -340 270h-70z" />
    <glyph glyph-name="trademark" unicode="&#x2122;" horiz-adv-x="1002" 
d="M442 266v67h23c7 0 10 2 11 9l28 364h70l104 -230c8 -18 14 -42 14 -42h2s5 24 13 42l104 230h70l29 -364c0 -7 3 -9 10 -9h24v-67h-59c-36 0 -47 9 -49 45l-17 218c-1 15 1 30 1 30h-2l-95 -212h-61l-95 212h-2s2 -15 1 -30l-17 -218c-2 -36 -13 -45 -49 -45h-58z
M210 266v373h-76c-7 0 -9 -3 -9 -9v-30h-67v61c0 35 10 45 47 45h286c36 0 47 -10 47 -45v-61h-66v30c0 6 -2 9 -9 9h-77v-373h-76z" />
    <glyph glyph-name="minus" unicode="&#x2212;" 
d="M30 246v78h517v-78h-517z" />
    <glyph glyph-name="infinity" unicode="&#x221e;" horiz-adv-x="460" 
d="M231 167c-100 0 -182 82 -182 182c0 101 82 181 182 181s181 -80 181 -181c0 -100 -81 -182 -181 -182z" />
    <glyph glyph-name="approxequal" unicode="&#x2248;" 
d="M79 321l-41 59c35 36 90 73 151 73c94 0 127 -70 198 -70c41 0 83 26 110 55l41 -59c-34 -35 -90 -72 -151 -72c-94 0 -127 70 -198 70c-42 0 -83 -28 -110 -56zM79 133l-41 58c35 36 90 73 151 73c94 0 127 -70 198 -70c41 0 83 26 110 55l41 -59
c-34 -35 -90 -72 -151 -72c-94 0 -127 70 -198 70c-42 0 -83 -27 -110 -55z" />
    <glyph glyph-name="notequal" unicode="&#x2260;" 
d="M104 73l55 78h-110v78h163l79 111h-242v78h295l81 115l51 -35l-57 -80h107v-78h-159l-80 -111h239v-78h-291l-79 -112z" />
    <glyph glyph-name="lessequal" unicode="&#x2264;" 
d="M48 252v66l466 208v-89l-357 -151v-2l357 -151v-89zM49 -95h465v-78h-465v78z" />
    <glyph glyph-name="greaterequal" unicode="&#x2265;" 
d="M63 44v89l357 151v2l-357 151v89l466 -208v-66zM62 -95h465v-78h-465v78z" />
    <glyph glyph-name="commaaccent" unicode="&#xf6c3;" horiz-adv-x="335" 
d="M131 -59h79c4 -18 6 -34 6 -49c0 -31 -8 -58 -24 -92h-69c12 31 19 56 19 82c0 18 -3 37 -11 59z" />
    <glyph glyph-name="apple" unicode="&#xf8ff;" horiz-adv-x="1130" 
d="M42 128v278l126 71v151l265 142l134 -71l132 71l265 -142v-151l124 -71v-278l-124 -72v-152l-265 -141l-132 71l-134 -71l-265 141v152zM94 142l114 -64v-139l238 -126l121 66l118 -66l238 126v139l114 64v249l-114 66v136l-238 126l-118 -64l-121 64l-238 -126v-136
l-114 -66v-249zM143 154v225l99 58v123l215 114l110 -59l107 59l214 -114v-123l100 -58v-225l-100 -60v-121l-214 -114l-107 58l-110 -58l-215 114v121zM438 0h79v204h206v69h-206v165h151c20 0 24 -8 24 -26v-33h73v74c0 37 -13 53 -54 53h-331v-68h58v-438z" />
    <glyph glyph-name="zero.tnum" 
d="M288 -12c-188 0 -249 162 -249 366c0 203 61 364 249 364c189 0 250 -161 250 -364c0 -204 -61 -366 -250 -366zM288 79c116 0 149 121 149 275c0 153 -33 273 -149 273c-115 0 -148 -120 -148 -273c0 -154 33 -275 148 -275z" />
    <glyph glyph-name="one.tnum" 
d="M99 0v86h155v456c0 22 1 43 1 43h-2s-8 -15 -33 -40l-67 -65l-59 62l168 164h92v-620h153v-86h-408z" />
    <glyph glyph-name="two.tnum" 
d="M40 81c0 260 359 242 359 433c0 65 -48 112 -124 112c-63 0 -109 -32 -109 -67v-31h-92v60c0 92 123 130 205 130c129 0 222 -82 222 -203c0 -243 -358 -247 -358 -410c0 -14 8 -19 25 -19h251c14 0 22 8 22 22v45h92v-89c0 -45 -19 -64 -64 -64h-362
c-55 0 -67 24 -67 81z" />
    <glyph glyph-name="three.tnum" 
d="M44 87l54 75s71 -80 179 -80c77 0 141 53 141 129c0 79 -71 126 -153 126h-49l-22 53l147 185c21 30 42 46 42 46v2s-21 -3 -60 -3h-137c-14 0 -22 -7 -22 -22v-45h-91v89c0 45 15 64 60 64h372v-63l-185 -224c91 -10 200 -71 200 -207c0 -118 -96 -224 -243 -224
c-146 0 -233 99 -233 99z" />
    <glyph glyph-name="four.tnum" 
d="M13 187v64l319 455h114v-433h110v-86h-110v-187h-100v187h-333zM122 270c0 0 29 3 60 3h165v243c0 32 4 72 4 72h-2s-17 -33 -35 -59l-156 -212c-18 -26 -36 -45 -36 -45v-2z" />
    <glyph glyph-name="five.tnum" 
d="M51 87l55 73s56 -78 164 -78c89 0 152 62 152 141c0 88 -76 144 -167 144c-79 0 -135 -36 -135 -36l-41 19l28 292c4 45 19 64 64 64h247c44 0 63 -19 63 -64v-89h-91v45c0 15 -8 22 -22 22h-148c-14 0 -20 -7 -22 -22l-14 -129c-2 -22 -5 -37 -5 -37h2s39 21 91 21
c153 0 252 -103 252 -232c0 -124 -100 -233 -254 -233c-146 0 -219 99 -219 99z" />
    <glyph glyph-name="six.tnum" 
d="M310 -12c-150 0 -264 128 -264 325c0 184 100 405 318 405c84 0 137 -29 137 -29l-32 -85s-44 23 -100 23c-130 0 -197 -121 -212 -242h2c28 43 94 69 156 69c133 0 222 -101 222 -230c0 -139 -95 -236 -227 -236zM151 271c0 -90 69 -192 159 -192c81 0 129 63 129 145
c0 85 -54 146 -145 146c-79 0 -143 -48 -143 -99z" />
    <glyph glyph-name="seven.tnum" 
d="M94 0l299 556c22 40 41 65 41 65v2s-16 -3 -51 -3h-213c-14 0 -22 -7 -22 -22v-45h-91v89c0 45 15 64 60 64h430v-68l-343 -638h-110z" />
    <glyph glyph-name="eight.tnum" 
d="M42 202c0 116 117 181 117 181v2s-87 46 -87 144s78 189 220 189c135 0 221 -81 221 -191c0 -104 -86 -168 -86 -168v-2c64 -37 106 -86 106 -162c0 -110 -101 -207 -245 -207c-132 0 -246 83 -246 214zM286 416c13 -6 42 -17 54 -17c24 0 75 59 75 122
c0 65 -51 106 -123 106c-77 0 -122 -44 -122 -100c0 -62 52 -86 116 -111zM143 207c0 -79 68 -128 145 -128c75 0 143 49 143 119c0 62 -52 89 -118 116c-27 11 -65 26 -73 26c-25 0 -97 -58 -97 -133z" />
    <glyph glyph-name="nine.tnum" 
d="M74 17l32 86s45 -24 101 -24c129 0 197 122 212 243h-2c-29 -44 -94 -69 -156 -69c-134 0 -223 100 -223 229c0 139 95 236 227 236c150 0 264 -128 264 -325c0 -184 -99 -405 -318 -405c-84 0 -137 29 -137 29zM281 336c79 0 143 48 143 99c0 91 -68 192 -158 192
c-82 0 -130 -63 -130 -145c0 -84 54 -146 145 -146z" />
    <glyph glyph-name="hyphen.case" horiz-adv-x="410" 
d="M59 305v86h292v-86h-292z" />
    <glyph glyph-name="parenleft.case" horiz-adv-x="271" 
d="M159 -65c-76 117 -118 270 -118 424c0 149 37 289 113 406h85c-74 -124 -110 -257 -110 -399c0 -148 39 -298 115 -431h-85z" />
    <glyph glyph-name="parenright.case" horiz-adv-x="271" 
d="M27 -65c76 133 115 283 115 431c0 142 -36 275 -110 399h85c76 -117 113 -257 113 -406c0 -154 -42 -307 -117 -424h-86z" />
    <glyph glyph-name="bracketleft.case" horiz-adv-x="282" 
d="M78 -1v702c0 45 19 64 64 64h102v-73h-59c-14 0 -22 -7 -22 -22v-639c0 -15 8 -22 22 -22h59v-74h-102c-45 0 -64 19 -64 64z" />
    <glyph glyph-name="bracketright.case" horiz-adv-x="282" 
d="M39 9h58c14 0 22 7 22 22v639c0 15 -8 22 -22 22h-58v73h101c45 0 65 -19 65 -64v-702c0 -45 -20 -64 -65 -64h-101v74z" />
    <glyph glyph-name="braceleft.case" horiz-adv-x="323" 
d="M110 107v96c0 102 -85 109 -85 109v86s85 7 85 111v84c0 158 114 174 162 174c14 0 23 -1 23 -1v-74h-14c-25 0 -86 -9 -86 -105v-103c0 -99 -81 -127 -81 -127v-2s81 -24 81 -127v-115c0 -96 61 -105 86 -105h14v-74s-9 -2 -23 -2c-48 0 -162 16 -162 175z" />
    <glyph glyph-name="braceright.case" horiz-adv-x="323" 
d="M28 8h14c25 0 86 9 86 105v115c0 103 81 127 81 127v2s-81 28 -81 127v103c0 96 -61 105 -86 105h-14v74s9 1 23 1c48 0 162 -16 162 -174v-84c0 -104 85 -111 85 -111v-86s-85 -7 -85 -109v-96c0 -159 -114 -175 -162 -175c-14 0 -23 2 -23 2v74z" />
    <glyph glyph-name="at.case" horiz-adv-x="782" 
d="M48 352c0 206 161 370 365 370c193 0 260 -98 260 -204v-283h72v-73h-273c-125 0 -207 89 -207 189c0 99 81 188 207 188h108c-2 57 -59 103 -162 103c-155 0 -273 -135 -273 -290c0 -158 114 -288 284 -288v-79c-224 0 -381 163 -381 367zM363 353
c0 -65 48 -118 116 -118h101v237h-99c-70 0 -118 -55 -118 -119z" />
    <glyph glyph-name="guillemotleft.case" horiz-adv-x="549" 
d="M406 137l-164 205l164 206h97l-164 -206l164 -205h-97zM204 137l-164 205l164 206h97l-164 -206l164 -205h-97z" />
    <glyph glyph-name="guillemotright.case" horiz-adv-x="549" 
d="M248 137l164 205l-164 206h97l164 -206l-164 -205h-97zM46 137l164 205l-164 206h97l164 -206l-164 -205h-97z" />
    <glyph glyph-name="guilsinglleft.case" horiz-adv-x="348" 
d="M204 137l-164 205l164 206h97l-164 -206l164 -205h-97z" />
    <glyph glyph-name="guilsinglright.case" horiz-adv-x="348" 
d="M46 137l164 205l-164 206h97l164 -206l-164 -205h-97z" />
    <glyph glyph-name="endash.case" horiz-adv-x="646" 
d="M60 306v78h526v-78h-526z" />
    <glyph glyph-name="emdash.case" horiz-adv-x="846" 
d="M60 306v78h726v-78h-726z" />
    <glyph glyph-name="periodcentered.case" horiz-adv-x="217" 
d="M59 294v103h99v-103h-99z" />
    <glyph glyph-name="questiondown.case" horiz-adv-x="464" 
d="M218 609v97h100v-97h-100zM44 170c0 165 177 182 177 303v39h94v-45c0 -152 -169 -175 -169 -289c0 -56 48 -100 114 -100c63 0 114 43 114 43l53 -69s-65 -64 -174 -64c-114 0 -209 71 -209 182z" />
    <glyph glyph-name="exclamdown.case" horiz-adv-x="268" 
d="M84 609v97h99v-97h-99zM84 0l7 512h87l6 -512h-100z" />
    <glyph glyph-name="bullet.case" horiz-adv-x="453" 
d="M227 198c-86 0 -155 70 -155 155c0 86 69 155 155 155c85 0 154 -69 154 -155c0 -85 -69 -155 -154 -155z" />
    <glyph glyph-name="uni00A0" unicode="&#xa0;" horiz-adv-x="269" 
 />
    <glyph glyph-name="uni00AD" unicode="&#xad;" horiz-adv-x="410" 
d="M59 242v86h292v-86h-292z" />
    <glyph glyph-name="cyrbreve" unicode="&#xf6d4;" horiz-adv-x="324" 
d="M167 739c-77 0 -148 46 -148 128v15h78v-14c0 -44 35 -66 70 -66s71 22 71 67v13h77v-15c0 -82 -70 -128 -148 -128z" />
    <glyph glyph-name="uni0410" unicode="&#x410;" horiz-adv-x="665" 
d="M12 0v86h14c18 0 27 4 33 22l221 598h105l221 -598c6 -18 15 -22 33 -22h14v-86h-55c-50 0 -66 12 -83 58l-53 145h-259l-53 -145c-17 -46 -33 -58 -83 -58h-55zM227 287h211l-77 215c-12 37 -28 99 -28 99h-2s-15 -62 -27 -99z" />
    <glyph glyph-name="uni0411" unicode="&#x411;" horiz-adv-x="594" 
d="M98 64v556h-65v86h413c45 0 64 -19 64 -64v-89h-91v45c0 15 -8 22 -22 22h-199v-204h131c119 0 237 -57 237 -205c0 -142 -107 -211 -237 -211h-166c-45 0 -65 19 -65 64zM198 106c0 -15 8 -22 22 -22h115c79 0 128 49 128 125s-49 123 -128 123h-137v-226z" />
    <glyph glyph-name="uni0412" unicode="&#x412;" horiz-adv-x="615" 
d="M98 64v556h-65v86h309c119 0 205 -66 205 -180c0 -77 -41 -129 -88 -152v-2c74 -22 116 -92 116 -171c0 -133 -103 -201 -227 -201h-185c-45 0 -65 19 -65 64zM197 409h146c63 0 103 45 103 107s-38 104 -104 104h-145v-211zM197 108c0 -14 8 -22 22 -22h135
c74 0 119 48 119 120s-47 121 -119 121h-157v-219z" />
    <glyph glyph-name="uni0413" unicode="&#x413;" horiz-adv-x="514" 
d="M98 0v620h-65v86h404c45 0 64 -19 64 -64v-89h-91v45c0 15 -8 22 -22 22h-190v-620h-100z" />
    <glyph glyph-name="uni0414" unicode="&#x414;" horiz-adv-x="722" 
d="M10 23c0 46 18 63 63 63h16c98 138 109 321 109 475v59h-64v86h415c45 0 64 -19 64 -64v-556h22c45 0 63 -17 63 -63v-163h-92v118c0 14 -7 22 -21 22h-462c-14 0 -21 -7 -21 -22v-118h-92v163zM193 86h321v512c0 15 -8 22 -22 22h-198v-65c0 -154 -17 -342 -101 -469z
" />
    <glyph glyph-name="uni0415" unicode="&#x415;" horiz-adv-x="571" 
d="M98 64v556h-65v86h416c45 0 64 -19 64 -64v-89h-92v45c0 15 -8 22 -22 22h-201v-221h248v-86h-248v-205c0 -14 8 -22 22 -22h207c14 0 22 8 22 22v45h91v-89c0 -45 -19 -64 -64 -64h-313c-45 0 -65 19 -65 64z" />
    <glyph glyph-name="uni0416" unicode="&#x416;" horiz-adv-x="884" 
d="M7 0l188 320c21 35 45 46 45 46v2s-19 7 -39 44l-102 185c-11 21 -26 23 -50 23h-20v86h50c55 0 72 -8 96 -53l119 -218c14 -25 33 -28 61 -28h39v299h96v-299h37c27 0 49 3 63 28l119 218c24 45 40 53 96 53h50v-86h-20c-24 0 -39 -2 -51 -23l-101 -185
c-20 -37 -39 -44 -39 -44v-2s24 -11 44 -46l189 -320h-110l-172 297c-15 25 -32 29 -57 29h-48v-326h-96v326h-48c-25 0 -42 -4 -57 -29l-172 -297h-110z" />
    <glyph glyph-name="uni0417" unicode="&#x417;" horiz-adv-x="529" 
d="M20 82l59 70c30 -33 93 -75 163 -75c79 0 146 46 146 126c0 75 -59 118 -131 118h-84v82h72c67 0 122 46 122 116c0 63 -39 110 -121 110c-62 0 -111 -30 -111 -67v-29h-92v55c0 95 123 130 211 130c140 0 214 -76 214 -184c0 -86 -51 -134 -102 -160v-2
c78 -22 125 -88 125 -173c0 -124 -100 -211 -247 -211c-104 0 -181 47 -224 94z" />
    <glyph glyph-name="uni0418" unicode="&#x418;" horiz-adv-x="763" 
d="M99 0v598c0 15 -8 22 -22 22h-43v86h101c45 0 64 -19 64 -64v-387c0 -40 -6 -101 -6 -101h2s38 64 63 102l308 450h98v-598c0 -14 8 -22 22 -22h43v-86h-100c-46 0 -65 19 -65 64v388c0 39 6 103 6 103h-2s-35 -65 -60 -103l-310 -452h-99z" />
    <glyph glyph-name="uni0419" unicode="&#x419;" horiz-adv-x="763" 
d="M378 739c-77 0 -148 46 -148 128v15h78v-14c0 -44 35 -66 70 -66s71 22 71 67v13h77v-15c0 -82 -70 -128 -148 -128zM99 0v598c0 15 -8 22 -22 22h-43v86h101c45 0 64 -19 64 -64v-387c0 -40 -6 -101 -6 -101h2s38 64 63 102l308 450h98v-598c0 -14 8 -22 22 -22h43v-86
h-100c-46 0 -65 19 -65 64v388c0 39 6 103 6 103h-2s-35 -65 -60 -103l-310 -452h-99z" />
    <glyph glyph-name="uni041A" unicode="&#x41a;" horiz-adv-x="612" 
d="M99 0v598c0 15 -8 22 -22 22h-43v86h101c45 0 64 -19 64 -64v-233h67c26 0 46 4 58 24l157 273h112l-171 -293c-20 -35 -40 -46 -40 -46v-2s20 -5 40 -44l106 -212c10 -21 26 -23 50 -23h19v-86h-55c-55 0 -76 7 -98 53l-122 245c-12 23 -34 26 -63 26h-60v-324h-100z
" />
    <glyph glyph-name="uni041B" unicode="&#x41b;" horiz-adv-x="683" 
d="M10 -5v91c119 16 161 169 161 456v78h-66v86h415c45 0 64 -19 64 -64v-534c0 -14 8 -22 22 -22h43v-86h-101c-45 0 -64 19 -64 64v534c0 15 -8 22 -22 22h-196v-79c0 -338 -61 -535 -256 -546z" />
    <glyph glyph-name="uni041C" unicode="&#x41c;" horiz-adv-x="862" 
d="M23 0v86h33c14 0 21 8 22 22l48 598h103l166 -373c17 -39 35 -90 35 -90h2s18 51 35 90l166 373h103l48 -598c1 -14 8 -22 22 -22h34v-86h-89c-46 0 -61 19 -65 64l-28 373c-4 42 -2 104 -2 104h-2s-21 -66 -38 -104l-143 -310h-84l-142 310c-17 37 -38 105 -38 105h-2
s1 -63 -2 -105l-29 -373c-3 -45 -19 -64 -64 -64h-89z" />
    <glyph glyph-name="uni041D" unicode="&#x41d;" horiz-adv-x="757" 
d="M99 0v598c0 15 -8 22 -22 22h-43v86h101c45 0 64 -19 64 -64v-247h359v247c0 45 19 64 65 64h100v-86h-43c-14 0 -22 -7 -22 -22v-598h-100v310h-359v-310h-100z" />
    <glyph glyph-name="uni041E" unicode="&#x41e;" horiz-adv-x="793" 
d="M34 358c0 203 158 360 362 360s363 -157 363 -360c0 -208 -159 -370 -363 -370s-362 162 -362 370zM138 358c0 -156 115 -276 258 -276s259 120 259 276c0 151 -116 267 -259 267s-258 -116 -258 -267z" />
    <glyph glyph-name="uni041F" unicode="&#x41f;" horiz-adv-x="745" 
d="M98 0v620h-65v86h549c45 0 64 -19 64 -64v-534c0 -14 8 -22 22 -22h43v-86h-100c-46 0 -65 19 -65 64v534c0 15 -8 22 -22 22h-326v-620h-100z" />
    <glyph glyph-name="uni0420" unicode="&#x420;" horiz-adv-x="585" 
d="M98 0v620h-65v86h311c130 0 222 -87 222 -221s-92 -224 -222 -224h-146v-261h-100zM198 347h130c84 0 135 53 135 138s-51 135 -134 135h-131v-273z" />
    <glyph glyph-name="uni0421" unicode="&#x421;" horiz-adv-x="698" 
d="M35 359c0 204 152 359 354 359c95 0 265 -39 265 -153v-69h-92v40c0 59 -100 89 -171 89c-142 0 -252 -107 -252 -266c0 -154 111 -277 255 -277c140 0 223 96 223 96l54 -72s-100 -118 -278 -118c-211 0 -358 163 -358 371z" />
    <glyph glyph-name="uni0422" unicode="&#x422;" horiz-adv-x="632" 
d="M266 0v620h-141c-15 0 -22 -7 -22 -22v-45h-90v93c0 45 15 60 60 60h486c45 0 60 -15 60 -60v-93h-89v45c0 15 -8 22 -22 22h-142v-620h-100z" />
    <glyph glyph-name="uni0423" unicode="&#x423;" horiz-adv-x="622" 
d="M82 36l46 74c20 -17 45 -31 74 -31c43 0 62 28 80 79l-219 440c-8 16 -16 22 -33 22h-20v86h61c47 0 61 -14 81 -58l143 -305c21 -44 37 -87 37 -87h2s12 38 30 87l111 305c17 47 33 58 83 58h54v-86h-16c-18 0 -27 -4 -34 -21l-192 -486c-25 -64 -69 -125 -156 -125
c-64 0 -118 34 -132 48z" />
    <glyph glyph-name="uni0424" unicode="&#x424;" horiz-adv-x="820" 
d="M31 376c0 176 128 293 329 293v81h100v-81c199 0 328 -117 328 -293c0 -179 -128 -297 -328 -297v-91h-100v91c-201 0 -329 118 -329 297zM460 164c140 0 225 80 225 212c0 129 -85 208 -225 208v-420zM134 376c0 -132 85 -212 226 -212v420c-141 0 -226 -79 -226 -208z
" />
    <glyph glyph-name="uni0425" unicode="&#x425;" horiz-adv-x="595" 
d="M12 0l222 364l-142 231c-14 23 -26 25 -47 25h-25v86h58c49 0 69 -9 95 -54l79 -134c22 -39 45 -83 45 -83h2s20 44 43 83l80 134c26 45 45 54 94 54h59v-86h-26c-20 0 -32 -2 -46 -25l-143 -231l223 -364h-113l-129 215c-22 39 -44 80 -44 80h-2s-21 -42 -43 -81
l-128 -214h-112z" />
    <glyph glyph-name="uni0426" unicode="&#x426;" horiz-adv-x="751" 
d="M98 64v534c0 15 -8 22 -22 22h-43v86h101c45 0 64 -19 64 -64v-534c0 -14 8 -22 22 -22h323v620h100v-620h19c45 0 63 -17 63 -63v-163h-90v118c0 14 -7 22 -20 22h-452c-45 0 -65 19 -65 64z" />
    <glyph glyph-name="uni0427" unicode="&#x427;" horiz-adv-x="651" 
d="M296 270c-148 0 -217 77 -217 206v122c0 15 -8 22 -22 22h-43v86h101c45 0 64 -19 64 -64v-144c0 -90 40 -137 140 -137c64 0 122 27 150 48v297h100v-706h-100v286c0 14 2 33 2 33h-2c-36 -20 -100 -49 -173 -49z" />
    <glyph glyph-name="uni0428" unicode="&#x428;" horiz-adv-x="1015" 
d="M98 64v534c0 15 -8 22 -22 22h-43v86h101c45 0 64 -19 64 -64v-534c0 -14 8 -22 22 -22h237v620h100v-620h238c14 0 22 8 22 22v534c0 45 19 64 64 64h101v-86h-43c-14 0 -22 -7 -22 -22v-534c0 -45 -19 -64 -65 -64h-689c-45 0 -65 19 -65 64z" />
    <glyph glyph-name="uni0429" unicode="&#x429;" horiz-adv-x="1029" 
d="M98 64v534c0 15 -8 22 -22 22h-43v86h101c45 0 64 -19 64 -64v-534c0 -14 8 -22 22 -22h237v620h100v-620h259v620h100v-620h28c45 0 63 -17 63 -63v-163h-90v118c0 14 -7 22 -20 22h-734c-45 0 -65 19 -65 64z" />
    <glyph glyph-name="uni042A" unicode="&#x42a;" horiz-adv-x="734" 
d="M245 64v556h-120c-14 0 -22 -7 -22 -22v-45h-89v93c0 45 15 60 60 60h336v-86h-65v-184h143c124 0 226 -66 226 -216c0 -148 -107 -220 -242 -220h-163c-45 0 -64 19 -64 64zM345 108c0 -14 8 -22 22 -22h111c81 0 133 48 133 133s-52 131 -133 131h-133v-242z" />
    <glyph glyph-name="uni042B" unicode="&#x42b;" horiz-adv-x="855" 
d="M656 64v642h100v-598c0 -14 8 -22 22 -22h43v-86h-101c-45 0 -64 19 -64 64zM98 64v534c0 15 -8 22 -22 22h-43v86h101c45 0 64 -19 64 -64v-202h135c124 0 225 -69 225 -215c0 -152 -105 -225 -241 -225h-154c-45 0 -65 19 -65 64zM198 108c0 -14 8 -22 22 -22h103
c81 0 132 50 132 136c0 85 -51 132 -132 132h-125v-246z" />
    <glyph glyph-name="uni042C" unicode="&#x42c;" horiz-adv-x="583" 
d="M98 64v534c0 15 -8 22 -22 22h-43v86h101c45 0 64 -19 64 -64v-202h139c124 0 225 -67 225 -215c0 -153 -106 -225 -241 -225h-158c-45 0 -65 19 -65 64zM198 108c0 -14 8 -22 22 -22h107c81 0 132 50 132 138c0 84 -51 130 -132 130h-129v-246z" />
    <glyph glyph-name="uni042D" unicode="&#x42d;" horiz-adv-x="695" 
d="M28 97l52 70c28 -32 117 -89 222 -89c137 0 239 99 252 233h-364v82h364c-9 137 -109 235 -247 235c-73 0 -176 -29 -176 -88v-40h-92v65c0 95 137 153 266 153c214 0 355 -155 355 -356c0 -205 -146 -374 -358 -374c-130 0 -235 67 -274 109z" />
    <glyph glyph-name="uni042E" unicode="&#x42e;" horiz-adv-x="1057" 
d="M99 0v598c0 15 -8 22 -22 22h-43v86h101c45 0 64 -19 64 -64v-247h120c15 185 163 323 349 323c200 0 355 -157 355 -360c0 -208 -155 -370 -355 -370c-183 0 -328 138 -347 322h-122v-310h-100zM418 358c0 -156 112 -276 250 -276c139 0 251 120 251 276
c0 151 -112 267 -251 267c-138 0 -250 -116 -250 -267z" />
    <glyph glyph-name="uni042F" unicode="&#x42f;" horiz-adv-x="623" 
d="M19 0v86h13c24 0 40 3 51 23l93 157c15 25 36 34 36 34v2c-18 1 -149 44 -149 192c0 132 97 212 229 212h298v-86h-65v-620h-100v271h-84c-38 0 -51 -6 -72 -42l-103 -175c-25 -45 -43 -54 -98 -54h-49zM303 357h122v263h-122c-83 0 -137 -48 -137 -130
c0 -83 59 -133 137 -133z" />
    <glyph glyph-name="uni0430" unicode="&#x430;" horiz-adv-x="529" 
d="M28 138c0 170 221 177 306 177h22v7c0 87 -34 119 -112 119c-24 0 -83 -6 -83 -39v-29h-92v51c0 81 127 94 173 94c167 0 211 -85 211 -198v-215c0 -15 8 -22 22 -22h41v-83h-92c-45 0 -62 22 -62 58c0 18 1 30 1 30h-2c1 0 -43 -100 -163 -100c-88 0 -170 53 -170 150z
M125 147c0 -41 32 -82 95 -82c84 0 136 86 136 161v19h-26c-73 0 -205 -7 -205 -98z" />
    <glyph glyph-name="uni0431" unicode="&#x431;" horiz-adv-x="569" 
d="M288 -12c-181 0 -243 142 -243 310c0 165 36 266 172 326l111 49c47 20 58 30 58 53v24h94v-44c0 -66 -36 -83 -104 -110l-119 -51c-86 -37 -117 -102 -119 -179h1c48 74 111 94 176 94c127 0 217 -90 217 -233c0 -146 -103 -239 -244 -239zM147 227
c0 -99 64 -156 143 -156c78 0 142 57 142 154c0 99 -64 154 -140 154c-85 0 -145 -64 -145 -152z" />
    <glyph glyph-name="uni0432" unicode="&#x432;" horiz-adv-x="519" 
d="M83 55v368h-63v83h272c102 0 168 -45 168 -130c0 -57 -30 -93 -71 -110v-2c63 -14 96 -65 96 -120c0 -94 -76 -144 -186 -144h-160c-40 0 -56 17 -56 55zM180 293h95c57 0 87 29 87 74c0 46 -31 71 -90 71h-92v-145zM180 89c0 -13 7 -20 19 -20h84c70 0 103 31 103 80
c0 50 -37 79 -103 79h-103v-139z" />
    <glyph glyph-name="uni0433" unicode="&#x433;" horiz-adv-x="439" 
d="M85 0v423h-63v83h335c46 0 65 -16 65 -62v-77h-81v34c0 14 -8 22 -22 22h-137v-423h-97z" />
    <glyph glyph-name="uni0434" unicode="&#x434;" horiz-adv-x="590" 
d="M10 18c0 43 17 63 61 63h8c81 94 84 245 84 319v23h-62v83h335c45 0 64 -19 64 -64v-361h16c44 0 61 -20 61 -63v-138h-89v98c0 14 -8 22 -21 22h-347c-13 0 -21 -8 -21 -22v-98h-89v138zM177 81h226v320c0 15 -8 22 -22 22h-126v-22c0 -70 -2 -224 -78 -320z" />
    <glyph glyph-name="uni0435" unicode="&#x435;" horiz-adv-x="539" 
d="M33 253c0 161 110 265 254 265c143 0 218 -106 218 -237c0 -12 -1 -25 -3 -38h-369c6 -110 84 -171 175 -171c54 0 109 24 149 59l41 -71c-49 -45 -126 -72 -196 -72c-159 0 -269 115 -269 265zM137 307h271c-3 89 -57 135 -123 135c-75 0 -134 -50 -148 -135z" />
    <glyph glyph-name="uni0436" unicode="&#x436;" horiz-adv-x="753" 
d="M16 0l121 208c25 42 58 49 58 49v2s-24 7 -40 40l-52 104c-8 17 -19 20 -45 20h-26v83h60c47 0 65 -6 85 -47l65 -131c14 -27 39 -30 58 -30h30v208h94v-208h29c19 0 44 3 58 30l65 131c20 41 38 47 85 47h60v-83h-26c-25 0 -36 -3 -45 -20l-52 -104
c-15 -33 -40 -40 -40 -40v-2s33 -7 58 -49l122 -208h-113l-100 176c-20 33 -44 40 -71 40h-30v-216h-94v216h-30c-28 0 -51 -7 -72 -40l-99 -176h-113z" />
    <glyph glyph-name="uni0437" unicode="&#x437;" horiz-adv-x="441" 
d="M23 62l46 64c14 -14 63 -59 134 -59c57 0 105 27 105 84c0 49 -35 76 -103 76h-64v67h51c62 0 99 26 99 77s-38 74 -88 74c-36 0 -82 -14 -82 -49v-23h-81v47c0 68 84 98 171 98c106 0 178 -47 178 -137c0 -63 -36 -100 -75 -114v-2c50 -13 91 -52 91 -120
c0 -103 -91 -157 -196 -157c-98 0 -156 46 -186 74z" />
    <glyph glyph-name="uni0438" unicode="&#x438;" horiz-adv-x="619" 
d="M84 0v401c0 15 -8 22 -21 22h-40v83h89c45 0 64 -18 64 -63v-241c0 -27 -3 -65 -4 -70h2c4 8 30 47 47 70l218 304h96v-401c0 -15 8 -22 21 -22h40v-83h-89c-45 0 -64 19 -64 64v240c0 25 3 63 4 71h-2c-4 -9 -30 -48 -47 -71l-218 -304h-96z" />
    <glyph glyph-name="uni0439" unicode="&#x439;" horiz-adv-x="619" 
d="M84 0v401c0 15 -8 22 -21 22h-40v83h89c45 0 64 -18 64 -63v-241c0 -27 -3 -65 -4 -70h2c4 8 30 47 47 70l218 304h96v-401c0 -15 8 -22 21 -22h40v-83h-89c-45 0 -64 19 -64 64v240c0 25 3 63 4 71h-2c-4 -9 -30 -48 -47 -71l-218 -304h-96zM308 564
c-77 0 -148 46 -148 128v15h78v-14c0 -44 35 -66 70 -66s71 22 71 67v13h77v-15c0 -82 -70 -128 -148 -128z" />
    <glyph glyph-name="uni043A" unicode="&#x43a;" horiz-adv-x="533" 
d="M85 0v401c0 15 -8 22 -22 22h-41v83h96c45 0 64 -19 64 -64v-135h42c21 0 41 5 53 23l121 176h109l-139 -201c-22 -32 -38 -38 -38 -38v-2s19 -7 38 -38l74 -124c10 -16 19 -20 44 -20h30v-83h-70c-47 0 -63 8 -84 47l-90 157c-11 18 -28 20 -49 20h-41v-224h-97z" />
    <glyph glyph-name="uni043B" unicode="&#x43b;" horiz-adv-x="545" 
d="M13 -3v86c91 2 119 178 119 301v39h-63v83h327c45 0 64 -19 64 -64v-337c0 -15 8 -22 22 -22h41v-83h-95c-46 0 -65 19 -65 64v337c0 15 -8 22 -22 22h-116v-40c0 -128 -26 -387 -212 -386z" />
    <glyph glyph-name="uni043C" unicode="&#x43c;" horiz-adv-x="727" 
d="M19 0v83h26c12 0 18 6 19 19l35 404h106l132 -290c13 -30 26 -63 26 -63h1s14 33 27 63l131 290h106l35 -404c1 -13 7 -19 19 -19h26v-83h-74c-42 0 -52 19 -55 55l-19 239c-2 31 -2 90 -2 90h-2s-12 -37 -30 -76l-118 -247h-92l-116 247c-16 37 -29 77 -29 77h-2
s0 -60 -2 -91l-19 -239c-3 -36 -13 -55 -55 -55h-74z" />
    <glyph glyph-name="uni043D" unicode="&#x43d;" horiz-adv-x="620" 
d="M85 0v401c0 15 -8 22 -22 22h-41v83h96c45 0 64 -19 64 -64v-143h256v207h97v-401c0 -15 8 -22 22 -22h40v-83h-95c-45 0 -64 19 -64 64v154h-256v-218h-97z" />
    <glyph glyph-name="uni043E" unicode="&#x43e;" horiz-adv-x="611" 
d="M33 254c0 153 121 264 272 264s273 -111 273 -264c0 -154 -122 -266 -273 -266s-272 112 -272 266zM131 254c0 -106 79 -182 174 -182c96 0 174 76 174 182c0 105 -78 180 -174 180c-95 0 -174 -75 -174 -180z" />
    <glyph glyph-name="uni043F" unicode="&#x43f;" horiz-adv-x="607" 
d="M85 0v423h-63v83h437c45 0 64 -19 64 -64v-337c0 -15 8 -22 22 -22h41v-83h-96c-45 0 -64 19 -64 64v337c0 15 -8 22 -22 22h-222v-423h-97z" />
    <glyph glyph-name="uni0440" unicode="&#x440;" horiz-adv-x="601" 
d="M85 -200v601c0 15 -8 22 -22 22h-41v83h91c45 0 62 -19 62 -51c0 -15 -1 -27 -1 -27h2s42 90 168 90c137 0 223 -108 223 -265c0 -161 -97 -265 -230 -265c-112 0 -155 81 -155 81h-2s2 -18 2 -44v-225h-97zM179 251c0 -90 49 -180 144 -180c79 0 145 66 145 181
c0 110 -59 181 -143 181c-75 0 -146 -53 -146 -182z" />
    <glyph glyph-name="uni0441" unicode="&#x441;" horiz-adv-x="530" 
d="M33 253c0 149 109 265 272 265c61 0 182 -25 182 -111v-52h-88v28c0 36 -58 52 -94 52c-99 0 -174 -74 -174 -181c0 -115 84 -180 179 -180s157 70 157 70l41 -69s-71 -87 -205 -87c-159 0 -270 113 -270 265z" />
    <glyph glyph-name="uni0442" unicode="&#x442;" horiz-adv-x="532" 
d="M218 0v423h-98c-14 0 -22 -8 -22 -22v-34h-80v77c0 45 19 62 64 62h368c45 0 64 -17 64 -62v-77h-80v34c0 14 -8 22 -22 22h-98v-423h-96z" />
    <glyph glyph-name="uni0443" unicode="&#x443;" horiz-adv-x="543" 
d="M122 -210c-75 0 -119 50 -119 50l40 70c1 -3 32 -36 74 -36c39 0 70 28 89 73l23 55l-173 401c-7 16 -15 20 -31 20h-13v83h57c41 0 57 -11 73 -51l114 -285c10 -26 18 -61 18 -61h2s8 35 17 61l106 285c14 40 32 51 73 51h58v-83h-13c-16 0 -25 -4 -32 -20l-199 -494
c-32 -78 -93 -119 -164 -119z" />
    <glyph glyph-name="uni0444" unicode="&#x444;" horiz-adv-x="733" 
d="M34 254c0 151 114 251 284 252v95c0 15 -8 22 -22 22h-41v83h96c45 0 64 -19 64 -64v-136c170 -1 284 -101 284 -252s-114 -253 -284 -254v-200h-97v200c-170 1 -284 103 -284 254zM415 79c114 0 185 72 185 175c0 102 -71 172 -185 172v-347zM132 254
c0 -103 71 -175 186 -175v347c-115 0 -186 -70 -186 -172z" />
    <glyph glyph-name="uni0445" unicode="&#x445;" horiz-adv-x="506" 
d="M20 0l171 260l-97 144c-11 16 -22 19 -42 19h-29v83h62c47 0 62 -8 89 -51l61 -98c8 -13 16 -32 16 -32h2s9 19 17 32l61 98c27 43 42 51 89 51h62v-83h-29c-20 0 -31 -3 -42 -18l-97 -145l171 -260h-110l-106 165c-8 12 -16 27 -16 27h-2s-7 -15 -15 -27l-106 -165h-110
z" />
    <glyph glyph-name="uni0446" unicode="&#x446;" horiz-adv-x="606" 
d="M84 63v338c0 15 -8 22 -22 22h-41v83h96c45 0 64 -19 64 -64v-339c0 -14 8 -22 21 -22h216v425h97v-425h16c44 0 62 -20 62 -63v-138h-90v98c0 14 -7 22 -20 22h-335c-46 0 -64 18 -64 63z" />
    <glyph glyph-name="uni0447" unicode="&#x447;" horiz-adv-x="541" 
d="M238 176c-105 0 -162 54 -162 152v73c0 16 -7 22 -23 22h-36v83h91c49 0 63 -25 63 -64v-87c0 -50 16 -95 96 -95c53 0 91 21 113 36v210h97v-506h-97v183c0 15 1 32 1 32h-1c-35 -23 -88 -39 -142 -39z" />
    <glyph glyph-name="uni0448" unicode="&#x448;" horiz-adv-x="829" 
d="M84 64v337c0 15 -8 22 -22 22h-41v83h96c45 0 64 -19 64 -64v-339c0 -14 8 -22 21 -22h163v425h97v-425h165c13 0 21 8 21 22v339c0 45 19 64 64 64h96v-83h-41c-14 0 -22 -7 -22 -22v-337c0 -45 -19 -64 -64 -64h-533c-46 0 -64 19 -64 64z" />
    <glyph glyph-name="uni0449" unicode="&#x449;" horiz-adv-x="836" 
d="M84 64v337c0 15 -8 22 -22 22h-41v83h96c45 0 64 -19 64 -64v-341c0 -14 8 -22 21 -22h163v427h97v-427h186v427h97v-427h21c44 0 61 -20 61 -63v-136h-89v98c0 15 -8 22 -22 22h-568c-46 0 -64 19 -64 64z" />
    <glyph glyph-name="uni044A" unicode="&#x44a;" horiz-adv-x="597" 
d="M193 55v351c0 15 -6 22 -20 22h-56c-15 0 -21 -7 -21 -22v-38h-78v76c0 46 19 62 64 62h144c45 0 64 -19 64 -64v-120h102c117 0 185 -64 185 -162c0 -99 -76 -160 -185 -160h-143c-40 0 -56 17 -56 55zM290 90c0 -13 7 -20 19 -20h71c62 0 99 37 99 91
c0 55 -36 91 -99 91h-90v-162z" />
    <glyph glyph-name="uni044B" unicode="&#x44b;" horiz-adv-x="724" 
d="M542 64v442h97v-401c0 -15 8 -22 22 -22h40v-83h-95c-45 0 -64 19 -64 64zM84 55v346c0 15 -8 22 -22 22h-41v83h96c44 0 64 -19 64 -58v-127h100c116 0 182 -63 182 -161c0 -99 -75 -160 -182 -160h-142c-39 0 -55 17 -55 55zM181 90c0 -13 7 -20 19 -20h69
c61 0 96 37 96 91c0 55 -33 90 -96 90h-88v-161z" />
    <glyph glyph-name="uni044C" unicode="&#x44c;" horiz-adv-x="485" 
d="M84 55v346c0 15 -8 22 -22 22h-41v83h96c44 0 63 -19 64 -58v-127h102c115 0 180 -63 180 -161c0 -99 -74 -160 -180 -160h-144c-39 0 -55 17 -55 55zM181 90c0 -13 7 -20 19 -20h71c60 0 95 37 95 91c0 55 -33 90 -95 90h-90v-161z" />
    <glyph glyph-name="uni044D" unicode="&#x44d;" horiz-adv-x="530" 
d="M26 64l38 69c44 -45 104 -66 160 -66c92 0 165 61 177 151h-238v68h239c-12 96 -88 153 -170 153c-50 0 -113 -19 -113 -53v-25h-83v42c0 63 80 115 198 115c155 0 263 -115 263 -264c0 -154 -111 -266 -269 -266c-74 0 -149 25 -202 76z" />
    <glyph glyph-name="uni044E" unicode="&#x44e;" horiz-adv-x="829" 
d="M85 0v401c0 15 -8 22 -22 22h-41v83h96c45 0 64 -19 64 -64v-149h94c15 132 121 225 255 225c148 0 265 -111 265 -264c0 -154 -117 -266 -264 -266c-135 0 -242 95 -257 229h-93v-217h-97zM366 254c0 -106 74 -182 166 -182s165 76 165 182c0 105 -73 180 -165 180
s-166 -75 -166 -180z" />
    <glyph glyph-name="uni044F" unicode="&#x44f;" horiz-adv-x="524" 
d="M22 0v83h16c25 0 36 4 47 20l57 79c7 10 15 19 26 26v2c-64 15 -112 63 -112 142c0 93 71 154 170 154h276v-83h-63v-423h-97v184h-56c-28 0 -35 -6 -54 -34l-74 -103c-30 -41 -41 -47 -90 -47h-46zM257 254h85v185h-88c-65 0 -101 -37 -101 -92c0 -57 42 -93 104 -93z
" />
    <glyph glyph-name="uni0409" unicode="&#x409;" horiz-adv-x="933" 
d="M10 -7v91c120 13 157 164 157 439v97h-66v86h391c46 0 65 -19 65 -64v-227h124c114 0 232 -50 232 -202c0 -145 -104 -213 -236 -213h-156c-45 0 -64 19 -64 64v534c0 15 -8 22 -22 22h-169v-97c0 -307 -40 -517 -256 -530zM557 106c0 -15 8 -22 22 -22h103
c82 0 128 49 128 126c0 78 -46 121 -127 121h-126v-225z" />
    <glyph glyph-name="uni040A" unicode="&#x40a;" horiz-adv-x="1002" 
d="M99 0v598c0 15 -8 22 -22 22h-43v86h101c45 0 64 -19 64 -64v-230h328v294h100v-294h127c113 0 229 -51 229 -198c0 -144 -105 -214 -235 -214h-157c-45 0 -64 19 -64 64v264h-328v-328h-100zM627 106c0 -15 8 -22 22 -22h105c79 0 126 51 126 128c0 71 -46 116 -125 116
h-128v-222z" />
    <glyph glyph-name="uni040B" unicode="&#x40b;" horiz-adv-x="783" 
d="M231 0v624h-112c-14 0 -22 -6 -22 -22v-49h-83v93c0 45 15 60 61 60h485v-82h-229v-205c0 -14 -2 -32 -2 -32h2c35 19 102 47 182 47c136 0 199 -77 199 -206v-124c0 -13 7 -18 22 -18h43v-86h-100c-46 0 -65 19 -65 64v143c0 90 -35 137 -121 137
c-72 0 -133 -31 -160 -50v-294h-100z" />
    <glyph glyph-name="uni04BA" unicode="&#x4ba;" horiz-adv-x="656" 
d="M99 0v598c0 15 -8 22 -22 22h-43v86h101c45 0 64 -19 64 -64v-197c0 -14 -2 -33 -2 -33h2c34 19 100 46 180 46c138 0 202 -76 202 -206v-144c0 -14 7 -22 22 -22h43v-86h-101c-45 0 -64 19 -64 64v167c0 90 -36 137 -125 137c-66 0 -128 -26 -157 -47v-321h-100z" />
    <glyph glyph-name="uni048C" unicode="&#x48c;" horiz-adv-x="661" 
d="M168 64v506h-159v77h158v103h101v-103h183v-77h-183v-140h137c121 0 238 -61 238 -211c0 -148 -111 -219 -233 -219h-178c-45 0 -64 19 -64 64zM268 106c0 -15 8 -22 22 -22h117c81 0 133 52 133 133s-55 129 -137 129h-135v-240z" />
    <glyph glyph-name="uni0402" unicode="&#x402;" horiz-adv-x="747" 
d="M231 0v624h-112c-14 0 -22 -6 -22 -22v-49h-83v93c0 45 15 60 61 60h485v-82h-229v-201c0 -15 -1 -31 -1 -31h2c51 25 122 41 175 41c145 0 221 -90 221 -214c0 -147 -94 -231 -222 -231c-16 0 -40 2 -47 2v84c3 -1 22 -2 34 -2c63 0 137 32 137 141
c0 77 -44 132 -143 132c-85 0 -156 -41 -156 -41v-304h-100z" />
    <glyph glyph-name="uni0452" unicode="&#x452;" horiz-adv-x="584" 
d="M67 0v553h-63v71h63v82h97v-82h206v-71h-206v-164c0 -24 -2 -42 -2 -42h2c22 48 75 113 176 113c119 0 185 -65 185 -194v-287c0 -168 -131 -189 -194 -189c-20 0 -34 3 -34 3v83s9 -2 22 -2c38 0 109 13 109 112v258c0 70 -26 126 -107 126c-77 0 -128 -51 -149 -124
c-6 -20 -8 -43 -8 -67v-179h-97z" />
    <glyph glyph-name="uni04BB" unicode="&#x4bb;" horiz-adv-x="605" 
d="M67 0v601c0 15 -8 22 -22 22h-41v83h95c45 0 65 -19 65 -62v-197c0 -24 -2 -42 -2 -42h2c22 49 86 113 187 113c119 0 174 -65 174 -194v-219c0 -15 8 -22 22 -22h41v-83h-96c-45 0 -64 19 -64 64v238c0 71 -14 127 -95 127c-77 0 -140 -52 -161 -125
c-6 -20 -8 -43 -8 -67v-237h-97z" />
    <glyph glyph-name="uni045B" unicode="&#x45b;" horiz-adv-x="607" 
d="M67 0v553h-63v71h63v82h97v-82h206v-71h-206v-163c0 -24 -2 -42 -2 -42h2c22 48 86 113 187 113c119 0 174 -65 174 -194v-162c0 -15 8 -22 22 -22h41v-83h-96c-45 0 -64 19 -64 64v181c0 71 -14 127 -95 127c-77 0 -140 -52 -161 -125c-6 -20 -8 -43 -8 -67v-180h-97z
" />
    <glyph glyph-name="uni0459" unicode="&#x459;" horiz-adv-x="742" 
d="M10 -4v86c92 2 125 177 125 306v35h-63v83h299c44 0 64 -19 64 -58v-130h100c119 0 187 -61 187 -160c0 -91 -63 -158 -187 -158h-142c-39 0 -55 17 -55 55v350c0 14 -8 22 -22 22h-89v-36c0 -142 -30 -395 -217 -395zM435 90c0 -13 7 -20 19 -20h71c66 0 102 36 102 88
c0 54 -35 89 -103 89h-89v-157z" />
    <glyph glyph-name="uni045A" unicode="&#x45a;" horiz-adv-x="819" 
d="M85 0v401c0 15 -8 22 -22 22h-41v83h96c45 0 64 -19 64 -64v-128h236v192h97v-191h100c117 0 183 -63 183 -154c0 -102 -74 -161 -183 -161h-142c-39 0 -55 17 -55 55v182h-236v-237h-97zM515 90c0 -13 7 -20 19 -20h71c63 0 98 35 98 89c0 51 -34 83 -98 83h-90v-152z
" />
    <glyph glyph-name="uni0463" unicode="&#x463;" horiz-adv-x="537" 
d="M131 55v404h-121v73h121v174h97v-174h165v-73h-165v-134h105c116 0 185 -65 185 -160c0 -104 -77 -165 -185 -165h-147c-39 0 -55 17 -55 55zM228 90c0 -13 7 -20 19 -20h74c62 0 99 39 99 93c0 57 -36 92 -99 92h-93v-165z" />
    <glyph glyph-name="uni048D" unicode="&#x48d;" horiz-adv-x="537" 
d="M131 55v404h-121v73h121v174h97v-174h165v-73h-165v-134h105c116 0 185 -65 185 -160c0 -104 -77 -165 -185 -165h-146c-40 0 -56 17 -56 55zM228 90c0 -13 7 -20 19 -20h74c62 0 99 39 99 93c0 57 -36 92 -99 92h-93v-165z" />
    <glyph glyph-name="uni04A4" unicode="&#x4a4;" horiz-adv-x="941" 
d="M99 0v598c0 15 -8 22 -22 22h-43v86h101c45 0 64 -19 64 -64v-247h336v225h-65v86h397c45 0 62 -16 62 -62v-91h-92v45c0 15 -7 22 -22 22h-180v-620h-100v310h-336v-310h-100z" />
    <glyph glyph-name="uni04A0" unicode="&#x4a0;" horiz-adv-x="756" 
d="M246 0v620h-119c-15 0 -22 -7 -22 -22v-45h-92v94c0 45 17 59 62 59h336v-86h-65v-211h64c26 0 46 4 58 24l156 273h112l-171 -293c-19 -35 -40 -46 -40 -46v-2s21 -5 40 -44l106 -212c10 -21 26 -23 50 -23h20v-86h-56c-55 0 -75 7 -98 53l-122 245
c-11 23 -33 26 -63 26h-56v-324h-100z" />
    <glyph glyph-name="uni04B4" unicode="&#x4b4;" horiz-adv-x="919" 
d="M249 64v556h-124c-14 0 -22 -7 -22 -22v-45h-89v93c0 45 15 60 60 60h446c46 0 61 -15 61 -60v-93h-86v45c0 15 -7 22 -22 22h-124v-512c0 -14 8 -22 22 -22h337v620h100v-620h24c45 0 62 -17 62 -63v-163h-89v118c0 14 -8 22 -21 22h-470c-46 0 -65 19 -65 64z" />
    <glyph glyph-name="uni0495" unicode="&#x495;" horiz-adv-x="507" 
d="M85 0v423h-62v83h343c45 0 64 -10 64 -55v-84h-81v37c0 12 -5 19 -18 19h-149v-178c31 15 71 26 112 26c138 0 187 -103 187 -207c0 -135 -69 -219 -150 -271l-48 69c55 33 104 91 104 192c0 70 -26 136 -113 136c-42 0 -74 -15 -92 -26v-164h-97z" />
    <glyph glyph-name="uni04C8" unicode="&#x4c8;" horiz-adv-x="621" 
d="M85 0v401c0 15 -8 22 -22 22h-41v83h96c45 0 64 -19 64 -64v-142h256v142c0 45 20 64 65 64h96v-83h-41c-14 0 -22 -7 -22 -22v-353c0 -144 -65 -204 -151 -255l-50 71c61 33 103 77 103 183v170h-256v-217h-97z" />
    <glyph glyph-name="uni04C4" unicode="&#x4c4;" horiz-adv-x="531" 
d="M85 0v401c0 15 -8 22 -22 22h-41v83h96c44 0 64 -19 64 -58v-147h33c21 0 40 4 58 30l118 175h110l-132 -191c-18 -26 -30 -33 -33 -35v-2c131 -35 160 -145 160 -224c0 -136 -80 -220 -153 -261l-46 70c52 27 105 84 105 191c0 103 -62 163 -170 163h-50v-217h-97z" />
    <glyph glyph-name="uni04A1" unicode="&#x4a1;" horiz-adv-x="638" 
d="M194 0v408c0 13 -6 20 -18 20h-61c-13 0 -18 -8 -18 -20v-40h-79v83c0 45 19 55 64 55h145c45 0 64 -13 64 -58v-141h39c20 0 40 5 52 23l120 176h111l-140 -201c-22 -32 -38 -38 -38 -38v-2s20 -7 38 -38l75 -124c9 -16 18 -20 44 -20h29v-83h-70c-47 0 -62 8 -84 47
l-90 157c-11 18 -27 20 -48 20h-38v-224h-97z" />
    <glyph glyph-name="uni04A5" unicode="&#x4a5;" horiz-adv-x="757" 
d="M85 0v401c0 15 -8 22 -22 22h-41v83h96c45 0 64 -19 64 -64v-153h232v139h-62v78h323c45 0 64 -10 64 -55v-80h-80v37c0 12 -6 20 -19 20h-129v-428h-97v207h-232v-207h-97z" />
    <glyph glyph-name="uni04B5" unicode="&#x4b5;" horiz-adv-x="746" 
d="M193 63v364h-89c-13 0 -19 -7 -19 -20v-36h-68v79c0 45 19 56 64 56h318c45 0 64 -11 64 -56v-79h-68v36c0 13 -5 20 -18 20h-87v-324c0 -14 8 -22 21 -22h245v425h97v-425h15c44 0 61 -20 61 -63v-138h-89v98c0 14 -8 22 -21 22h-362c-45 0 -64 18 -64 63z" />
    <glyph glyph-name="uni0401" unicode="&#x401;" horiz-adv-x="571" 
d="M349 781v101h73v-101h-73zM184 781v101h74v-101h-74zM98 64v556h-65v86h416c45 0 64 -19 64 -64v-89h-92v45c0 15 -8 22 -22 22h-201v-221h248v-86h-248v-205c0 -14 8 -22 22 -22h207c14 0 22 8 22 22v45h91v-89c0 -45 -19 -64 -64 -64h-313c-45 0 -65 19 -65 64z" />
    <glyph glyph-name="uni0407" unicode="&#x407;" horiz-adv-x="315" 
d="M204 781v101h73v-101h-73zM39 781v101h74v-101h-74zM41 0v86h69v534h-69v86h233v-86h-68v-534h68v-86h-233z" />
    <glyph glyph-name="uni04D2" unicode="&#x4d2;" horiz-adv-x="665" 
d="M12 0v86h14c18 0 27 4 33 22l221 598h105l221 -598c6 -18 15 -22 33 -22h14v-86h-55c-50 0 -66 12 -83 58l-53 145h-259l-53 -145c-17 -46 -33 -58 -83 -58h-55zM227 287h211l-77 215c-12 37 -28 99 -28 99h-2s-15 -62 -27 -99zM378 781v101h73v-101h-73zM213 781v101h74
v-101h-74z" />
    <glyph glyph-name="uni04DA" unicode="&#x4da;" horiz-adv-x="694" 
d="M388 780v101h74v-101h-74zM223 780v101h74v-101h-74zM38 339c0 19 3 50 3 50h513c-7 141 -100 238 -235 238c-119 0 -203 -63 -217 -76l-49 74c8 7 103 93 276 93c196 0 329 -156 329 -362c0 -211 -125 -368 -321 -368c-182 0 -299 122 -299 351zM138 310
c0 -145 63 -233 205 -233c123 0 208 92 210 233h-415z" />
    <glyph glyph-name="uni04DC" unicode="&#x4dc;" horiz-adv-x="884" 
d="M7 0l188 320c21 35 45 46 45 46v2s-19 7 -39 44l-102 185c-11 21 -26 23 -50 23h-20v86h50c55 0 72 -8 96 -53l119 -218c14 -25 33 -28 61 -28h39v299h96v-299h37c27 0 49 3 63 28l119 218c24 45 40 53 96 53h50v-86h-20c-24 0 -39 -2 -51 -23l-101 -185
c-20 -37 -39 -44 -39 -44v-2s24 -11 44 -46l189 -320h-110l-172 297c-15 25 -32 29 -57 29h-48v-326h-96v326h-48c-25 0 -42 -4 -57 -29l-172 -297h-110zM491 781v101h73v-101h-73zM326 781v101h74v-101h-74z" />
    <glyph glyph-name="uni04DE" unicode="&#x4de;" horiz-adv-x="529" 
d="M307 781v101h73v-101h-73zM142 781v101h74v-101h-74zM20 82l59 70c30 -33 93 -75 163 -75c79 0 146 46 146 126c0 75 -59 118 -131 118h-84v82h72c67 0 122 46 122 116c0 63 -39 110 -121 110c-62 0 -111 -30 -111 -67v-29h-92v55c0 95 123 130 211 130
c140 0 214 -76 214 -184c0 -86 -51 -134 -102 -160v-2c78 -22 125 -88 125 -173c0 -124 -100 -211 -247 -211c-104 0 -181 47 -224 94z" />
    <glyph glyph-name="uni04E4" unicode="&#x4e4;" horiz-adv-x="763" 
d="M428 781v101h73v-101h-73zM263 781v101h74v-101h-74zM99 0v598c0 15 -8 22 -22 22h-43v86h101c45 0 64 -19 64 -64v-387c0 -40 -6 -101 -6 -101h2s38 64 63 102l308 450h98v-598c0 -14 8 -22 22 -22h43v-86h-100c-46 0 -65 19 -65 64v388c0 39 6 103 6 103h-2
s-35 -65 -60 -103l-310 -452h-99z" />
    <glyph glyph-name="uni04E6" unicode="&#x4e6;" horiz-adv-x="793" 
d="M441 781v101h73v-101h-73zM276 781v101h74v-101h-74zM34 358c0 203 158 360 362 360s363 -157 363 -360c0 -208 -159 -370 -363 -370s-362 162 -362 370zM138 358c0 -156 115 -276 258 -276s259 120 259 276c0 151 -116 267 -259 267s-258 -116 -258 -267z" />
    <glyph glyph-name="uni04EA" unicode="&#x4ea;" horiz-adv-x="793" 
d="M34 358c0 203 155 360 362 360c208 0 363 -157 363 -360c0 -208 -155 -370 -363 -370c-207 0 -362 162 -362 370zM396 78c135 0 241 101 259 239h-517c17 -138 123 -239 258 -239zM396 629c-136 0 -242 -99 -259 -233h518c-17 134 -124 233 -259 233zM277 781v101h74
v-101h-74zM442 781v101h73v-101h-73z" />
    <glyph glyph-name="uni04EC" unicode="&#x4ec;" horiz-adv-x="695" 
d="M367 781v101h73v-101h-73zM202 781v101h74v-101h-74zM28 97l52 70c28 -32 117 -89 222 -89c137 0 239 99 252 233h-364v82h364c-9 137 -109 235 -247 235c-73 0 -176 -29 -176 -88v-40h-92v65c0 95 137 153 266 153c214 0 355 -155 355 -356c0 -205 -146 -374 -358 -374
c-130 0 -235 67 -274 109z" />
    <glyph glyph-name="uni04F0" unicode="&#x4f0;" horiz-adv-x="622" 
d="M363 781v101h73v-101h-73zM198 781v101h74v-101h-74zM82 36l46 74c20 -17 45 -31 74 -31c43 0 62 28 80 79l-219 440c-8 16 -16 22 -33 22h-20v86h61c47 0 61 -14 81 -58l143 -305c21 -44 37 -87 37 -87h2s12 38 30 87l111 305c17 47 33 58 83 58h54v-86h-16
c-18 0 -27 -4 -34 -21l-192 -486c-25 -64 -69 -125 -156 -125c-64 0 -118 34 -132 48z" />
    <glyph glyph-name="uni04F4" unicode="&#x4f4;" horiz-adv-x="651" 
d="M296 270c-148 0 -217 77 -217 206v122c0 15 -8 22 -22 22h-43v86h101c45 0 64 -19 64 -64v-144c0 -90 40 -137 140 -137c64 0 122 27 150 48v297h100v-706h-100v286c0 14 2 33 2 33h-2c-36 -20 -100 -49 -173 -49zM354 781v101h73v-101h-73zM189 781v101h74v-101h-74z
" />
    <glyph glyph-name="uni04F8" unicode="&#x4f8;" horiz-adv-x="855" 
d="M476 781v101h73v-101h-73zM311 781v101h74v-101h-74zM656 64v642h100v-598c0 -14 8 -22 22 -22h43v-86h-101c-45 0 -64 19 -64 64zM98 64v534c0 15 -8 22 -22 22h-43v86h101c45 0 64 -19 64 -64v-202h135c124 0 225 -69 225 -215c0 -152 -105 -225 -241 -225h-154
c-45 0 -65 19 -65 64zM198 108c0 -14 8 -22 22 -22h103c81 0 132 50 132 136c0 85 -51 132 -132 132h-125v-246z" />
    <glyph glyph-name="uni0451" unicode="&#x451;" horiz-adv-x="539" 
d="M327 606v101h73v-101h-73zM162 606v101h74v-101h-74zM33 253c0 161 110 265 254 265c143 0 218 -107 218 -237c0 -14 -2 -33 -3 -41h-369c6 -109 84 -168 175 -168c77 0 132 47 149 59l41 -71c-24 -20 -100 -72 -196 -72c-159 0 -269 115 -269 265zM137 310h271
c-3 87 -57 133 -123 133c-75 0 -134 -49 -148 -133z" />
    <glyph glyph-name="uni0457" unicode="&#x457;" horiz-adv-x="265" 
d="M156 605v101h73v-101h-73zM16 605v101h74v-101h-74zM84 64v337c0 15 -8 22 -22 22h-41v83h95c46 0 65 -19 65 -64v-337c0 -15 8 -22 22 -22h41v-83h-96c-45 0 -64 19 -64 64z" />
    <glyph glyph-name="uni04D3" unicode="&#x4d3;" horiz-adv-x="529" 
d="M28 138c0 170 221 177 306 177h22v7c0 87 -34 119 -112 119c-24 0 -83 -6 -83 -39v-29h-92v51c0 81 127 94 173 94c167 0 211 -85 211 -198v-215c0 -15 8 -22 22 -22h41v-83h-92c-45 0 -62 22 -62 58c0 18 1 30 1 30h-2c1 0 -43 -100 -163 -100c-88 0 -170 53 -170 150z
M125 147c0 -41 32 -82 95 -82c84 0 136 86 136 161v19h-26c-73 0 -205 -7 -205 -98zM302 606v101h73v-101h-73zM137 606v101h74v-101h-74z" />
    <glyph glyph-name="uni04DB" unicode="&#x4db;" horiz-adv-x="540" 
d="M302 606v101h73v-101h-73zM137 606v101h74v-101h-74zM34 235c0 16 3 45 3 45h370c-5 97 -77 158 -163 158c-93 0 -161 -57 -161 -57l-38 69c15 10 91 68 210 68c152 0 251 -112 251 -264c0 -166 -106 -266 -247 -266c-147 0 -225 104 -225 247zM135 210
c3 -106 59 -145 126 -145c72 0 138 46 143 145h-269z" />
    <glyph glyph-name="uni04DD" unicode="&#x4dd;" horiz-adv-x="753" 
d="M423 606v101h73v-101h-73zM258 606v101h74v-101h-74zM16 0l121 208c25 42 58 49 58 49v2s-24 7 -40 40l-52 104c-8 17 -19 20 -45 20h-26v83h60c47 0 65 -6 85 -47l65 -131c14 -27 39 -30 58 -30h30v208h94v-208h29c19 0 44 3 58 30l65 131c20 41 38 47 85 47h60v-83h-26
c-25 0 -36 -3 -45 -20l-52 -104c-15 -33 -40 -40 -40 -40v-2s33 -7 58 -49l122 -208h-113l-100 176c-20 33 -44 40 -71 40h-30v-216h-94v216h-30c-28 0 -51 -7 -72 -40l-99 -176h-113z" />
    <glyph glyph-name="uni04DF" unicode="&#x4df;" horiz-adv-x="441" 
d="M262 606v101h73v-101h-73zM97 606v101h74v-101h-74zM23 62l46 64c14 -14 63 -59 134 -59c57 0 105 27 105 84c0 49 -35 76 -103 76h-64v67h51c62 0 99 26 99 77s-38 74 -88 74c-36 0 -82 -14 -82 -49v-23h-81v47c0 68 84 98 171 98c106 0 178 -47 178 -137
c0 -63 -36 -100 -75 -114v-2c50 -13 91 -52 91 -120c0 -103 -91 -157 -196 -157c-98 0 -156 46 -186 74z" />
    <glyph glyph-name="uni04E5" unicode="&#x4e5;" horiz-adv-x="619" 
d="M359 606v101h73v-101h-73zM194 606v101h74v-101h-74zM84 0v401c0 15 -8 22 -21 22h-40v83h89c45 0 64 -18 64 -63v-241c0 -27 -3 -65 -4 -70h2c4 8 30 47 47 70l218 304h96v-401c0 -15 8 -22 21 -22h40v-83h-89c-45 0 -64 19 -64 64v240c0 25 3 63 4 71h-2
c-4 -9 -30 -48 -47 -71l-218 -304h-96z" />
    <glyph glyph-name="uni04E7" unicode="&#x4e7;" horiz-adv-x="609" 
d="M351 605v101h73v-101h-73zM186 605v101h74v-101h-74zM33 254c0 153 121 264 272 264s273 -111 273 -264c0 -154 -122 -266 -273 -266s-272 112 -272 266zM131 254c0 -106 79 -182 174 -182c96 0 174 76 174 182c0 105 -78 180 -174 180c-95 0 -174 -75 -174 -180z" />
    <glyph glyph-name="uni04EB" unicode="&#x4eb;" horiz-adv-x="611" 
d="M32 254c0 153 122 264 272 264c152 0 273 -111 273 -264c0 -154 -121 -266 -272 -266s-273 112 -273 266zM305 66c89 0 165 64 178 159h-356c13 -95 88 -159 178 -159zM305 440c-89 0 -163 -62 -178 -153h355c-14 91 -89 153 -177 153zM189 585v101h74v-101h-74zM354 585
v101h73v-101h-73z" />
    <glyph glyph-name="uni04ED" unicode="&#x4ed;" horiz-adv-x="530" 
d="M297 606v101h73v-101h-73zM132 606v101h74v-101h-74zM26 64l38 69c44 -45 104 -66 160 -66c92 0 165 61 177 151h-238v68h239c-12 96 -88 153 -170 153c-50 0 -113 -19 -113 -53v-25h-83v42c0 63 80 115 198 115c155 0 263 -115 263 -264c0 -154 -111 -266 -269 -266
c-74 0 -149 25 -202 76z" />
    <glyph glyph-name="uni04F1" unicode="&#x4f1;" horiz-adv-x="543" 
d="M43 -90c0 -1 31 -36 74 -36c39 0 70 28 89 73l23 55l-173 401c-7 16 -15 20 -31 20h-13v83h57c41 0 57 -11 73 -51l114 -285c10 -26 18 -61 18 -61h2s8 35 17 61l106 285c14 40 32 51 73 51h58v-83h-13c-16 0 -25 -4 -32 -20l-199 -494c-32 -78 -93 -119 -164 -119
c-75 0 -119 50 -119 50zM318 606v101h73v-101h-73zM153 606v101h74v-101h-74z" />
    <glyph glyph-name="uni04F5" unicode="&#x4f5;" horiz-adv-x="541" 
d="M314 606v101h73v-101h-73zM149 606v101h74v-101h-74zM238 176c-105 0 -162 54 -162 152v73c0 16 -7 22 -23 22h-36v83h91c49 0 63 -25 63 -64v-87c0 -50 16 -95 96 -95c53 0 91 21 113 36v210h97v-506h-97v183c0 15 1 32 1 32h-1c-35 -23 -88 -39 -142 -39z" />
    <glyph glyph-name="uni04F9" unicode="&#x4f9;" horiz-adv-x="724" 
d="M406 606v101h73v-101h-73zM241 606v101h74v-101h-74zM542 64v442h97v-401c0 -15 8 -22 22 -22h40v-83h-95c-45 0 -64 19 -64 64zM84 55v346c0 15 -8 22 -22 22h-41v83h96c44 0 64 -19 64 -58v-127h100c116 0 182 -63 182 -161c0 -99 -75 -160 -182 -160h-142
c-39 0 -55 17 -55 55zM181 90c0 -13 7 -20 19 -20h69c61 0 96 37 96 91c0 55 -33 90 -96 90h-88v-161z" />
    <glyph glyph-name="uni0472" unicode="&#x472;" horiz-adv-x="793" 
d="M34 358c0 203 155 360 362 360c208 0 363 -157 363 -360c0 -208 -155 -370 -363 -370c-207 0 -362 162 -362 370zM396 78c135 0 241 101 259 239h-517c17 -138 123 -239 258 -239zM396 629c-136 0 -242 -99 -259 -233h518c-17 134 -124 233 -259 233z" />
    <glyph glyph-name="uni04E8" unicode="&#x4e8;" horiz-adv-x="793" 
d="M34 358c0 203 155 360 362 360c208 0 363 -157 363 -360c0 -208 -155 -370 -363 -370c-207 0 -362 162 -362 370zM396 78c135 0 241 101 259 239h-517c17 -138 123 -239 258 -239zM396 629c-136 0 -242 -99 -259 -233h518c-17 134 -124 233 -259 233z" />
    <glyph glyph-name="uni0473" unicode="&#x473;" horiz-adv-x="609" 
d="M32 254c0 153 122 264 272 264c152 0 273 -111 273 -264c0 -154 -121 -266 -272 -266s-273 112 -273 266zM305 66c89 0 165 64 178 159h-356c13 -95 88 -159 178 -159zM305 440c-89 0 -163 -62 -178 -153h355c-14 91 -89 153 -177 153z" />
    <glyph glyph-name="uni04E9" unicode="&#x4e9;" horiz-adv-x="609" 
d="M32 254c0 153 122 264 272 264c152 0 273 -111 273 -264c0 -154 -121 -266 -272 -266s-273 112 -273 266zM305 66c89 0 165 64 178 159h-356c13 -95 88 -159 178 -159zM305 440c-89 0 -163 -62 -178 -153h355c-14 91 -89 153 -177 153z" />
    <glyph glyph-name="uni0496" unicode="&#x496;" horiz-adv-x="922" 
d="M7 0l188 320c21 35 45 46 45 46v2s-19 7 -39 44l-102 185c-11 21 -26 23 -50 23h-20v86h50c55 0 72 -8 96 -53l119 -218c14 -25 33 -28 61 -28h39v299h96v-299h37c27 0 49 3 63 28l119 218c24 45 40 53 96 53h50v-86h-20c-24 0 -39 -2 -51 -23l-101 -185
c-20 -37 -39 -44 -39 -44v-2s24 -11 44 -46l138 -234h37c45 0 63 -17 63 -63v-163h-90v118c0 13 -6 21 -17 22h-52l-172 297c-15 25 -32 29 -57 29h-48v-326h-96v326h-48c-25 0 -42 -4 -57 -29l-172 -297h-110z" />
    <glyph glyph-name="uni049A" unicode="&#x49a;" horiz-adv-x="633" 
d="M99 0v598c0 15 -8 22 -22 22h-43v86h101c45 0 64 -19 64 -64v-233h67c26 0 46 4 58 24l157 273h112l-171 -293c-20 -35 -40 -46 -40 -46v-2s21 -5 40 -44l117 -235h30c45 0 62 -17 62 -63v-163h-89v118c0 14 -8 22 -21 22h-51l-148 298c-11 23 -34 26 -63 26h-60v-324
h-100z" />
    <glyph glyph-name="uni04B2" unicode="&#x4b2;" horiz-adv-x="627" 
d="M12 0l222 364l-142 231c-14 23 -26 25 -47 25h-25v86h58c49 0 69 -9 95 -54l79 -134c22 -39 45 -83 45 -83h2s20 44 43 83l80 134c26 45 45 54 94 54h59v-86h-26c-20 0 -32 -2 -46 -25l-143 -231l170 -278h37c45 0 62 -17 62 -63v-163h-89v118c0 13 -7 21 -18 22h-52
l-129 215c-22 39 -44 80 -44 80h-2s-21 -42 -43 -81l-128 -214h-112z" />
    <glyph glyph-name="uni04F6" unicode="&#x4f6;" horiz-adv-x="517" 
d="M98 0v620h-65v86h404c45 0 64 -19 64 -64v-89h-91v45c0 15 -8 22 -22 22h-190v-534h35c45 0 63 -17 63 -63v-163h-90v118c0 14 -7 22 -20 22h-88z" />
    <glyph glyph-name="uni04A2" unicode="&#x4a2;" horiz-adv-x="781" 
d="M99 0v598c0 15 -8 22 -22 22h-43v86h101c45 0 64 -19 64 -64v-247h359v247c0 45 19 64 65 64h100v-86h-43c-14 0 -22 -7 -22 -22v-512h35c45 0 63 -17 63 -63v-163h-90v118c0 14 -7 22 -21 22h-87v310h-359v-310h-100z" />
    <glyph glyph-name="uni04AC" unicode="&#x4ac;" horiz-adv-x="636" 
d="M266 0v620h-141c-15 0 -22 -7 -22 -22v-45h-90v93c0 45 15 60 60 60h486c45 0 60 -15 60 -60v-93h-89v45c0 15 -8 22 -22 22h-142v-534h35c45 0 62 -17 62 -63v-163h-89v118c0 13 -6 21 -18 22h-90z" />
    <glyph glyph-name="uni04B6" unicode="&#x4b6;" horiz-adv-x="688" 
d="M296 270c-148 0 -217 77 -217 206v122c0 15 -8 22 -22 22h-43v86h101c45 0 64 -19 64 -64v-144c0 -90 40 -137 140 -137c64 0 122 27 150 48v297h100v-620h35c46 0 63 -17 63 -63v-163h-89v118c0 13 -7 21 -18 22h-91v286c0 14 2 33 2 33h-2c-36 -20 -100 -49 -173 -49z
" />
    <glyph glyph-name="uni04CB" unicode="&#x4cb;" horiz-adv-x="650" 
d="M296 270c-148 0 -217 77 -217 206v122c0 15 -8 22 -22 22h-43v86h101c45 0 64 -19 64 -64v-144c0 -90 40 -137 140 -137c64 0 122 27 150 48v297h100v-706h-108c-13 0 -21 -8 -21 -22v-118h-89v163c0 46 17 63 62 63h56v200c0 14 2 33 2 33h-2c-36 -20 -100 -49 -173 -49
z" />
    <glyph glyph-name="uni0497" unicode="&#x497;" horiz-adv-x="781" 
d="M16 0l121 208c25 42 58 49 58 49v2s-24 7 -40 40l-52 104c-8 17 -19 20 -45 20h-26v83h60c47 0 65 -6 85 -47l65 -131c14 -27 39 -30 58 -30h30v208h94v-208h29c19 0 44 3 58 30l65 131c20 41 38 47 85 47h60v-83h-26c-25 0 -36 -3 -45 -20l-52 -104
c-15 -33 -40 -40 -40 -40v-2s33 -7 58 -49l74 -127h23c44 0 61 -20 61 -63v-138h-89v98c0 14 -7 22 -19 22h-41l-100 176c-20 33 -44 40 -71 40h-30v-216h-94v216h-30c-28 0 -51 -7 -72 -40l-99 -176h-113z" />
    <glyph glyph-name="uni049B" unicode="&#x49b;" horiz-adv-x="538" 
d="M85 0v401c0 15 -8 22 -22 22h-41v83h96c45 0 64 -13 64 -58v-137h45c20 0 40 4 53 23l118 172h109l-136 -197c-22 -31 -38 -37 -38 -37v-2s16 -8 33 -39l88 -150h21c38 0 56 -20 56 -63v-138h-89v98c0 13 -6 22 -16 22h-37l-120 208c-10 18 -28 20 -49 20h-38v-228h-97z
" />
    <glyph glyph-name="uni04B3" unicode="&#x4b3;" horiz-adv-x="527" 
d="M20 0l171 260l-97 144c-11 16 -22 19 -42 19h-29v83h62c47 0 62 -8 89 -51l61 -98c8 -13 16 -32 16 -32h2s9 19 17 32l61 98c27 43 42 51 89 51h62v-83h-29c-20 0 -31 -3 -42 -18l-97 -145l117 -179h25c44 0 60 -20 60 -63v-138h-90v98c0 13 -4 21 -14 22h-37l-106 165
c-8 12 -16 27 -16 27h-2s-7 -15 -15 -27l-106 -165h-110z" />
    <glyph glyph-name="uni04F7" unicode="&#x4f7;" horiz-adv-x="441" 
d="M85 0v423h-63v83h335c46 0 65 -16 65 -62v-77h-81v34c0 14 -8 22 -22 22h-137v-342h24c44 0 61 -20 61 -63v-138h-90v98c0 14 -6 22 -18 22h-74z" />
    <glyph glyph-name="uni04A3" unicode="&#x4a3;" horiz-adv-x="633" 
d="M438 0v219h-256v-219h-97v401c0 15 -8 22 -22 22h-41v83h96c45 0 64 -19 64 -64v-142h256v206h97v-425h24c44 0 60 -20 60 -63v-138h-89v98c0 14 -6 22 -18 22h-74z" />
    <glyph glyph-name="uni04AD" unicode="&#x4ad;" horiz-adv-x="536" 
d="M218 0v423h-98c-14 0 -22 -8 -22 -22v-34h-80v77c0 45 19 62 64 62h368c45 0 64 -17 64 -62v-77h-80v34c0 14 -8 22 -22 22h-98v-342h26c44 0 60 -20 60 -63v-138h-89v98c0 14 -6 22 -18 22h-75z" />
    <glyph glyph-name="uni04B7" unicode="&#x4b7;" horiz-adv-x="575" 
d="M238 176c-105 0 -162 54 -162 152v73c0 16 -7 22 -23 22h-36v83h91c49 0 63 -25 63 -64v-87c0 -50 16 -95 96 -95c53 0 91 21 113 36v210h97v-425h24c44 0 60 -20 60 -63v-138h-89v98c0 13 -5 21 -15 22h-77v183c0 15 1 32 1 32h-1c-35 -23 -88 -39 -142 -39z" />
    <glyph glyph-name="uni04CC" unicode="&#x4cc;" horiz-adv-x="541" 
d="M294 9c0 43 16 62 60 62h25v121c0 14 2 31 2 31h-2c-34 -22 -87 -38 -142 -38c-105 0 -162 54 -162 152v64c0 16 -7 22 -22 22h-37v83h92c49 0 63 -25 63 -64v-79c0 -50 15 -95 96 -95c52 0 91 22 112 37v201h97v-506h-79c-10 -1 -14 -9 -14 -22v-98h-89v129z" />
    <glyph glyph-name="uni048A" unicode="&#x48a;" horiz-adv-x="792" 
d="M99 0v598c0 15 -8 22 -22 22h-43v86h101c45 0 64 -19 64 -64v-387c0 -40 -6 -101 -6 -101h2s38 64 63 102l308 450h98v-598c0 -14 8 -22 22 -22h87v-57l-72 -169h-73l40 140h-39c-46 0 -65 19 -65 64v388c0 39 6 103 6 103h-2s-35 -65 -60 -103l-310 -452h-99zM388 739
c-77 0 -148 46 -148 128v15h78v-14c0 -44 35 -66 70 -66s71 22 71 67v13h77v-15c0 -82 -70 -128 -148 -128z" />
    <glyph glyph-name="uni04C5" unicode="&#x4c5;" horiz-adv-x="711" 
d="M10 -5v91c119 16 161 169 161 456v78h-66v86h415c45 0 64 -19 64 -64v-534c0 -14 8 -22 22 -22h87v-57l-73 -169h-72l40 140h-40c-45 0 -64 19 -64 64v534c0 15 -8 22 -22 22h-196v-79c0 -338 -61 -535 -256 -546z" />
    <glyph glyph-name="uni04C9" unicode="&#x4c9;" horiz-adv-x="787" 
d="M99 0v598c0 15 -8 22 -22 22h-43v86h101c45 0 64 -19 64 -64v-247h359v247c0 45 19 64 65 64h100v-86h-43c-14 0 -22 -7 -22 -22v-512h110v-57l-72 -169h-73l43 140h-108v310h-359v-310h-100z" />
    <glyph glyph-name="uni04CD" unicode="&#x4cd;" horiz-adv-x="892" 
d="M23 0v86h33c14 0 21 8 22 22l48 598h103l166 -373c17 -39 35 -90 35 -90h2s18 51 35 90l166 373h103l48 -598c1 -14 8 -22 22 -22h89v-57l-72 -169h-72l39 140h-39c-46 0 -61 19 -65 64l-28 373c-4 42 -2 104 -2 104h-2s-21 -66 -38 -104l-143 -310h-84l-142 310
c-17 37 -38 105 -38 105h-2s1 -63 -2 -105l-29 -373c-3 -45 -19 -64 -64 -64h-89z" />
    <glyph glyph-name="uni048B" unicode="&#x48b;" horiz-adv-x="645" 
d="M84 0v401c0 15 -8 22 -21 22h-40v83h89c45 0 64 -18 64 -63v-241c0 -27 -3 -65 -4 -70h2c4 8 30 47 47 70l218 304h96v-401c0 -15 8 -22 21 -22h72v-54l-63 -149h-69l33 120h-22c-45 0 -64 19 -64 64v240c0 25 3 63 4 71h-2c-4 -9 -30 -48 -47 -71l-218 -304h-96z
M312 564c-77 0 -148 46 -148 128v15h78v-14c0 -44 35 -66 70 -66s71 22 71 67v13h77v-15c0 -82 -70 -128 -148 -128z" />
    <glyph glyph-name="uni04C6" unicode="&#x4c6;" horiz-adv-x="570" 
d="M13 -3v86c91 2 119 178 119 301v39h-63v83h327c45 0 64 -19 64 -64v-337c0 -15 8 -22 22 -22h76v-54l-63 -149h-69l33 120h-31c-46 0 -65 19 -65 64v337c0 15 -8 22 -22 22h-116v-40c0 -128 -26 -387 -212 -386z" />
    <glyph glyph-name="uni04CA" unicode="&#x4ca;" horiz-adv-x="633" 
d="M85 0v401c0 15 -8 22 -22 22h-41v83h96c45 0 64 -19 64 -64v-143h256v207h97v-401c0 -15 8 -22 22 -22h58v-54l-63 -149h-68l33 120h-15c-45 0 -64 19 -64 64v154h-256v-218h-97z" />
    <glyph glyph-name="uni04CE" unicode="&#x4ce;" horiz-adv-x="758" 
d="M19 0v83h26c12 0 18 6 19 19l35 404h106l132 -290c13 -30 26 -63 26 -63h1s14 33 27 63l131 290h106l35 -404c1 -13 7 -19 19 -19h76v-54l-63 -149h-69l33 120h-25c-42 0 -52 19 -55 55l-19 239c-2 31 -2 90 -2 90h-2s-12 -37 -30 -76l-118 -247h-92l-116 247
c-16 37 -29 77 -29 77h-2s0 -60 -2 -91l-19 -239c-3 -36 -13 -55 -55 -55h-74z" />
    <glyph glyph-name="uni0498" unicode="&#x498;" horiz-adv-x="530" 
d="M20 82l59 70c30 -33 93 -75 163 -75c79 0 146 46 146 126c0 75 -59 118 -131 118h-84v82h72c67 0 122 46 122 116c0 63 -39 110 -121 110c-62 0 -111 -30 -111 -67v-29h-92v55c0 95 123 130 211 130c140 0 214 -76 214 -184c0 -86 -51 -134 -102 -160v-2
c78 -22 125 -88 125 -173c0 -108 -76 -188 -192 -206v-133h-90v130c-87 9 -151 50 -189 92z" />
    <glyph glyph-name="uni04AA" unicode="&#x4aa;" horiz-adv-x="698" 
d="M35 359c0 204 152 359 354 359c95 0 265 -39 265 -153v-69h-92v40c0 59 -100 89 -171 89c-142 0 -252 -107 -252 -266c0 -154 111 -277 255 -277c140 0 223 96 223 96l54 -72s-87 -101 -240 -116v-130h-90v132c-183 24 -306 176 -306 367z" />
    <glyph glyph-name="uni04BE" unicode="&#x4be;" horiz-adv-x="849" 
d="M189 344c-101 0 -165 59 -165 170c0 26 1 57 7 83l8 39h91l-9 -40c-5 -23 -7 -44 -7 -73c0 -53 20 -101 79 -101h4c27 177 154 296 321 296c179 0 291 -126 291 -328c0 -11 -3 -47 -3 -47h-510c3 -168 114 -264 245 -264c116 0 201 70 215 83l48 -76
c-8 -8 -88 -86 -241 -97v-129h-89v133c-163 25 -279 161 -282 351h-3zM298 422h411c0 109 -60 208 -191 208c-127 0 -206 -100 -220 -208z" />
    <glyph glyph-name="uni0499" unicode="&#x499;" horiz-adv-x="442" 
d="M23 62l46 64c14 -14 63 -59 134 -59c57 0 105 27 105 84c0 49 -35 76 -103 76h-64v67h51c62 0 99 26 99 77s-38 74 -88 74c-36 0 -82 -14 -82 -49v-23h-81v47c0 68 84 98 171 98c106 0 178 -47 178 -137c0 -63 -36 -100 -75 -114v-2c50 -13 91 -52 91 -120
c0 -85 -61 -136 -141 -151v-114h-87v110c-79 8 -128 47 -154 72z" />
    <glyph glyph-name="uni04AB" unicode="&#x4ab;" horiz-adv-x="532" 
d="M33 253c0 149 109 265 272 265c61 0 182 -25 182 -111v-52h-88v28c0 36 -58 52 -94 52c-99 0 -174 -74 -174 -181c0 -115 84 -180 179 -180s157 70 157 70l41 -69s-60 -72 -171 -85v-110h-87v113c-130 21 -217 125 -217 260z" />
    <glyph glyph-name="uni04BF" unicode="&#x4bf;" horiz-adv-x="659" 
d="M448 -120h-87v114c-121 24 -202 123 -207 247c-88 0 -132 50 -132 149c0 21 5 53 11 74h80c-7 -21 -12 -49 -12 -69c0 -57 19 -83 58 -84c23 127 122 207 248 207c142 0 218 -107 218 -237c0 -14 -2 -41 -2 -41h-370c5 -110 84 -168 175 -168c87 0 147 60 147 60l42 -70
s-65 -63 -169 -73v-109zM257 310h270c-3 85 -57 131 -120 131c-75 0 -136 -46 -150 -131z" />
    <glyph glyph-name="uni040F" unicode="&#x40f;" horiz-adv-x="740" 
d="M98 64v534c0 15 -8 22 -22 22h-43v86h101c45 0 64 -19 64 -64v-534c0 -14 8 -22 22 -22h300c14 0 22 8 22 22v534c0 45 19 64 64 64h101v-86h-43c-14 0 -22 -7 -22 -22v-534c0 -45 -19 -64 -65 -64h-162v-140h-90v140h-162c-45 0 -65 19 -65 64z" />
    <glyph glyph-name="uni045F" unicode="&#x45f;" horiz-adv-x="591" 
d="M84 63v338c0 15 -8 22 -22 22h-41v83h96c45 0 64 -19 64 -64v-339c0 -14 8 -22 21 -22h187c14 0 21 8 21 22v339c0 45 20 64 65 64h95v-83h-41c-14 0 -22 -7 -22 -22v-338c0 -45 -18 -63 -63 -63h-105v-120h-87v120h-104c-46 0 -64 18 -64 63z" />
    <glyph glyph-name="uni040E" unicode="&#x40e;" horiz-adv-x="622" 
d="M312 739c-77 0 -148 46 -148 128v15h78v-14c0 -44 35 -66 70 -66s71 22 71 67v13h77v-15c0 -82 -70 -128 -148 -128zM82 36l46 74c20 -17 45 -31 74 -31c43 0 62 28 80 79l-219 440c-8 16 -16 22 -33 22h-20v86h61c47 0 61 -14 81 -58l143 -305c21 -44 37 -87 37 -87h2
s12 38 30 87l111 305c17 47 33 58 83 58h54v-86h-16c-18 0 -27 -4 -34 -21l-192 -486c-25 -64 -69 -125 -156 -125c-64 0 -118 34 -132 48z" />
    <glyph glyph-name="uni04C1" unicode="&#x4c1;" horiz-adv-x="884" 
d="M7 0l188 320c21 35 45 46 45 46v2s-19 7 -39 44l-102 185c-11 21 -26 23 -50 23h-20v86h50c55 0 72 -8 96 -53l119 -218c14 -25 33 -28 61 -28h39v299h96v-299h37c27 0 49 3 63 28l119 218c24 45 40 53 96 53h50v-86h-20c-24 0 -39 -2 -51 -23l-101 -185
c-20 -37 -39 -44 -39 -44v-2s24 -11 44 -46l189 -320h-110l-172 297c-15 25 -32 29 -57 29h-48v-326h-96v326h-48c-25 0 -42 -4 -57 -29l-172 -297h-110zM444 739c-77 0 -148 46 -148 128v15h78v-14c0 -44 35 -66 70 -66s71 22 71 67v13h77v-15c0 -82 -70 -128 -148 -128z
" />
    <glyph glyph-name="uni04D0" unicode="&#x4d0;" horiz-adv-x="665" 
d="M12 0v86h14c18 0 27 4 33 22l221 598h105l221 -598c6 -18 15 -22 33 -22h14v-86h-55c-50 0 -66 12 -83 58l-53 145h-259l-53 -145c-17 -46 -33 -58 -83 -58h-55zM227 287h211l-77 215c-12 37 -28 99 -28 99h-2s-15 -62 -27 -99zM331 739c-77 0 -148 46 -148 128v15h78
v-14c0 -44 35 -66 70 -66s71 22 71 67v13h77v-15c0 -82 -70 -128 -148 -128z" />
    <glyph glyph-name="uni04D6" unicode="&#x4d6;" horiz-adv-x="571" 
d="M98 64v556h-65v86h416c45 0 64 -19 64 -64v-89h-92v45c0 15 -8 22 -22 22h-201v-221h248v-86h-248v-205c0 -14 8 -22 22 -22h207c14 0 22 8 22 22v45h91v-89c0 -45 -19 -64 -64 -64h-313c-45 0 -65 19 -65 64zM302 739c-77 0 -148 46 -148 128v15h78v-14
c0 -44 35 -66 70 -66s71 22 71 67v13h77v-15c0 -82 -70 -128 -148 -128z" />
    <glyph glyph-name="uni045E" unicode="&#x45e;" horiz-adv-x="543" 
d="M122 -210c-75 0 -119 50 -119 50l40 70c1 -3 32 -36 74 -36c39 0 70 28 89 73l23 55l-173 401c-7 16 -15 20 -31 20h-13v83h57c41 0 57 -11 73 -51l114 -285c10 -26 18 -61 18 -61h2s8 35 17 61l106 285c14 40 32 51 73 51h58v-83h-13c-16 0 -25 -4 -32 -20l-199 -494
c-32 -78 -93 -119 -164 -119zM274 564c-77 0 -148 46 -148 128v15h78v-14c0 -44 35 -66 70 -66s71 22 71 67v13h77v-15c0 -82 -70 -128 -148 -128z" />
    <glyph glyph-name="uni04C2" unicode="&#x4c2;" horiz-adv-x="753" 
d="M16 0l121 208c25 42 58 49 58 49v2s-24 7 -40 40l-52 104c-8 17 -19 20 -45 20h-26v83h60c47 0 65 -6 85 -47l65 -131c14 -27 39 -30 58 -30h30v208h94v-208h29c19 0 44 3 58 30l65 131c20 41 38 47 85 47h60v-83h-26c-25 0 -36 -3 -45 -20l-52 -104
c-15 -33 -40 -40 -40 -40v-2s33 -7 58 -49l122 -208h-113l-100 176c-20 33 -44 40 -71 40h-30v-216h-94v216h-30c-28 0 -51 -7 -72 -40l-99 -176h-113zM378 564c-77 0 -148 46 -148 128v15h78v-14c0 -44 35 -66 70 -66s71 22 71 67v13h77v-15c0 -82 -70 -128 -148 -128z" />
    <glyph glyph-name="uni04D1" unicode="&#x4d1;" horiz-adv-x="529" 
d="M28 138c0 170 221 177 306 177h22v7c0 87 -34 119 -112 119c-24 0 -83 -6 -83 -39v-29h-92v51c0 81 127 94 173 94c167 0 211 -85 211 -198v-215c0 -15 8 -22 22 -22h41v-83h-92c-45 0 -62 22 -62 58c0 18 1 30 1 30h-2c1 0 -43 -100 -163 -100c-88 0 -170 53 -170 150z
M125 147c0 -41 32 -82 95 -82c84 0 136 86 136 161v19h-26c-73 0 -205 -7 -205 -98zM265 564c-77 0 -148 46 -148 128v15h78v-14c0 -44 35 -66 70 -66s71 22 71 67v13h77v-15c0 -82 -70 -128 -148 -128z" />
    <glyph glyph-name="uni04D7" unicode="&#x4d7;" horiz-adv-x="539" 
d="M33 253c0 161 110 265 254 265c143 0 218 -107 218 -237c0 -14 -2 -33 -3 -41h-369c6 -109 84 -168 175 -168c77 0 132 47 149 59l41 -71c-24 -20 -100 -72 -196 -72c-159 0 -269 115 -269 265zM137 310h271c-3 87 -57 133 -123 133c-75 0 -134 -49 -148 -133zM281 564
c-77 0 -148 46 -148 128v15h78v-14c0 -44 35 -66 70 -66s71 22 71 67v13h77v-15c0 -82 -70 -128 -148 -128z" />
    <glyph glyph-name="uni0400" unicode="&#x400;" horiz-adv-x="571" 
d="M98 64v556h-65v86h416c45 0 64 -19 64 -64v-89h-92v45c0 15 -8 22 -22 22h-201v-221h248v-86h-248v-205c0 -14 8 -22 22 -22h207c14 0 22 8 22 22v45h91v-89c0 -45 -19 -64 -64 -64h-313c-45 0 -65 19 -65 64zM285 755l-95 127h98l73 -127h-76z" />
    <glyph glyph-name="uni040D" unicode="&#x40d;" horiz-adv-x="763" 
d="M99 0v598c0 15 -8 22 -22 22h-43v86h101c45 0 64 -19 64 -64v-387c0 -40 -6 -101 -6 -101h2s38 64 63 102l308 450h98v-598c0 -14 8 -22 22 -22h43v-86h-100c-46 0 -65 19 -65 64v388c0 39 6 103 6 103h-2s-35 -65 -60 -103l-310 -452h-99zM353 755l-95 127h98l73 -127
h-76z" />
    <glyph glyph-name="uni0450" unicode="&#x450;" horiz-adv-x="539" 
d="M33 253c0 161 110 265 254 265c143 0 218 -107 218 -237c0 -14 -2 -33 -3 -41h-369c6 -109 84 -168 175 -168c77 0 132 47 149 59l41 -71c-24 -20 -100 -72 -196 -72c-159 0 -269 115 -269 265zM137 310h271c-3 87 -57 133 -123 133c-75 0 -134 -49 -148 -133zM261 580
l-95 127h98l73 -127h-76z" />
    <glyph glyph-name="uni045D" unicode="&#x45d;" horiz-adv-x="619" 
d="M84 0v401c0 15 -8 22 -21 22h-40v83h89c45 0 64 -18 64 -63v-241c0 -27 -3 -65 -4 -70h2c4 8 30 47 47 70l218 304h96v-401c0 -15 8 -22 21 -22h40v-83h-89c-45 0 -64 19 -64 64v240c0 25 3 63 4 71h-2c-4 -9 -30 -48 -47 -71l-218 -304h-96zM294 580l-95 127h98l73 -127
h-76z" />
    <glyph glyph-name="uni0403" unicode="&#x403;" horiz-adv-x="514" 
d="M234 755l73 127h98l-95 -127h-76zM98 0v620h-65v86h404c45 0 64 -19 64 -64v-89h-91v45c0 15 -8 22 -22 22h-190v-620h-100z" />
    <glyph glyph-name="uni040C" unicode="&#x40c;" horiz-adv-x="612" 
d="M279 755l73 127h98l-95 -127h-76zM99 0v598c0 15 -8 22 -22 22h-43v86h101c45 0 64 -19 64 -64v-233h67c26 0 46 4 58 24l157 273h112l-171 -293c-20 -35 -40 -46 -40 -46v-2s20 -5 40 -44l106 -212c10 -21 26 -23 50 -23h19v-86h-55c-55 0 -76 7 -98 53l-122 245
c-12 23 -34 26 -63 26h-60v-324h-100z" />
    <glyph glyph-name="uni04F2" unicode="&#x4f2;" horiz-adv-x="622" 
d="M82 36l46 74c20 -17 45 -31 74 -31c43 0 62 28 80 79l-219 440c-8 16 -16 22 -33 22h-20v86h61c47 0 61 -14 81 -58l143 -305c21 -44 37 -87 37 -87h2s12 38 30 87l111 305c17 47 33 58 83 58h54v-86h-16c-18 0 -27 -4 -34 -21l-192 -486c-25 -64 -69 -125 -156 -125
c-64 0 -118 34 -132 48zM347 755l72 127h99l-96 -127h-75zM194 755l69 127h84l-70 -127h-83z" />
    <glyph glyph-name="uni04E2" unicode="&#x4e2;" horiz-adv-x="763" 
d="M261 785v68h254v-68h-254zM99 0v598c0 15 -8 22 -22 22h-43v86h101c45 0 64 -19 64 -64v-387c0 -40 -6 -101 -6 -101h2s38 64 63 102l308 450h98v-598c0 -14 8 -22 22 -22h43v-86h-100c-46 0 -65 19 -65 64v388c0 39 6 103 6 103h-2s-35 -65 -60 -103l-310 -452h-99z" />
    <glyph glyph-name="uni04EE" unicode="&#x4ee;" horiz-adv-x="622" 
d="M191 785v68h254v-68h-254zM82 36l46 74c20 -17 45 -31 74 -31c43 0 62 28 80 79l-219 440c-8 16 -16 22 -33 22h-20v86h61c47 0 61 -14 81 -58l143 -305c21 -44 37 -87 37 -87h2s12 38 30 87l111 305c17 47 33 58 83 58h54v-86h-16c-18 0 -27 -4 -34 -21l-192 -486
c-25 -64 -69 -125 -156 -125c-64 0 -118 34 -132 48z" />
    <glyph glyph-name="uni0453" unicode="&#x453;" horiz-adv-x="439" 
d="M186 580l73 127h98l-95 -127h-76zM85 0v423h-63v83h335c46 0 65 -16 65 -62v-77h-81v34c0 14 -8 22 -22 22h-137v-423h-97z" />
    <glyph glyph-name="uni045C" unicode="&#x45c;" horiz-adv-x="533" 
d="M230 580l73 127h98l-95 -127h-76zM85 0v401c0 15 -8 22 -22 22h-41v83h96c45 0 64 -19 64 -64v-135h42c21 0 41 5 53 23l121 176h109l-139 -201c-22 -32 -38 -38 -38 -38v-2s19 -7 38 -38l74 -124c10 -16 19 -20 44 -20h30v-83h-70c-47 0 -63 8 -84 47l-90 157
c-11 18 -28 20 -49 20h-41v-224h-97z" />
    <glyph glyph-name="uni04F3" unicode="&#x4f3;" horiz-adv-x="543" 
d="M43 -90c0 -1 31 -36 74 -36c39 0 70 28 89 73l23 55l-173 401c-7 16 -15 20 -31 20h-13v83h57c41 0 57 -11 73 -51l114 -285c10 -26 18 -61 18 -61h2s8 35 17 61l106 285c14 40 32 51 73 51h58v-83h-13c-16 0 -25 -4 -32 -20l-199 -494c-32 -78 -93 -119 -164 -119
c-75 0 -119 50 -119 50zM304 580l72 127h99l-96 -127h-75zM151 580l69 127h84l-70 -127h-83z" />
    <glyph glyph-name="uni04E3" unicode="&#x4e3;" horiz-adv-x="619" 
d="M84 0v401c0 15 -8 22 -21 22h-40v83h89c45 0 64 -18 64 -63v-241c0 -27 -3 -65 -4 -70h2c4 8 30 47 47 70l218 304h96v-401c0 -15 8 -22 21 -22h40v-83h-89c-45 0 -64 19 -64 64v240c0 25 3 63 4 71h-2c-4 -9 -30 -48 -47 -71l-218 -304h-96zM185 610v68h254v-68h-254z
" />
    <glyph glyph-name="uni04EF" unicode="&#x4ef;" horiz-adv-x="543" 
d="M44 -90c0 -1 31 -36 73 -36c40 0 70 28 89 73l24 55l-174 401c-7 16 -15 20 -31 20h-13v83h57c41 0 57 -11 73 -51l114 -285c10 -26 18 -61 18 -61h2s8 35 17 61l106 285c14 40 33 51 73 51h58v-83h-12c-17 0 -26 -4 -33 -20l-199 -494c-31 -78 -93 -119 -164 -119
c-75 0 -119 50 -119 50zM148 610v68h254v-68h-254z" />
    <glyph glyph-name="uni0405" unicode="&#x405;" horiz-adv-x="525" 
d="M29 93l58 71s73 -85 178 -85c65 0 120 40 120 105c0 147 -340 124 -340 345c0 106 92 189 226 189c75 0 200 -34 200 -130v-58h-92v33c0 37 -52 64 -109 64c-75 0 -124 -42 -124 -95c0 -142 341 -109 341 -343c0 -108 -84 -201 -224 -201c-151 0 -234 105 -234 105z" />
    <glyph glyph-name="uni0406" unicode="&#x406;" horiz-adv-x="315" 
d="M41 0v86h69v534h-69v86h233v-86h-68v-534h68v-86h-233z" />
    <glyph glyph-name="uni0408" unicode="&#x408;" horiz-adv-x="511" 
d="M16 203v35h100v-27c0 -98 57 -129 112 -129s110 33 110 125v391c0 15 -8 22 -22 22h-173v86h230c46 0 65 -19 65 -64v-439c0 -153 -107 -215 -211 -215s-211 63 -211 215z" />
    <glyph glyph-name="uni04C0" unicode="&#x4c0;" horiz-adv-x="318" 
d="M42 0v86h69v534h-69v86h233v-86h-68v-534h68v-86h-233z" />
    <glyph glyph-name="uni04D4" unicode="&#x4d4;" horiz-adv-x="863" 
d="M10 0v86h11c18 0 27 4 34 22l237 598h448c45 0 64 -19 64 -64v-89h-91v45c0 15 -8 22 -22 22h-195v-221h242v-86h-242v-205c0 -17 9 -22 26 -22h196c14 0 22 8 22 22v45h92v-89c0 -45 -19 -64 -64 -64h-301c-51 0 -72 14 -72 64v249h-159l-95 -255
c-17 -46 -33 -58 -83 -58h-48zM269 399h126v221h-43z" />
    <glyph glyph-name="uni0455" unicode="&#x455;" horiz-adv-x="449" 
d="M28 77l49 65s61 -75 154 -75c47 0 87 21 87 65c0 91 -275 81 -275 244c0 97 85 142 188 142c60 0 166 -21 166 -98v-48h-87v25c0 30 -46 43 -76 43c-57 0 -95 -20 -95 -60c0 -96 277 -75 277 -244c0 -90 -80 -148 -186 -148c-135 0 -202 89 -202 89z" />
    <glyph glyph-name="uni0456" unicode="&#x456;" horiz-adv-x="265" 
d="M86 605v101h87v-101h-87zM84 64v337c0 15 -8 22 -22 22h-41v83h95c46 0 65 -19 65 -64v-337c0 -15 8 -22 22 -22h41v-83h-96c-45 0 -64 19 -64 64z" />
    <glyph glyph-name="uni0458" unicode="&#x458;" horiz-adv-x="245" 
d="M86 605v101h87v-101h-87zM84 -11v412c0 15 -8 22 -22 22h-41v83h96c45 0 64 -19 64 -64v-459c0 -169 -131 -189 -194 -189c-20 0 -34 2 -34 2v83s9 -1 22 -1c38 0 109 12 109 111z" />
    <glyph glyph-name="uni04CF" unicode="&#x4cf;" horiz-adv-x="318" 
d="M42 0v83h69v540h-69v83h233v-83h-68v-540h68v-83h-233z" />
    <glyph glyph-name="uni04D5" unicode="&#x4d5;" horiz-adv-x="849" 
d="M29 141c0 161 194 172 298 172h29v11c0 88 -36 117 -112 117c-25 0 -83 -6 -83 -39v-29h-92v51c0 72 101 94 175 94c101 0 148 -35 172 -89h2c41 59 103 89 180 89c137 0 217 -105 217 -235c0 -15 -2 -41 -2 -41h-364c6 -114 78 -170 169 -170c87 0 148 60 148 60l41 -70
s-75 -74 -195 -74c-102 0 -177 48 -217 126h-2c-9 -25 -60 -125 -191 -125c-93 0 -173 54 -173 152zM453 313h263c-4 83 -58 127 -119 127c-75 0 -129 -45 -144 -127zM127 147c0 -42 32 -81 96 -81c83 0 134 86 134 162v14h-47c-77 0 -183 -10 -183 -95z" />
    <glyph glyph-name="uni0474" unicode="&#x474;" horiz-adv-x="692" 
d="M276 0l-262 706h112l175 -493c13 -38 27 -97 27 -97h2s14 59 27 97l140 414c24 71 49 79 118 79h66v-86h-22c-47 0 -58 -6 -72 -48l-205 -572h-106z" />
    <glyph glyph-name="uni0475" unicode="&#x475;" horiz-adv-x="562" 
d="M210 0l-195 506h106l128 -342c10 -28 18 -66 18 -66h2s8 38 18 66l86 249c24 70 55 93 127 93h52v-84h-26c-41 0 -57 -9 -74 -56l-134 -366h-108z" />
    <glyph glyph-name="uni04AF" unicode="&#x4af;" horiz-adv-x="533" 
d="M219 23l-165 380c-7 15 -15 20 -31 20h-10v83h50c44 0 61 -12 77 -51l106 -268c10 -27 20 -62 20 -62h2s11 35 21 62l105 268c16 39 32 51 77 51h50v-83h-10c-16 0 -25 -5 -32 -20l-164 -380v-223h-96v223z" />
    <glyph glyph-name="uni04AE" unicode="&#x4ae;" horiz-adv-x="606" 
d="M253 0v308l-179 287c-12 21 -22 25 -43 25h-20v86h46c48 0 67 -7 95 -54l107 -178c23 -39 43 -79 43 -79h2s20 40 43 79l106 178c28 47 48 54 95 54h47v-86h-20c-21 0 -31 -4 -44 -25l-178 -287v-308h-100z" />
    <glyph glyph-name="uni04B1" unicode="&#x4b1;" horiz-adv-x="534" 
d="M103 0v71h95l-144 332c-7 15 -15 20 -31 20h-10v83h50c44 0 61 -12 77 -51l106 -268c10 -27 20 -62 20 -62h2s11 35 21 62l105 268c16 39 32 51 77 51h50v-83h-10c-16 0 -25 -5 -32 -20l-144 -332h97v-71h-117v-200h-96v200h-116z" />
    <glyph glyph-name="uni0492" unicode="&#x492;" horiz-adv-x="512" 
d="M101 0v302h-65v76h65v242h-65v86h395c46 0 65 -19 65 -64v-89h-92v45c0 15 -8 22 -22 22h-181v-242h154v-76h-154v-302h-100z" />
    <glyph glyph-name="uni04B0" unicode="&#x4b0;" horiz-adv-x="605" 
d="M132 233v73h121v2l-178 287c-13 21 -24 25 -44 25h-20v86h46c48 0 68 -7 95 -54l107 -177c23 -40 43 -80 43 -80h2s20 40 43 80l106 177c29 47 48 54 95 54h47v-86h-20c-21 0 -32 -4 -44 -25l-178 -287v-2h119v-73h-119v-233h-100v233h-121z" />
    <glyph glyph-name="uni048E" unicode="&#x48e;" horiz-adv-x="610" 
d="M98 0v620h-65v86h320c129 0 221 -87 221 -221c0 -69 -25 -127 -66 -166l61 -81l-54 -44l-66 86c-28 -13 -61 -19 -96 -19h-155v-261h-100zM331 435l56 44l67 -90c17 23 26 53 26 90c0 88 -53 141 -139 141h-143v-282h142c21 0 41 3 58 9z" />
    <glyph glyph-name="uni049C" unicode="&#x49c;" horiz-adv-x="698" 
d="M271 202v122h-72v-324h-100v598c0 15 -8 22 -22 22h-43v86h101c45 0 64 -19 64 -64v-233h72v120h74v-120h10c26 0 47 3 58 24l153 273h112l-168 -293c-19 -35 -40 -46 -40 -46v-2s21 -5 40 -44l103 -212c10 -21 26 -23 50 -23h20v-86h-56c-55 0 -76 7 -98 53l-119 245
c-11 24 -33 26 -63 26h-2v-122h-74z" />
    <glyph glyph-name="uni049E" unicode="&#x49e;" horiz-adv-x="620" 
d="M20 525v75h82v106h100v-106h94v-75h-94v-116h72c25 0 46 4 58 24l156 273h112l-171 -293c-19 -35 -40 -46 -40 -46v-2s21 -5 40 -44l106 -212c10 -21 26 -23 50 -23h20v-86h-56c-55 0 -75 7 -98 53l-122 245c-11 23 -33 26 -63 26h-64v-324h-100v525h-82z" />
    <glyph glyph-name="uni04B8" unicode="&#x4b8;" horiz-adv-x="668" 
d="M289 273c-140 0 -211 74 -211 203v122c0 15 -8 22 -22 22h-43v86h101c45 0 64 -19 64 -64v-141c0 -85 34 -132 114 -138v138h74v-136c59 9 98 29 121 45v296h100v-706h-100v287c0 14 2 33 2 33h-2c-26 -14 -66 -31 -121 -41v-111h-74v105h-3z" />
    <glyph glyph-name="uni048F" unicode="&#x48f;" horiz-adv-x="612" 
d="M85 -200v601c0 15 -8 22 -22 22h-41v83h91c45 0 62 -19 62 -51c0 -16 -1 -27 -1 -27h2s42 90 168 90c137 0 223 -108 223 -265c0 -77 -22 -141 -60 -187l54 -65l-54 -47l-55 65c-33 -20 -72 -31 -115 -31c-112 0 -155 81 -155 81h-2s2 -18 2 -44v-225h-97zM327 170l54 47
l66 -79c17 29 28 67 28 113c0 111 -64 182 -149 182c-76 0 -147 -54 -147 -183c0 -94 50 -183 145 -183c26 0 50 6 72 19z" />
    <glyph glyph-name="uni049D" unicode="&#x49d;" horiz-adv-x="595" 
d="M236 114v114h-54v-228h-97v401c0 15 -8 22 -22 22h-41v83h95c46 0 65 -13 65 -58v-136h54v92h70v-92c19 0 36 4 47 21l110 173h109l-129 -197c-22 -31 -37 -37 -37 -37v-2s18 -10 34 -41l62 -126c8 -17 18 -20 44 -20h30v-83h-70c-47 0 -62 8 -84 47l-79 161
c-9 14 -22 18 -37 19v-113h-70z" />
    <glyph glyph-name="uni049F" unicode="&#x49f;" horiz-adv-x="524" 
d="M6 528v69h70v109h97v-109h117v-69h-117v-208h45c17 0 40 5 52 22l117 164h112l-138 -188c-23 -31 -38 -38 -38 -38v-2s17 -6 34 -38l75 -137c9 -16 18 -20 44 -20h30v-83h-70c-47 0 -62 8 -84 47l-92 170c-10 19 -33 21 -50 21h-37v-238h-97v528h-70z" />
    <glyph glyph-name="uni04B9" unicode="&#x4b9;" horiz-adv-x="569" 
d="M246 178c-109 0 -171 60 -171 158v65c0 16 -6 22 -22 22h-37v83h92c48 0 63 -25 63 -65v-79c0 -49 14 -93 82 -101v122h70v-119c36 7 66 21 84 32v210h97v-506h-97v187c0 14 2 31 2 31h-2c-22 -12 -51 -24 -84 -31v-88h-70v79h-7z" />
    <glyph glyph-name="uni0493" unicode="&#x493;" horiz-adv-x="442" 
d="M23 197v69h62v157h-63v83h335c46 0 65 -16 65 -62v-77h-81v34c0 14 -8 22 -22 22h-137v-157h129v-69h-129v-197h-97v197h-62z" />
    <glyph glyph-name="uni04E1" unicode="&#x4e1;" horiz-adv-x="472" 
d="M46 -71c38 -32 100 -55 152 -55c94 0 155 52 155 128c0 64 -31 101 -111 111c-19 3 -46 4 -145 4v65l184 203c21 22 42 38 42 38l-1 2s-29 -2 -63 -2h-132c-14 0 -22 -8 -22 -22v-34h-85v76c0 45 19 63 64 63h346v-79l-191 -207c-13 -13 -28 -25 -28 -25v-2
c43 -1 64 -3 84 -7c132 -24 155 -114 155 -179c0 -136 -107 -217 -247 -217c-73 0 -145 26 -198 64z" />
    <glyph glyph-name="uni04E0" unicode="&#x4e0;" horiz-adv-x="505" 
d="M65 129c38 -32 100 -55 152 -55c94 0 155 52 155 128c0 64 -31 101 -111 111c-19 3 -46 4 -145 4v65l184 203c21 22 42 38 42 38l-1 2s-29 -2 -63 -2h-132c-14 0 -22 -8 -22 -22v-34h-85v76c0 45 19 63 64 63h346v-79l-191 -207c-13 -13 -28 -25 -28 -25v-2
c43 -1 64 -3 84 -7c132 -24 155 -114 155 -179c0 -136 -107 -217 -247 -217c-73 0 -145 26 -198 64z" />
    <glyph glyph-name="uni0490" unicode="&#x490;" horiz-adv-x="501" 
d="M98 0v620h-65v86h341c14 0 22 8 22 22v50h92v-94c0 -45 -19 -64 -65 -64h-225v-620h-100z" />
    <glyph glyph-name="uni0491" unicode="&#x491;" horiz-adv-x="417" 
d="M85 0v423h-62v83h277c15 0 22 8 22 22v45h82v-88c0 -45 -19 -62 -64 -62h-158v-423h-97z" />
    <glyph glyph-name="uni0524" unicode="&#x524;" horiz-adv-x="766" 
d="M99 0v620h-66v86h559c45 0 64 -19 64 -64v-556h33c46 0 63 -17 63 -63v-163h-89v118c0 14 -8 22 -21 22h-86v598c0 15 -8 22 -22 22h-335v-620h-100z" />
    <glyph glyph-name="uni0525" unicode="&#x525;" horiz-adv-x="618" 
d="M84 0v423h-57v83h433c46 0 65 -19 65 -64v-361h23c44 0 62 -19 62 -62v-139h-90v98c0 14 -7 22 -20 22h-72v401c0 14 -8 22 -22 22h-225v-423h-97z" />
    <glyph glyph-name="uni0404" unicode="&#x404;" horiz-adv-x="694" 
d="M142 309c16 -133 115 -231 252 -231s221 92 221 92l52 -68s-98 -114 -275 -114c-211 0 -358 165 -358 369c0 206 152 361 351 361c100 0 269 -39 269 -153v-65h-92v40c0 59 -100 88 -172 88c-136 0 -237 -98 -250 -237h370v-82h-368z" />
    <glyph glyph-name="uni0454" unicode="&#x454;" horiz-adv-x="529" 
d="M33 253c0 149 109 265 272 265c61 0 182 -25 182 -111v-46h-83v26c0 35 -59 53 -103 53c-90 0 -162 -57 -173 -151h243v-68h-243c12 -94 87 -154 178 -154c102 0 164 67 164 67l38 -67s-71 -79 -205 -79c-159 0 -270 113 -270 265z" />
    <glyph glyph-name="uni0462" unicode="&#x462;" horiz-adv-x="679" 
d="M188 64v461h-176v87h176v94h100v-94h194v-87h-194v-111h141c119 0 231 -56 231 -199c0 -146 -111 -215 -231 -215h-176c-45 0 -65 19 -65 64zM288 106c0 -15 8 -22 22 -22h117c77 0 130 47 130 129c0 78 -54 117 -130 117h-139v-224z" />
    <glyph glyph-name="uni04A8" unicode="&#x4a8;" horiz-adv-x="907" 
d="M35 364c0 211 142 323 252 355l34 -90c-88 -30 -186 -116 -186 -268c0 -148 88 -282 261 -282c37 0 74 6 109 17c-94 71 -156 179 -156 313c0 192 127 297 260 297c145 0 254 -107 254 -290c0 -124 -69 -240 -170 -320c35 -10 74 -14 115 -14h46v-82h-48
c-71 0 -140 13 -201 39c-65 -33 -137 -51 -210 -51c-210 0 -360 148 -360 376zM451 410c0 -117 52 -215 144 -272c98 62 166 165 166 277c0 138 -70 201 -153 201c-72 0 -157 -62 -157 -206z" />
    <glyph glyph-name="uni04BC" unicode="&#x4bc;" horiz-adv-x="849" 
d="M189 344c-101 0 -165 59 -165 170c0 26 1 57 7 83l8 39h91l-9 -40c-5 -23 -7 -44 -7 -73c0 -53 20 -101 79 -101h4c27 177 154 296 321 296c179 0 291 -126 291 -328c0 -11 -3 -47 -3 -47h-510c3 -168 114 -264 245 -264c116 0 201 70 215 83l48 -76
c-8 -8 -99 -98 -274 -98c-191 0 -335 145 -338 356h-3zM298 422h411c0 109 -60 208 -191 208c-127 0 -206 -100 -220 -208z" />
    <glyph glyph-name="uni04D8" unicode="&#x4d8;" horiz-adv-x="694" 
d="M38 339c0 19 3 50 3 50h513c-7 141 -100 238 -235 238c-119 0 -203 -63 -217 -76l-49 74c8 7 103 93 276 93c196 0 329 -156 329 -362c0 -211 -125 -368 -321 -368c-182 0 -299 122 -299 351zM138 310c0 -145 63 -233 205 -233c123 0 208 92 210 233h-415z" />
    <glyph glyph-name="uni0494" unicode="&#x494;" horiz-adv-x="606" 
d="M98 0v624h-65v82h412c46 0 63 -17 63 -62v-81h-83v39c0 15 -8 22 -22 22h-205v-236c28 13 87 29 137 29c139 0 241 -73 241 -284c0 -221 -103 -311 -255 -311v81c79 0 153 45 153 230c0 141 -50 198 -158 198c-49 0 -92 -16 -118 -28v-303h-100z" />
    <glyph glyph-name="uni04A6" unicode="&#x4a6;" horiz-adv-x="993" 
d="M99 0v620h-66v86h494c45 0 64 -19 64 -64v-240c28 13 86 29 136 29c139 0 242 -76 242 -294c0 -224 -100 -315 -256 -315v81c79 0 153 45 153 234c0 151 -50 212 -158 212c-49 0 -91 -17 -117 -27v-322h-100v598c0 15 -8 22 -22 22h-270v-620h-100z" />
    <glyph glyph-name="uni04C3" unicode="&#x4c3;" horiz-adv-x="633" 
d="M99 0v598c0 15 -8 22 -22 22h-43v86h101c45 0 64 -19 64 -64v-233h67c26 0 47 5 58 24l161 273h112l-158 -266c-22 -38 -38 -47 -42 -50v-1c176 -55 195 -203 195 -273c0 -183 -98 -294 -247 -294v83c70 0 144 51 144 212c0 137 -86 207 -216 207h-74v-324h-100z" />
    <glyph glyph-name="uni04C7" unicode="&#x4c7;" horiz-adv-x="763" 
d="M99 0v598c0 15 -8 22 -22 22h-43v86h101c45 0 64 -19 64 -64v-247h366v247c0 45 19 64 64 64h101v-86h-43c-14 0 -22 -7 -22 -22v-547c0 -202 -118 -230 -207 -230v84c44 0 107 18 107 145v260h-366v-310h-100z" />
    <glyph glyph-name="uni04A9" unicode="&#x4a9;" horiz-adv-x="765" 
d="M33 261c0 147 102 229 184 257l33 -79c-59 -23 -125 -84 -125 -180c0 -98 60 -191 201 -191c28 0 58 4 88 12c-72 51 -121 126 -121 223c0 119 89 215 218 215c128 0 208 -87 208 -203c0 -87 -50 -170 -125 -231c24 -5 50 -7 77 -7h54v-77h-50c-56 0 -114 10 -167 30
c-56 -27 -119 -42 -182 -42c-190 0 -293 120 -293 273zM386 305c0 -83 46 -149 116 -188c71 42 124 109 124 193c0 81 -46 130 -117 130s-123 -57 -123 -135z" />
    <glyph glyph-name="uni04BD" unicode="&#x4bd;" horiz-adv-x="657" 
d="M421 -12c-155 0 -263 109 -268 253c-88 0 -132 50 -132 149c0 21 5 53 11 74h80c-7 -21 -12 -49 -12 -69c0 -57 19 -83 58 -84c23 127 122 207 248 207c142 0 218 -107 218 -237c0 -14 -2 -41 -2 -41h-370c5 -110 84 -168 175 -168c87 0 147 60 147 60l42 -70
s-75 -74 -195 -74zM256 310h270c-3 85 -57 131 -120 131c-75 0 -136 -46 -150 -131z" />
    <glyph glyph-name="uni04D9" unicode="&#x4d9;" horiz-adv-x="541" 
d="M34 235c0 16 3 45 3 45h370c-5 97 -77 158 -163 158c-93 0 -161 -57 -161 -57l-38 69c15 10 91 68 210 68c152 0 251 -112 251 -264c0 -166 -106 -266 -247 -266c-147 0 -225 104 -225 247zM135 210c3 -106 59 -145 126 -145c72 0 138 46 143 145h-269z" />
    <glyph glyph-name="uni04A7" unicode="&#x4a7;" horiz-adv-x="813" 
d="M84 0v423h-57v83h510v-83h-56v-148c31 15 72 26 110 26c150 0 202 -109 202 -230c0 -133 -67 -223 -150 -278l-48 69c54 35 104 96 104 209c0 74 -27 146 -127 146c-42 0 -75 -15 -91 -24v-193h-97v423h-203v-423h-97z" />
    <glyph glyph-name="uni0433.BUL" horiz-adv-x="443" 
d="M33 125c0 167 272 154 272 257c0 38 -36 56 -82 56s-89 -17 -89 -46v-21h-87v45c0 75 99 102 178 102c95 0 176 -39 176 -132c0 -168 -270 -158 -270 -260c0 -38 35 -57 83 -57c79 0 143 50 154 62l48 -65c-13 -14 -83 -78 -202 -78c-101 0 -181 47 -181 137z" />
    <glyph glyph-name="uni0434.BUL" horiz-adv-x="594" 
d="M114 -90c0 0 63 -34 138 -34c88 0 161 39 161 141v34c0 16 1 32 1 32h-2c-30 -49 -77 -77 -150 -77c-141 0 -227 113 -227 259c0 145 81 253 222 253c127 0 163 -79 163 -79h2s-1 8 -1 16c0 30 17 51 57 51h94v-83h-41c-13 0 -22 -7 -22 -20v-382
c0 -167 -126 -231 -255 -231c-60 0 -123 17 -172 42zM281 90c70 0 134 42 134 174s-64 170 -143 170c-88 0 -138 -64 -138 -167c0 -105 56 -177 147 -177z" />
    <glyph glyph-name="uni0436.BUL" horiz-adv-x="764" 
d="M16 0l121 208c25 42 58 49 58 49v2s-24 7 -40 40l-52 104c-8 17 -19 20 -45 20h-26v83h60c47 0 65 -6 85 -47l65 -131c14 -27 39 -30 58 -30h35v408h94v-408h34c20 0 45 3 58 30l65 131c21 41 38 47 85 47h61v-83h-27c-25 0 -36 -3 -45 -20l-51 -104
c-16 -33 -40 -40 -40 -40v-2s33 -7 58 -49l121 -208h-112l-101 176c-20 35 -43 41 -71 41h-35v-217h-94v217h-35c-28 0 -51 -6 -72 -41l-99 -176h-113z" />
    <glyph glyph-name="uni0438.BUL" horiz-adv-x="618" 
d="M80 182v219c0 15 -8 22 -22 22h-41v83h95c45 0 64 -19 64 -62v-240c0 -70 15 -126 95 -126c104 0 165 91 165 191v237h97v-401c0 -15 8 -22 22 -22h41v-83h-93c-44 0 -64 20 -64 56v19c0 16 1 29 1 29h-2c-21 -50 -87 -116 -186 -116c-114 0 -172 60 -172 194z" />
    <glyph glyph-name="uni0439.BUL" horiz-adv-x="618" 
d="M80 182v219c0 15 -8 22 -22 22h-41v83h95c45 0 64 -19 64 -62v-240c0 -70 15 -126 95 -126c104 0 165 91 165 191v237h97v-401c0 -15 8 -22 22 -22h41v-83h-93c-44 0 -64 20 -64 56v19c0 16 1 29 1 29h-2c-21 -50 -87 -116 -186 -116c-114 0 -172 60 -172 194zM305 564
c-77 0 -148 46 -148 128v15h78v-14c0 -44 35 -66 70 -66s71 22 71 67v13h77v-15c0 -82 -70 -128 -148 -128z" />
    <glyph glyph-name="uni043A.BUL" horiz-adv-x="515" 
d="M67 0v601c0 15 -8 22 -22 22h-41v83h95c45 0 65 -13 65 -58v-328h45c18 0 40 5 52 22l117 164h112l-138 -188c-23 -31 -38 -38 -38 -38v-2s17 -6 34 -38l75 -137c9 -16 18 -20 44 -20h30v-83h-70c-46 0 -62 8 -83 47l-93 170c-10 19 -33 21 -50 21h-37v-238h-97z" />
    <glyph glyph-name="uni043B.BUL" horiz-adv-x="519" 
d="M15 0v83h12c15 0 24 4 30 19l143 404h119l143 -404c5 -15 15 -19 31 -19h11v-83h-53c-43 0 -62 12 -75 50l-94 282c-10 30 -23 81 -23 81h-2s-13 -51 -23 -81l-94 -282c-14 -38 -32 -50 -75 -50h-50z" />
    <glyph glyph-name="uni043F.BUL" horiz-adv-x="623" 
d="M85 0v401c0 15 -8 22 -22 22h-41v83h93c44 0 64 -19 64 -56v-19c0 -16 -2 -29 -2 -29h2c20 44 80 116 191 116c119 0 173 -65 173 -194v-219c0 -15 8 -22 22 -22h41v-83h-96c-45 0 -64 19 -64 64v238c0 71 -14 127 -95 127c-77 0 -139 -51 -160 -124
c-7 -20 -9 -43 -9 -68v-237h-97z" />
    <glyph glyph-name="uni0442.BUL" horiz-adv-x="934" 
d="M85 0v401c0 15 -8 22 -22 22h-41v83h93c44 0 64 -19 64 -56v-19c0 -16 -1 -29 -1 -29h2c24 59 94 116 173 116c86 0 135 -39 153 -115h2c27 61 97 115 179 115c114 0 167 -65 167 -194v-219c0 -15 8 -22 22 -22h41v-83h-96c-45 0 -64 19 -64 64v239c0 71 -14 127 -89 127
c-70 0 -124 -61 -141 -130c-6 -21 -9 -43 -9 -69v-231h-97v303c0 66 -10 127 -87 127c-73 0 -126 -62 -145 -134c-5 -20 -7 -42 -7 -65v-231h-97z" />
    <glyph glyph-name="uni0446.BUL" horiz-adv-x="632" 
d="M80 182v219c0 15 -8 22 -22 22h-41v83h95c45 0 64 -19 64 -62v-240c0 -70 15 -126 95 -126c104 0 165 91 165 191v237h97v-401c0 -15 8 -22 22 -22h60v-203h-89v120h-23c-44 0 -64 20 -64 56v19c0 16 1 29 1 29h-2c-21 -50 -87 -116 -186 -116c-114 0 -172 60 -172 194z
" />
    <glyph glyph-name="uni0448.BUL" horiz-adv-x="934" 
d="M849 506v-401c0 -15 8 -22 22 -22h41v-83h-93c-44 0 -64 19 -64 56v19c0 16 1 29 1 29h-2c-24 -59 -94 -116 -173 -116c-86 0 -135 39 -153 115h-2c-27 -61 -97 -115 -179 -115c-114 0 -167 65 -167 194v219c0 15 -8 22 -22 22h-41v83h96c45 0 64 -19 64 -64v-239
c0 -71 14 -127 89 -127c70 0 124 61 141 130c6 21 9 43 9 69v231h97v-303c0 -66 10 -127 87 -127c73 0 126 62 145 134c5 20 7 42 7 65v231h97z" />
    <glyph glyph-name="uni0449.BUL" horiz-adv-x="950" 
d="M849 506v-401c0 -15 8 -22 22 -22h70v-203h-90v120h-32c-44 0 -64 19 -64 56v19c0 16 1 29 1 29h-2c-24 -59 -94 -116 -173 -116c-86 0 -135 39 -153 115h-2c-27 -61 -97 -115 -179 -115c-114 0 -167 65 -167 194v219c0 15 -8 22 -22 22h-41v83h96c45 0 64 -19 64 -64
v-239c0 -71 14 -127 89 -127c70 0 124 61 141 130c6 21 9 43 9 69v231h97v-303c0 -66 10 -127 87 -127c73 0 126 62 145 134c5 20 7 42 7 65v231h97z" />
    <glyph glyph-name="uni044A.BUL" horiz-adv-x="617" 
d="M182 182v224c0 14 -8 22 -21 22h-47c-15 0 -22 -8 -22 -22v-38h-74v76c0 46 19 62 64 62h132c45 0 65 -19 65 -62v-77c0 -18 -1 -38 -2 -48l2 1c27 32 72 55 132 55c104 0 182 -67 182 -193c0 -113 -80 -194 -211 -194c-141 0 -200 86 -200 194zM278 180
c0 -65 38 -116 106 -116c63 0 111 41 111 115c0 88 -50 117 -108 117c-65 0 -109 -46 -109 -116z" />
    <glyph glyph-name="uni044C.BUL" horiz-adv-x="515" 
d="M79 182v219c0 15 -7 22 -20 22h-43v83h96c45 0 64 -19 64 -62v-77c0 -18 -1 -38 -2 -48l2 1c28 32 73 55 133 55c104 0 182 -67 182 -193c0 -113 -80 -194 -211 -194c-141 0 -201 86 -201 194zM176 180c0 -65 37 -116 106 -116c63 0 111 41 111 115
c0 88 -50 117 -108 117c-65 0 -109 -44 -109 -116z" />
    <glyph glyph-name="uni044E.BUL" horiz-adv-x="811" 
d="M67 0v601c0 15 -8 22 -22 22h-41v83h95c45 0 65 -19 65 -64v-349h92c17 132 124 225 258 225c148 0 264 -111 264 -264c0 -154 -116 -266 -264 -266c-135 0 -242 95 -259 229h-91v-217h-97zM349 254c0 -106 73 -182 165 -182s166 76 166 182c0 105 -74 180 -166 180
s-165 -75 -165 -180z" />
    <glyph glyph-name="uni0432.BUL" horiz-adv-x="572" 
d="M55 242v192c0 160 89 284 248 284c109 0 178 -63 178 -139c0 -67 -44 -118 -122 -156v-2c79 -7 181 -63 181 -191c0 -142 -100 -242 -248 -242c-160 0 -237 115 -237 254zM150 368h2c15 26 47 49 74 63l59 29c71 36 100 66 100 113c0 44 -43 72 -92 72
c-94 0 -143 -79 -143 -181v-96zM150 223c0 -102 63 -154 141 -154c81 0 149 52 149 158c0 98 -76 133 -145 133c-66 0 -145 -41 -145 -137z" />
    <glyph glyph-name="uni0437.BUL" horiz-adv-x="448" 
d="M53 -83c21 -14 65 -42 126 -42c86 0 138 59 138 136c0 80 -53 125 -156 125h-52v79h49c77 0 139 42 139 121c0 60 -37 104 -112 104c-39 0 -82 -14 -82 -43v-25h-87v48c0 73 96 98 173 98c138 0 206 -76 206 -170c1 -76 -46 -137 -107 -165v-2c90 -30 128 -98 128 -172
c0 -131 -98 -219 -229 -219c-87 0 -148 35 -171 51z" />
    <glyph glyph-name="currency" unicode="&#xa4;" horiz-adv-x="617" 
d="M128 0v170h-71v70h71v70h-71v79h71v237h-65v80h297c129 0 222 -73 222 -197s-92 -199 -222 -199h-132v-70h250v-70h-250v-170h-100zM228 389h116c86 0 135 49 135 120c0 72 -49 117 -134 117h-117v-237z" />
    <glyph glyph-name="numero" unicode="&#x2116;" horiz-adv-x="1069" 
d="M41 0v86h43c14 0 22 8 22 22v598h90l315 -447c26 -38 58 -96 58 -96h2s-6 57 -6 96v383c0 45 19 64 65 64h100v-86h-43c-14 0 -22 -7 -22 -22v-598h-90l-315 447c-26 38 -59 96 -59 96h-2s7 -57 7 -96v-383c0 -45 -19 -64 -65 -64h-100zM746 470c0 79 63 141 143 141
s143 -62 143 -141c0 -80 -63 -142 -143 -142s-143 62 -143 142zM821 471c0 -41 30 -72 68 -72c39 0 69 31 69 72c0 39 -30 69 -69 69c-38 0 -68 -30 -68 -69zM761 197v69h261v-69h-261z" />
    <glyph glyph-name="uni0414.ALT" horiz-adv-x="704" 
d="M10 23c0 46 17 63 63 63h13l213 620h106l213 -620h13c45 0 63 -17 63 -63v-163h-90v118c0 14 -8 22 -21 22h-462c-14 0 -21 -7 -21 -22v-118h-90v163zM188 86h325l-137 415c-11 36 -25 98 -25 98h-2s-14 -62 -25 -98z" />
    <glyph glyph-name="uni041B.ALT" horiz-adv-x="648" 
d="M12 0v86h15c18 0 27 4 33 22l209 598h110l208 -598c7 -18 16 -22 34 -22h15v-86h-57c-50 0 -67 11 -82 58l-147 433c-12 37 -27 103 -27 103h-2s-15 -66 -27 -103l-147 -433c-15 -47 -31 -58 -81 -58h-54z" />
    <glyph glyph-name="uni0434.ALT" horiz-adv-x="582" 
d="M10 18c0 43 20 63 63 63l161 425h119l157 -425c42 0 62 -20 62 -63v-138h-89v98c0 15 -8 22 -22 22h-344c-14 0 -18 -7 -18 -22v-98h-89v138zM170 81h243l-96 260c-11 31 -24 81 -24 81h-2s-13 -50 -23 -81z" />
    <glyph glyph-name="uni043B.ALT" horiz-adv-x="519" 
d="M15 0v83h12c15 0 24 4 30 19l143 404h119l143 -404c5 -15 15 -19 31 -19h11v-83h-53c-43 0 -62 12 -75 50l-95 282c-10 30 -22 81 -22 81h-2s-13 -51 -23 -81l-94 -282c-14 -38 -32 -50 -75 -50h-50z" />
    <glyph glyph-name="uni0409.ALT" horiz-adv-x="877" 
d="M10 0v86h11c17 0 27 4 35 23l237 597h144c45 0 64 -19 64 -64v-224h123c114 0 234 -52 234 -206c0 -145 -106 -212 -238 -212h-155c-45 0 -64 19 -64 64v534c0 15 -8 22 -22 22h-16l-221 -562c-19 -47 -36 -58 -84 -58h-48zM501 106c0 -15 8 -22 22 -22h103
c81 0 129 48 129 126s-47 124 -128 124h-126v-228z" />
    <glyph glyph-name="uni0459.ALT" horiz-adv-x="745" 
d="M11 0v83h12c15 0 29 6 37 24l168 399h147c43 0 63 -19 63 -58v-127h99c118 0 187 -59 187 -159c0 -92 -63 -162 -187 -162h-140c-39 0 -55 17 -55 55v354c0 14 -8 22 -22 22h-28l-159 -381c-16 -38 -32 -50 -76 -50h-46zM438 90c0 -13 8 -20 19 -20h70
c65 0 101 38 101 90c0 55 -34 91 -102 91h-88v-161z" />
    <glyph glyph-name="uni04C5.ALT" horiz-adv-x="720" 
d="M13 0v86h15c18 0 27 4 33 22l209 598h110l206 -598c6 -18 15 -22 32 -22h93v-57l-72 -169h-73l42 140h-34c-47 0 -63 11 -79 58l-147 433c-12 37 -24 103 -24 103h-2s-15 -66 -27 -103l-147 -433c-15 -47 -31 -58 -81 -58h-54z" />
    <glyph glyph-name="uni04C6.ALT" horiz-adv-x="585" 
d="M15 0v83h12c15 0 24 4 30 19l143 404h119l143 -404c5 -14 14 -19 26 -19h87v-55l-63 -148h-68l35 120h-28c-47 0 -62 11 -75 50l-94 282c-10 30 -23 81 -23 81h-2s-13 -51 -23 -81l-94 -282c-14 -38 -32 -50 -75 -50h-50z" />
    </font>
</defs>
</svg>
